<?xml version="1.0" encoding="UTF-8"?>
<svg width="99px" height="119px" viewBox="0 0 99 119" version="1.1" xmlns="http://www.w3.org/2000/svg" xmlns:xlink="http://www.w3.org/1999/xlink">
    <!-- Generator: Sketch 46.2 (44496) - http://www.bohemiancoding.com/sketch -->
    <title>.icon-sql</title>
    <desc>Created with Sketch.</desc>
    <defs></defs>
    <g id="Homepage" stroke="none" stroke-width="1" fill="none" fill-rule="evenodd" stroke-linecap="round" stroke-linejoin="round">
        <g id="Home" transform="translate(-1072.000000, -999.000000)" stroke="#1CB1F5" stroke-width="3">
            <g id="section.hero-secondary" transform="translate(0.000000, 801.000000)">
                <g id="ul.file-icons" transform="translate(254.000000, 200.000000)">
                    <g id=".icon-sql" transform="translate(820.000000, 0.000000)">
                        <polyline id="Shape" points="77.3333333 89.7291667 64.9375 89.7291667 64.9375 64.9375"></polyline>
                        <path d="M19.1225,83.575875 C19.3257917,87.0070417 21.9983333,89.7291667 25.2708333,89.7291667 C28.67225,89.7291667 31.4191667,86.7839167 31.4191667,83.1544167 C31.4191667,77.7994167 26.3418333,77.64075 25.265875,77.3333333 C24.1899167,77.016 19.1125833,76.8573333 19.1125833,71.5072917 C19.1125833,67.88275 21.874375,64.9375 25.2708333,64.9375 C28.5334167,64.9375 31.2059583,67.659625 31.40925,71.0858333" id="Shape"></path>
                        <polygon id="Shape" points="94.6875 114.520833 0.479166667 114.520833 0.479166667 0.479166667 64.9375 0.479166667 94.6875 30.2291667"></polygon>
                        <polyline id="Shape" points="64.9375 0.479166667 64.9375 30.2291667 94.6875 30.2291667"></polyline>
                        <path d="M55.0208333,77.3333333 C55.0208333,84.587375 53.7713333,89.7291667 47.5833333,89.7291667 C41.390375,89.7291667 40.1458333,84.587375 40.1458333,77.3333333 C40.1458333,70.069375 41.390375,64.9375 47.5833333,64.9375 C53.7713333,64.9375 55.0208333,70.069375 55.0208333,77.3333333 Z" id="Shape"></path>
                        <path d="M47.5833333,92.2083333 C49.55675,90.6960417 53.3250833,93.7107083 54.8572083,92.2083333" id="Shape"></path>
                    </g>
                </g>
            </g>
        </g>
    </g>
</svg>