<?xml version="1.0" encoding="UTF-8"?>
<svg width="116px" height="119px" viewBox="0 0 116 119" version="1.1" xmlns="http://www.w3.org/2000/svg" xmlns:xlink="http://www.w3.org/1999/xlink">
    <!-- Generator: Sketch 46.2 (44496) - http://www.bohemiancoding.com/sketch -->
    <title>.icon-html</title>
    <desc>Created with Sketch.</desc>
    <defs></defs>
    <g id="Homepage" stroke="none" stroke-width="1" fill="none" fill-rule="evenodd" stroke-linecap="round" stroke-linejoin="round">
        <g id="Home" transform="translate(-252.000000, -999.000000)" stroke-width="3" stroke="#1CB1F5">
            <g id="section.hero-secondary" transform="translate(0.000000, 801.000000)">
                <g id="ul.file-icons" transform="translate(254.000000, 200.000000)">
                    <g id=".icon-html">
                        <polyline id="Shape" points="112.041667 89.7291667 99.6458333 89.7291667 99.6458333 64.9375"></polyline>
                        <path d="M54.5833333,89.7291667 L54.5833333,64.9375" id="Shape"></path>
                        <path d="M50.0625,64.4583333 L59.9791667,64.4583333" id="Shape"></path>
                        <polyline id="Shape" points="89.7291667 89.7390833 89.7291667 64.9375 79.8125 77.3382917 69.8958333 64.9375 69.8958333 89.7390833"></polyline>
                        <path d="M24.7916667,89.7291667 L24.7916667,64.9375" id="Shape"></path>
                        <path d="M39.7916667,89.7291667 L39.7916667,64.9375" id="Shape"></path>
                        <path d="M25.2708333,79.4583333 L40.1458333,79.4583333" id="Shape"></path>
                        <polyline id="Shape" points="94.6875 102.125 94.6875 114.520833 0.479166667 114.520833 0.479166667 0.479166667 64.9375 0.479166667 94.6875 30.2291667 94.6875 52.5416667"></polyline>
                        <polyline id="Shape" points="64.9375 0.479166667 64.9375 30.2291667 94.6875 30.2291667"></polyline>
                    </g>
                </g>
            </g>
        </g>
    </g>
</svg>