<?xml version="1.0" encoding="UTF-8"?>
<svg width="99px" height="119px" viewBox="0 0 99 119" version="1.1" xmlns="http://www.w3.org/2000/svg" xmlns:xlink="http://www.w3.org/1999/xlink">
    <!-- Generator: Sketch 46.2 (44496) - http://www.bohemiancoding.com/sketch -->
    <title>.icon-css</title>
    <desc>Created with Sketch.</desc>
    <defs></defs>
    <g id="Homepage" stroke="none" stroke-width="1" fill="none" fill-rule="evenodd" stroke-linecap="round" stroke-linejoin="round">
        <g id="Home" transform="translate(-457.000000, -999.000000)" stroke="#1CB1F5" stroke-width="3">
            <g id="section.hero-secondary" transform="translate(0.000000, 801.000000)">
                <g id="ul.file-icons" transform="translate(254.000000, 200.000000)">
                    <g id=".icon-css" transform="translate(205.000000, 0.000000)">
                        <path d="M38.9558333,83.575875 C39.159125,87.0070417 41.8316667,89.7291667 45.1041667,89.7291667 C48.5055833,89.7291667 51.2525,86.7839167 51.2525,83.1544167 C51.2525,77.7994167 46.1751667,77.64075 45.0992083,77.3333333 C44.02325,77.016 38.9459167,76.8573333 38.9459167,71.5072917 C38.9459167,67.88275 41.7077083,64.9375 45.1041667,64.9375 C48.36675,64.9375 51.0392917,67.659625 51.2425833,71.0858333" id="Shape"></path>
                        <path d="M63.7475,83.575875 C63.9507917,87.0070417 66.6233333,89.7291667 69.8958333,89.7291667 C73.29725,89.7291667 76.0441667,86.7839167 76.0441667,83.1544167 C76.0441667,77.7994167 70.9668333,77.64075 69.890875,77.3333333 C68.8149167,77.016 63.7375833,76.8573333 63.7375833,71.5072917 C63.7375833,67.88275 66.499375,64.9375 69.8958333,64.9375 C73.1584167,64.9375 75.8309583,67.659625 76.03425,71.0858333" id="Shape"></path>
                        <path d="M28.776375,71.080875 C27.9830417,67.391875 26.1930833,64.9325417 22.3454167,64.9325417 C16.3904583,64.9325417 15.3541667,70.069375 15.3541667,77.3333333 C15.3541667,84.5923333 16.3904583,89.7291667 22.3454167,89.7291667 C26.188125,89.7291667 27.9830417,87.2698333 28.776375,83.5808333" id="Shape"></path>
                        <polygon id="Shape" points="94.6875 114.520833 0.479166667 114.520833 0.479166667 0.479166667 64.9375 0.479166667 94.6875 30.2291667"></polygon>
                        <polyline id="Shape" points="64.9375 0.479166667 64.9375 30.2291667 94.6875 30.2291667"></polyline>
                    </g>
                </g>
            </g>
        </g>
    </g>
</svg>