<?xml version="1.0" encoding="UTF-8"?>
<svg width="99px" height="119px" viewBox="0 0 99 119" version="1.1" xmlns="http://www.w3.org/2000/svg" xmlns:xlink="http://www.w3.org/1999/xlink">
    <!-- Generator: Sketch 46.2 (44496) - http://www.bohemiancoding.com/sketch -->
    <title>.icon-php</title>
    <desc>Created with Sketch.</desc>
    <defs></defs>
    <g id="Homepage" stroke="none" stroke-width="1" fill="none" fill-rule="evenodd" stroke-linecap="round" stroke-linejoin="round">
        <g id="Home" transform="translate(-867.000000, -999.000000)" stroke="#1CB1F5" stroke-width="3">
            <g id="section.hero-secondary" transform="translate(0.000000, 801.000000)">
                <g id="ul.file-icons" transform="translate(254.000000, 200.000000)">
                    <g id=".icon-php" transform="translate(615.000000, 0.000000)">
                        <polygon id="Shape" points="94.6875 114.520833 0.479166667 114.520833 0.479166667 0.479166667 64.9375 0.479166667 94.6875 30.2291667"></polygon>
                        <polyline id="Shape" points="64.9375 0.479166667 64.9375 30.2291667 94.6875 30.2291667"></polyline>
                        <path d="M39.6666667,89.7291667 L39.6666667,64.9375" id="Shape"></path>
                        <path d="M54.6666667,89.7291667 L54.6666667,64.9375" id="Shape"></path>
                        <path d="M40.1458333,79.4583333 L55.0208333,79.4583333" id="Shape"></path>
                        <path d="M15.3541667,89.7291667 L15.3541667,64.9375 L21.5520833,64.9375 C24.9733333,64.9375 27.75,67.7141667 27.75,71.1354167 C27.75,74.5566667 24.9733333,77.3333333 21.5520833,77.3333333 L15.3541667,77.3333333" id="Shape"></path>
                        <path d="M64.9375,89.7291667 L64.9375,64.9375 L71.1354167,64.9375 C74.5566667,64.9375 77.3333333,67.7141667 77.3333333,71.1354167 C77.3333333,74.5566667 74.5566667,77.3333333 71.1354167,77.3333333 L64.9375,77.3333333" id="Shape"></path>
                    </g>
                </g>
            </g>
        </g>
    </g>
</svg>