<svg xmlns="http://www.w3.org/2000/svg" x="0px" y="0px"
width="100" height="100"
viewBox="0 0 172 172"
style=" fill:#000000;"><g fill="none" fill-rule="nonzero" stroke="none" stroke-width="1" stroke-linecap="butt" stroke-linejoin="miter" stroke-miterlimit="10" stroke-dasharray="" stroke-dashoffset="0" font-family="none" font-weight="none" font-size="none" text-anchor="none" style="mix-blend-mode: normal"><path d="M0,172v-172h172v172z" fill="none"></path><g fill="#4caf50"><path d="M86,6.19544c-33.37832,0 -60.55088,27.1588 -60.55088,60.53712c0,38.62088 36.84584,76.08248 56.62584,96.21336l3.92504,3.98696l3.91128,-3.9904c19.79376,-20.11712 56.6396,-57.56496 56.6396,-96.21336c0,-33.37832 -27.17256,-60.53368 -60.55088,-60.53368zM112.68064,93.92232h-7.02104v-39.72168h-0.4816l-16.1852,38.79976h-5.94776l-16.1852,-38.79976h-0.4816v39.72168h-7.02104v-53.32h8.79608l17.55432,42.45648h0.62952l17.55432,-42.45648h8.79608v53.32z"></path></g></g></svg>