<svg xmlns="http://www.w3.org/2000/svg" x="0px" y="0px"
width="100" height="100"
viewBox="0 0 172 172"
style=" fill:#000000;"><g fill="none" fill-rule="nonzero" stroke="none" stroke-width="1" stroke-linecap="butt" stroke-linejoin="miter" stroke-miterlimit="10" stroke-dasharray="" stroke-dashoffset="0" font-family="none" font-weight="none" font-size="none" text-anchor="none" style="mix-blend-mode: normal"><path d="M0,172v-172h172v172z" fill="none"></path><g fill="#53c1de"><path d="M86,6.19469c-33.37832,0 -60.54937,27.15762 -60.54937,60.53594c0,38.62088 36.84563,76.08162 56.62563,96.2125l3.92375,3.99094l3.91031,-3.99094c19.79376,-20.11712 56.63906,-57.5641 56.63906,-96.2125c0,-33.37832 -27.17105,-60.53594 -60.54937,-60.53594zM67.71156,40.93063h20.76765c10.53328,0 17.36797,6.31707 17.36797,16.14515c0,7.27904 -3.95428,13.08404 -10.535,15.265l12.15422,21.90985h-8.75453l-11.11953,-20.72735h-12.34906v20.72735h-7.53172zM75.24328,47.46797v19.58516h12.45656c6.61512,0.00344 10.38719,-3.50434 10.38719,-9.78922c0,-6.13352 -4.02738,-9.79594 -10.6425,-9.79594z"></path></g></g></svg>