<?xml version="1.0" encoding="UTF-8"?>
<!DOCTYPE svg PUBLIC "-//W3C//DTD SVG 1.1//EN"
  "http://www.w3.org/Graphics/SVG/1.1/DTD/svg11.dtd">
<!-- Created with Inkpad (http://www.taptrix.com/) --><svg xmlns:inkpad="http://taptrix.com/inkpad/svg_extensions" height="409pt" xmlns:xlink="http://www.w3.org/1999/xlink" xmlns="http://www.w3.org/2000/svg" width="409pt" version="1.1" viewBox="0,0,409,409">
<defs/>
<g id="Untitled" inkpad:layerName="Untitled">
<g opacity="1">
<path d="M113.754+118.604C108.909+113.759+101.053+113.757+96.2095+118.602L17.5472+197.254C15.2198+199.582+13.913+202.738+13.913+206.028C13.913+209.318+15.2198+212.473+17.5456+214.8L95.8671+293.125C98.2905+295.548+101.465+296.759+104.641+296.759C107.815+296.759+110.991+295.548+113.413+293.127C118.26+288.282+118.26+280.426+113.415+275.583L43.865+206.028L113.754+136.148C118.599+131.303+118.599+123.447+113.754+118.604Z" opacity="1" fill="#00e5ff"/>
<path d="M392.053+196.929L313.719+118.6C308.876+113.757+301.02+113.755+296.175+118.602C291.33+123.447+291.33+131.303+296.177+136.148L365.736+205.702L295.85+275.579C291.003+280.424+291.003+288.28+295.848+293.123C298.271+295.547+301.446+296.758+304.622+296.758C307.796+296.758+310.972+295.547+313.394+293.125L392.056+214.474C394.383+212.149+395.69+208.992+395.69+205.701C395.687+202.412+394.38+199.256+392.053+196.929Z" opacity="1" fill="#00e5ff"/>
<path d="M271.78+115.317C266.298+111.208+258.518+112.329+254.414+117.815L135.324+276.919C131.218+282.404+132.335+290.181+137.822+294.285C140.052+295.955+142.66+296.759+145.246+296.759C149.021+296.759+152.751+295.042+155.187+291.787L274.276+132.682C278.383+127.197+277.265+119.422+271.78+115.317Z" opacity="1" fill="#00e5ff"/>
</g>
</g>
</svg>
