<svg xmlns="http://www.w3.org/2000/svg" x="0px" y="0px"
width="64" height="64"
viewBox="0 0 172 172"
style=" fill:#000000;"><g fill="none" fill-rule="nonzero" stroke="none" stroke-width="1" stroke-linecap="butt" stroke-linejoin="miter" stroke-miterlimit="10" stroke-dasharray="" stroke-dashoffset="0" font-family="none" font-weight="none" font-size="none" text-anchor="none" style="mix-blend-mode: normal"><path d="M0,172v-172h172v172z" fill="none"></path><g id="Layer_1"><path d="M86,12.09375c-40.81729,0 -73.90625,33.08896 -73.90625,73.90625c0,40.81729 33.08896,73.90625 73.90625,73.90625c40.81729,0 73.90625,-33.08896 73.90625,-73.90625c0,-40.81729 -33.08896,-73.90625 -73.90625,-73.90625z" fill="#ffffff"></path><path d="M86,32.25c-29.68531,0 -53.75,24.06469 -53.75,53.75c0,29.68531 24.06469,53.75 53.75,53.75c29.68531,0 53.75,-24.06469 53.75,-53.75c0,-29.68531 -24.06469,-53.75 -53.75,-53.75z" fill="#00d6c6"></path><path d="M108.97813,104.94688c-1.075,0 -2.15,-0.40312 -2.95625,-1.34375c-1.47812,-1.6125 -1.34375,-4.16562 0.26875,-5.64375l13.03438,-11.95938l-13.03438,-11.95937c-1.6125,-1.47813 -1.74687,-4.03125 -0.26875,-5.64375c1.47812,-1.6125 4.03125,-1.74688 5.64375,-0.26875l16.25937,14.91563c0.80625,0.80625 1.34375,1.88125 1.34375,2.95625c0,1.075 -0.5375,2.15 -1.34375,2.95625l-16.125,14.91563c-0.80625,0.67188 -1.74687,1.075 -2.82188,1.075zM63.02188,104.94688c-0.94063,0 -2.01562,-0.40312 -2.6875,-1.075l-16.25938,-14.91563c-0.80625,-0.80625 -1.34375,-1.88125 -1.34375,-2.95625c0,-1.075 0.5375,-2.15 1.34375,-2.95625l16.25938,-14.91563c1.6125,-1.47813 4.16562,-1.34375 5.64375,0.26875c1.47812,1.6125 1.34375,4.16563 -0.26875,5.64375l-13.03437,11.95937l13.03438,11.95938c1.6125,1.47812 1.74687,4.03125 0.26875,5.64375c-0.80625,0.80625 -1.88125,1.34375 -2.95625,1.34375zM75.25,122.28125c-0.40313,0 -0.80625,0 -1.20937,-0.26875c-2.15,-0.67187 -3.225,-2.95625 -2.55313,-5.10625l21.5,-64.5c0.67188,-2.15 2.95625,-3.225 5.10625,-2.55313c2.15,0.67188 3.225,2.95625 2.55313,5.10625l-21.5,64.5c-0.67188,1.74687 -2.15,2.82187 -3.89688,2.82187z" fill="#ffffff"></path><path d="M86,163.9375c-43,0 -77.9375,-34.9375 -77.9375,-77.9375c0,-43 34.9375,-77.9375 77.9375,-77.9375c43,0 77.9375,34.9375 77.9375,77.9375c0,43 -34.9375,77.9375 -77.9375,77.9375zM86,16.125c-38.56563,0 -69.875,31.30937 -69.875,69.875c0,38.56562 31.30937,69.875 69.875,69.875c38.56562,0 69.875,-31.30938 69.875,-69.875c0,-38.56563 -31.30938,-69.875 -69.875,-69.875z" fill="#00d6c6"></path></g></g></svg>