<svg xmlns="http://www.w3.org/2000/svg" x="0px" y="0px"
width="96" height="96"
viewBox="0 0 172 172"
style=" fill:#000000;"><defs><linearGradient x1="85.7044" y1="43.59665" x2="85.7044" y2="128.40335" gradientUnits="userSpaceOnUse" id="color-1"><stop offset="0" stop-color="#0002ff"></stop><stop offset="1" stop-color="#5912ab"></stop></linearGradient><linearGradient x1="86.14863" y1="47.63506" x2="86.14863" y2="124.36494" gradientUnits="userSpaceOnUse" id="color-2"><stop offset="0" stop-color="#7071ff"></stop><stop offset="1" stop-color="#9042eb"></stop></linearGradient></defs><g fill="none" fill-rule="nonzero" stroke="none" stroke-width="1" stroke-linecap="butt" stroke-linejoin="miter" stroke-miterlimit="10" stroke-dasharray="" stroke-dashoffset="0" font-family="none" font-weight="none" font-size="none" text-anchor="none" style="mix-blend-mode: normal"><path d="M0,172v-172h172v172z" fill="none"></path><path d="M0,86c0,-47.49649 38.50351,-86 86,-86c47.49649,0 86,38.50351 86,86c0,47.49649 -38.50351,86 -86,86c-47.49649,0 -86,-38.50351 -86,-86zM86,168.56c45.59663,0 82.56,-36.96337 82.56,-82.56c0,-45.59663 -36.96337,-82.56 -82.56,-82.56c-45.59663,0 -82.56,36.96337 -82.56,82.56c0,45.59663 36.96337,82.56 82.56,82.56z" fill="#0002ff"></path><path d="M86,172c-47.49649,0 -86,-38.50351 -86,-86v0c0,-47.49649 38.50351,-86 86,-86v0c47.49649,0 86,38.50351 86,86v0c0,47.49649 -38.50351,86 -86,86z" fill="none"></path><path d="M86,168.56c-45.59663,0 -82.56,-36.96337 -82.56,-82.56v0c0,-45.59663 36.96337,-82.56 82.56,-82.56v0c45.59663,0 82.56,36.96337 82.56,82.56v0c0,45.59663 -36.96337,82.56 -82.56,82.56z" fill="none"></path><path d="M86,172c-47.49649,0 -86,-38.50351 -86,-86v0c0,-47.49649 38.50351,-86 86,-86v0c47.49649,0 86,38.50351 86,86v0c0,47.49649 -38.50351,86 -86,86z" fill="none"></path><path d="M86,168.56c-45.59663,0 -82.56,-36.96337 -82.56,-82.56v0c0,-45.59663 36.96337,-82.56 82.56,-82.56v0c45.59663,0 82.56,36.96337 82.56,82.56v0c0,45.59663 -36.96337,82.56 -82.56,82.56z" fill="none"></path><g><path d="M133.31731,51.79463c-4.26053,-5.20955 -10.56045,-8.19798 -17.28441,-8.19798h-81.47501l11.30756,20.51515l-12.88254,64.29156h21.80744l12.53928,-62.59542h13.56907l-12.53928,62.59542h21.80744l12.53928,-62.59542h13.56907l-12.55947,62.59542h21.78725l12.4787,-57.91086c1.33268,-6.64319 -0.36346,-13.46811 -4.66437,-18.69786zM134.02403,69.66461l-11.77198,54.70032h-13.60946l12.55947,-62.59542h-21.80744l-12.53928,62.59542h-13.56907l12.53928,-62.59542h-21.80744l-12.53928,62.59542h-13.56907l12.2162,-60.89929l-8.74317,-15.83058h74.65009c5.51244,0 10.66141,2.44324 14.15464,6.70377c3.53361,4.30091 4.92687,9.91431 3.83649,15.32578z" fill="url(#color-1)"></path><path d="M134.02403,69.66461l-11.77198,54.70032h-13.60946l12.55947,-62.59542h-21.80744l-12.53928,62.59542h-13.56907l12.53928,-62.59542h-21.80744l-12.53928,62.59542h-13.56907l12.2162,-60.89929l-8.74317,-15.83058h74.65009c5.51244,0 10.66141,2.44324 14.15464,6.70377c3.53361,4.30091 4.92687,9.91431 3.83649,15.32578z" fill="url(#color-2)"></path></g><path d="M86,172c-47.49649,0 -86,-38.50351 -86,-86v0c0,-47.49649 38.50351,-86 86,-86v0c47.49649,0 86,38.50351 86,86v0c0,47.49649 -38.50351,86 -86,86z" fill="none"></path><path d="M86,168.56c-45.59663,0 -82.56,-36.96337 -82.56,-82.56v0c0,-45.59663 36.96337,-82.56 82.56,-82.56v0c45.59663,0 82.56,36.96337 82.56,82.56v0c0,45.59663 -36.96337,82.56 -82.56,82.56z" fill="none"></path><path d="M86,172c-47.49649,0 -86,-38.50351 -86,-86v0c0,-47.49649 38.50351,-86 86,-86v0c47.49649,0 86,38.50351 86,86v0c0,47.49649 -38.50351,86 -86,86z" fill="none"></path><path d="M86,168.56c-45.59663,0 -82.56,-36.96337 -82.56,-82.56v0c0,-45.59663 36.96337,-82.56 82.56,-82.56v0c45.59663,0 82.56,36.96337 82.56,82.56v0c0,45.59663 -36.96337,82.56 -82.56,82.56z" fill="none"></path><path d="M86,172c-47.49649,0 -86,-38.50351 -86,-86v0c0,-47.49649 38.50351,-86 86,-86v0c47.49649,0 86,38.50351 86,86v0c0,47.49649 -38.50351,86 -86,86z" fill="none"></path><path d="M86,168.56c-45.59663,0 -82.56,-36.96337 -82.56,-82.56v0c0,-45.59663 36.96337,-82.56 82.56,-82.56v0c45.59663,0 82.56,36.96337 82.56,82.56v0c0,45.59663 -36.96337,82.56 -82.56,82.56z" fill="none"></path></g></svg>