<svg xmlns="http://www.w3.org/2000/svg" x="0px" y="0px"
width="96" height="96"
viewBox="0 0 172 172"
style=" fill:#000000;"><defs><linearGradient x1="86.00027" y1="31.24232" x2="86.00027" y2="144.41402" gradientUnits="userSpaceOnUse" id="color-1"><stop offset="0" stop-color="#0018ff"></stop><stop offset="1" stop-color="#0d00ff"></stop></linearGradient><linearGradient x1="86.00027" y1="31.24232" x2="86.00027" y2="144.41402" gradientUnits="userSpaceOnUse" id="color-2"><stop offset="0" stop-color="#0018ff"></stop><stop offset="1" stop-color="#0d00ff"></stop></linearGradient><linearGradient x1="86.00027" y1="38.74367" x2="86.00027" y2="129.86712" gradientUnits="userSpaceOnUse" id="color-3"><stop offset="0" stop-color="#707dff"></stop><stop offset="1" stop-color="#7770ff"></stop></linearGradient></defs><g fill="none" fill-rule="nonzero" stroke="none" stroke-width="1" stroke-linecap="butt" stroke-linejoin="miter" stroke-miterlimit="10" stroke-dasharray="" stroke-dashoffset="0" font-family="none" font-weight="none" font-size="none" text-anchor="none" style="mix-blend-mode: normal"><path d="M0,172v-172h172v172z" fill="none"></path><path d="M0,86c0,-47.49649 38.50351,-86 86,-86c47.49649,0 86,38.50351 86,86c0,47.49649 -38.50351,86 -86,86c-47.49649,0 -86,-38.50351 -86,-86zM86,168.56c45.59663,0 82.56,-36.96337 82.56,-82.56c0,-45.59663 -36.96337,-82.56 -82.56,-82.56c-45.59663,0 -82.56,36.96337 -82.56,82.56c0,45.59663 36.96337,82.56 82.56,82.56z" fill="#0018ff"></path><path d="M86,172c-47.49649,0 -86,-38.50351 -86,-86v0c0,-47.49649 38.50351,-86 86,-86v0c47.49649,0 86,38.50351 86,86v0c0,47.49649 -38.50351,86 -86,86z" fill="none"></path><path d="M86,168.56c-45.59663,0 -82.56,-36.96337 -82.56,-82.56v0c0,-45.59663 36.96337,-82.56 82.56,-82.56v0c45.59663,0 82.56,36.96337 82.56,82.56v0c0,45.59663 -36.96337,82.56 -82.56,82.56z" fill="none"></path><path d="M86,172c-47.49649,0 -86,-38.50351 -86,-86v0c0,-47.49649 38.50351,-86 86,-86v0c47.49649,0 86,38.50351 86,86v0c0,47.49649 -38.50351,86 -86,86z" fill="none"></path><path d="M86,168.56c-45.59663,0 -82.56,-36.96337 -82.56,-82.56v0c0,-45.59663 36.96337,-82.56 82.56,-82.56v0c45.59663,0 82.56,36.96337 82.56,82.56v0c0,45.59663 -36.96337,82.56 -82.56,82.56z" fill="none"></path><path d="M86,172c-47.49649,0 -86,-38.50351 -86,-86v0c0,-47.49649 38.50351,-86 86,-86v0c47.49649,0 86,38.50351 86,86v0c0,47.49649 -38.50351,86 -86,86z" fill="none"></path><path d="M86,168.56c-45.59663,0 -82.56,-36.96337 -82.56,-82.56v0c0,-45.59663 36.96337,-82.56 82.56,-82.56v0c45.59663,0 82.56,36.96337 82.56,82.56v0c0,45.59663 -36.96337,82.56 -82.56,82.56z" fill="none"></path><path d="M86,172c-47.49649,0 -86,-38.50351 -86,-86v0c0,-47.49649 38.50351,-86 86,-86v0c47.49649,0 86,38.50351 86,86v0c0,47.49649 -38.50351,86 -86,86z" fill="none"></path><path d="M86,168.56c-45.59663,0 -82.56,-36.96337 -82.56,-82.56v0c0,-45.59663 36.96337,-82.56 82.56,-82.56v0c45.59663,0 82.56,36.96337 82.56,82.56v0c0,45.59663 -36.96337,82.56 -82.56,82.56z" fill="none"></path><path d="M86,172c-47.49649,0 -86,-38.50351 -86,-86v0c0,-47.49649 38.50351,-86 86,-86v0c47.49649,0 86,38.50351 86,86v0c0,47.49649 -38.50351,86 -86,86z" fill="none"></path><path d="M86,168.56c-45.59663,0 -82.56,-36.96337 -82.56,-82.56v0c0,-45.59663 36.96337,-82.56 82.56,-82.56v0c45.59663,0 82.56,36.96337 82.56,82.56v0c0,45.59663 -36.96337,82.56 -82.56,82.56z" fill="none"></path><g><path d="M108.67847,74.59707l-11.8594,-7.14015c-1.32225,-0.7998 -2.9842,-0.82775 -4.33225,-0.0645c-1.34805,0.75895 -2.18655,2.19515 -2.18655,3.7453v42.74845l-4.3,2.45745l-4.3,-2.45745v-42.74845c0,-1.55015 -0.8385,-2.98635 -2.1887,-3.7453c-1.34805,-0.7611 -3.00785,-0.7396 -4.3301,0.06235l-11.8637,7.1423c-1.9221,1.161 -3.1175,3.27875 -3.1175,5.5255v42.49905c0,2.30695 1.24485,4.45265 3.2508,5.5986l19.35,11.05745c0.98685,0.56545 2.0941,0.8471 3.1992,0.8471c1.1051,0 2.21235,-0.28165 3.1992,-0.8471l19.35215,-11.05745c2.0038,-1.1481 3.24865,-3.2938 3.24865,-5.60075v-42.4969c0,-2.24675 -1.1954,-4.3645 -3.1218,-5.5255zM107.50027,122.61947c0,0.76755 -0.41495,1.4835 -1.0836,1.8662l-19.35,11.05745c-0.66005,0.3741 -1.4749,0.3741 -2.1328,0l-19.35,-11.05745c-0.66865,-0.38055 -1.0836,-1.0965 -1.0836,-1.8662v-42.4969c0,-0.75035 0.3999,-1.45555 1.03845,-1.8404l11.86155,-7.14445v42.74845c0,1.54155 0.83205,2.9713 2.1672,3.7324l4.3,2.45745c1.31365,0.7525 2.95195,0.7525 4.2656,0l4.29785,-2.45745c1.3373,-0.76325 2.16935,-2.193 2.16935,-3.7324v-42.74845l11.8594,7.1423c0.6407,0.387 1.0406,1.0922 1.0406,1.84255z" fill="url(#color-1)"></path><path d="M136.61987,58.40757l-47.30215,-28.38c-2.0425,-1.2255 -4.58595,-1.2255 -6.63705,0l-47.30215,28.38c-1.92855,1.161 -3.12825,3.2809 -3.12825,5.53195v42.33135c0,2.2704 1.21475,4.3989 3.1734,5.5556l8.6,5.07185c1.0234,0.60415 2.15,0.9073 3.2766,0.9073c1.0965,0 2.19515,-0.2881 3.19705,-0.86c2.0382,-1.16315 3.25295,-3.2551 3.25295,-5.60075v-38.8849l32.25,-19.35l32.25,19.35v38.86555c0,2.3478 1.2169,4.4419 3.25725,5.6029c2.04035,1.16315 4.4634,1.14165 6.4844,-0.0559l8.6,-5.0998c1.95005,-1.15455 3.1605,-3.27875 3.1605,-5.547v-42.2862c-0.00215,-2.25105 -1.20185,-4.37095 -3.13255,-5.53195zM135.45027,106.22572c0,0.7568 -0.4042,1.46415 -1.0492,1.84685l-8.60215,5.0998c-0.96965,0.5762 -1.8361,0.20855 -2.1629,0.0215c-0.3268,-0.18705 -1.08575,-0.7396 -1.08575,-1.86835v-38.86555c0,-1.5007 -0.7998,-2.91325 -2.08765,-3.68725l-32.25215,-19.35215c-1.36525,-0.81485 -3.05945,-0.817 -4.4247,0.00215l-32.25,19.35c-1.2857,0.774 -2.0855,2.18655 -2.0855,3.68725v38.8849c0,1.1266 -0.75895,1.6813 -1.0836,1.86835c-0.3268,0.1849 -1.18895,0.559 -2.16075,-0.0172l-8.59785,-5.0697c-0.6536,-0.387 -1.0578,-1.09865 -1.0578,-1.8533v-42.3335c0,-0.7525 0.40205,-1.45985 1.04275,-1.8447l47.29785,-28.38c0.344,-0.20425 0.7267,-0.30745 1.1094,-0.30745c0.3827,0 0.7654,0.1032 1.10725,0.30745l47.29785,28.38c0.645,0.387 1.0449,1.09435 1.0449,1.8447z" fill="url(#color-2)"></path><g fill="url(#color-3)"><path d="M98.90027,118.87632l-12.9,7.37235l-12.9,-7.37235v-37.453h-4.3v39.947l17.2,9.82765l17.2,-9.82765v-39.947h-4.3z"></path><path d="M86.00027,38.06642l-45.15,27.09v42.0669h4.3v-39.6331l40.85,-24.51l40.85,24.51v39.6331h4.3v-42.0669z"></path></g></g><path d="M86,172c-47.49649,0 -86,-38.50351 -86,-86v0c0,-47.49649 38.50351,-86 86,-86v0c47.49649,0 86,38.50351 86,86v0c0,47.49649 -38.50351,86 -86,86z" fill="none"></path><path d="M86,168.56c-45.59663,0 -82.56,-36.96337 -82.56,-82.56v0c0,-45.59663 36.96337,-82.56 82.56,-82.56v0c45.59663,0 82.56,36.96337 82.56,82.56v0c0,45.59663 -36.96337,82.56 -82.56,82.56z" fill="none"></path><path d="M86,172c-47.49649,0 -86,-38.50351 -86,-86v0c0,-47.49649 38.50351,-86 86,-86v0c47.49649,0 86,38.50351 86,86v0c0,47.49649 -38.50351,86 -86,86z" fill="none"></path><path d="M86,168.56c-45.59663,0 -82.56,-36.96337 -82.56,-82.56v0c0,-45.59663 36.96337,-82.56 82.56,-82.56v0c45.59663,0 82.56,36.96337 82.56,82.56v0c0,45.59663 -36.96337,82.56 -82.56,82.56z" fill="none"></path><path d="M86,172c-47.49649,0 -86,-38.50351 -86,-86v0c0,-47.49649 38.50351,-86 86,-86v0c47.49649,0 86,38.50351 86,86v0c0,47.49649 -38.50351,86 -86,86z" fill="none"></path><path d="M86,168.56c-45.59663,0 -82.56,-36.96337 -82.56,-82.56v0c0,-45.59663 36.96337,-82.56 82.56,-82.56v0c45.59663,0 82.56,36.96337 82.56,82.56v0c0,45.59663 -36.96337,82.56 -82.56,82.56z" fill="none"></path><path d="M86,172c-47.49649,0 -86,-38.50351 -86,-86v0c0,-47.49649 38.50351,-86 86,-86v0c47.49649,0 86,38.50351 86,86v0c0,47.49649 -38.50351,86 -86,86z" fill="none"></path><path d="M86,168.56c-45.59663,0 -82.56,-36.96337 -82.56,-82.56v0c0,-45.59663 36.96337,-82.56 82.56,-82.56v0c45.59663,0 82.56,36.96337 82.56,82.56v0c0,45.59663 -36.96337,82.56 -82.56,82.56z" fill="none"></path><path d="M86,172c-47.49649,0 -86,-38.50351 -86,-86v0c0,-47.49649 38.50351,-86 86,-86v0c47.49649,0 86,38.50351 86,86v0c0,47.49649 -38.50351,86 -86,86z" fill="none"></path><path d="M86,168.56c-45.59663,0 -82.56,-36.96337 -82.56,-82.56v0c0,-45.59663 36.96337,-82.56 82.56,-82.56v0c45.59663,0 82.56,36.96337 82.56,82.56v0c0,45.59663 -36.96337,82.56 -82.56,82.56z" fill="none"></path><path d="M86,172c-47.49649,0 -86,-38.50351 -86,-86v0c0,-47.49649 38.50351,-86 86,-86v0c47.49649,0 86,38.50351 86,86v0c0,47.49649 -38.50351,86 -86,86z" fill="none"></path><path d="M86,168.56c-45.59663,0 -82.56,-36.96337 -82.56,-82.56v0c0,-45.59663 36.96337,-82.56 82.56,-82.56v0c45.59663,0 82.56,36.96337 82.56,82.56v0c0,45.59663 -36.96337,82.56 -82.56,82.56z" fill="none"></path><path d="M86,172c-47.49649,0 -86,-38.50351 -86,-86v0c0,-47.49649 38.50351,-86 86,-86v0c47.49649,0 86,38.50351 86,86v0c0,47.49649 -38.50351,86 -86,86z" fill="none"></path><path d="M86,168.56c-45.59663,0 -82.56,-36.96337 -82.56,-82.56v0c0,-45.59663 36.96337,-82.56 82.56,-82.56v0c45.59663,0 82.56,36.96337 82.56,82.56v0c0,45.59663 -36.96337,82.56 -82.56,82.56z" fill="none"></path><path d="M86,172c-47.49649,0 -86,-38.50351 -86,-86v0c0,-47.49649 38.50351,-86 86,-86v0c47.49649,0 86,38.50351 86,86v0c0,47.49649 -38.50351,86 -86,86z" fill="none"></path><path d="M86,168.56c-45.59663,0 -82.56,-36.96337 -82.56,-82.56v0c0,-45.59663 36.96337,-82.56 82.56,-82.56v0c45.59663,0 82.56,36.96337 82.56,82.56v0c0,45.59663 -36.96337,82.56 -82.56,82.56z" fill="none"></path><path d="M86,172c-47.49649,0 -86,-38.50351 -86,-86v0c0,-47.49649 38.50351,-86 86,-86v0c47.49649,0 86,38.50351 86,86v0c0,47.49649 -38.50351,86 -86,86z" fill="none"></path><path d="M86,168.56c-45.59663,0 -82.56,-36.96337 -82.56,-82.56v0c0,-45.59663 36.96337,-82.56 82.56,-82.56v0c45.59663,0 82.56,36.96337 82.56,82.56v0c0,45.59663 -36.96337,82.56 -82.56,82.56z" fill="none"></path></g></svg>