<svg xmlns="http://www.w3.org/2000/svg" x="0px" y="0px"
width="100" height="100"
viewBox="0 0 172 172"
style=" fill:#000000;"><g fill="none" fill-rule="nonzero" stroke="none" stroke-width="1" stroke-linecap="butt" stroke-linejoin="miter" stroke-miterlimit="10" stroke-dasharray="" stroke-dashoffset="0" font-family="none" font-weight="none" font-size="none" text-anchor="none" style="mix-blend-mode: normal"><path d="M0,172v-172h172v172z" fill="none"></path><path d="M86,172c-47.49649,0 -86,-38.50351 -86,-86v0c0,-47.49649 38.50351,-86 86,-86v0c47.49649,0 86,38.50351 86,86v0c0,47.49649 -38.50351,86 -86,86z" fill="none"></path><path d="M86,168.56c-45.59663,0 -82.56,-36.96337 -82.56,-82.56v0c0,-45.59663 36.96337,-82.56 82.56,-82.56v0c45.59663,0 82.56,36.96337 82.56,82.56v0c0,45.59663 -36.96337,82.56 -82.56,82.56z" fill="none"></path><path d="M86,172c-47.49649,0 -86,-38.50351 -86,-86v0c0,-47.49649 38.50351,-86 86,-86v0c47.49649,0 86,38.50351 86,86v0c0,47.49649 -38.50351,86 -86,86z" fill="none"></path><path d="M86,168.56c-45.59663,0 -82.56,-36.96337 -82.56,-82.56v0c0,-45.59663 36.96337,-82.56 82.56,-82.56v0c45.59663,0 82.56,36.96337 82.56,82.56v0c0,45.59663 -36.96337,82.56 -82.56,82.56z" fill="none"></path><path d="M86,172c-47.49649,0 -86,-38.50351 -86,-86v0c0,-47.49649 38.50351,-86 86,-86v0c47.49649,0 86,38.50351 86,86v0c0,47.49649 -38.50351,86 -86,86z" fill="none"></path><path d="M86,168.56c-45.59663,0 -82.56,-36.96337 -82.56,-82.56v0c0,-45.59663 36.96337,-82.56 82.56,-82.56v0c45.59663,0 82.56,36.96337 82.56,82.56v0c0,45.59663 -36.96337,82.56 -82.56,82.56z" fill="none"></path><path d="M86,172c-47.49649,0 -86,-38.50351 -86,-86v0c0,-47.49649 38.50351,-86 86,-86v0c47.49649,0 86,38.50351 86,86v0c0,47.49649 -38.50351,86 -86,86z" fill="none"></path><path d="M86,168.56c-45.59663,0 -82.56,-36.96337 -82.56,-82.56v0c0,-45.59663 36.96337,-82.56 82.56,-82.56v0c45.59663,0 82.56,36.96337 82.56,82.56v0c0,45.59663 -36.96337,82.56 -82.56,82.56z" fill="none"></path><path d="M86,172c-47.49649,0 -86,-38.50351 -86,-86v0c0,-47.49649 38.50351,-86 86,-86v0c47.49649,0 86,38.50351 86,86v0c0,47.49649 -38.50351,86 -86,86z" fill="none"></path><path d="M86,168.56c-45.59663,0 -82.56,-36.96337 -82.56,-82.56v0c0,-45.59663 36.96337,-82.56 82.56,-82.56v0c45.59663,0 82.56,36.96337 82.56,82.56v0c0,45.59663 -36.96337,82.56 -82.56,82.56z" fill="none"></path><g><circle cx="77" cy="13" transform="scale(1.72,1.72)" r="1" fill="#2ecc71"></circle><circle cx="50" cy="50" transform="scale(1.72,1.72)" r="37" fill="#3498db"></circle><circle cx="83" cy="15" transform="scale(1.72,1.72)" r="4" fill="#2ecc71"></circle><circle cx="87" cy="24" transform="scale(1.72,1.72)" r="2" fill="#f1c40f"></circle><circle cx="81" cy="76" transform="scale(1.72,1.72)" r="2" fill="#2ecc71"></circle><circle cx="15" cy="63" transform="scale(1.72,1.72)" r="4" fill="#2ecc71"></circle><circle cx="25" cy="87" transform="scale(1.72,1.72)" r="2" fill="#f1c40f"></circle><circle cx="22.5" cy="67.5" transform="scale(1.72,1.72)" r="2.5" fill="#ffffff"></circle><circle cx="79.5" cy="33.5" transform="scale(1.72,1.72)" r="1.5" fill="#ffffff"></circle><path d="M114.724,72.35696l-29.584,-16.98672l-29.584,16.98672v42.96216l-9.632,-5.49712v-44.76472l39.216,-22.39096l39.216,22.39096v44.76472l-9.632,5.49712z" fill="#1abc9c"></path><path d="M85.14,44.05264l38.012,21.70468v43.36292l-7.224,4.12456v-40.18952v-1.39492l-1.20916,-0.69316l-28.38,-16.29528l-1.19884,-0.688l-1.19884,0.688l-28.38,16.29528l-1.20916,0.69316v1.39492v40.19124l-7.224,-4.12456v-43.36464l38.012,-21.70468M85.14,41.28l-40.42,23.07896v46.15964l12.04,6.87484v-44.33816l28.38,-16.29528l28.38,16.29528v44.33988l12.04,-6.87484v-46.16136l-40.42,-23.07896z" fill="#000000"></path><path d="M66.564,122.7908v-43.42484l9.632,-4.69904v42.93636l8.944,4.12284l8.944,-4.12284v-42.93636l9.632,4.69904v43.42484l-18.576,9.75068z" fill="#1abc9c"></path><path d="M74.99372,76.59332v40.23768v1.54112l1.40008,0.645l7.74,3.569l1.00792,0.4644l1.00792,-0.4644l7.74,-3.569l1.40008,-0.645v-1.54112v-40.23596l7.224,3.52256v41.94392l-17.372,9.11944l-17.372,-9.11944v-41.94392l7.224,-3.52428M77.40172,72.74052l-12.04172,5.8738v44.90404l19.78,10.38364l19.78,-10.38364v-44.90404l-12.04,-5.8738v44.09048l-7.74,3.569l-7.74,-3.569v-44.09048z" fill="#000000"></path><path d="M119.54,106.21c-0.23736,0 -0.43,-0.19264 -0.43,-0.43v-7.20336c0,-0.23736 0.19264,-0.43 0.43,-0.43c0.23736,0 0.43,0.19264 0.43,0.43v7.20336c0,0.23736 -0.19264,0.43 -0.43,0.43z" fill="#000000"></path><path d="M119.54,93.63336c-0.23736,0 -0.43,-0.19264 -0.43,-0.43v-17.52336c0,-0.23736 0.19264,-0.43 0.43,-0.43c0.23736,0 0.43,0.19264 0.43,0.43v17.52336c0,0.23564 -0.19264,0.43 -0.43,0.43z" fill="#000000"></path><path d="M119.54,72.77836c-0.23736,0 -0.43,-0.19264 -0.43,-0.43v-4.1538l-5.33888,-2.93604c-0.20812,-0.11352 -0.2838,-0.37496 -0.17028,-0.58308c0.11524,-0.20812 0.37496,-0.28724 0.5848,-0.17028l5.78436,3.182v4.6612c0,0.23564 -0.19264,0.43 -0.43,0.43z" fill="#000000"></path><g fill="#000000"><path d="M110.09892,63.1756c-0.07052,0 -0.14104,-0.0172 -0.20812,-0.05332l-24.7508,-13.61208l-9.5718,5.26492c-0.20812,0.11524 -0.46784,0.03784 -0.5848,-0.17028c-0.11352,-0.20812 -0.03784,-0.46784 0.17028,-0.58308l9.98804,-5.49196l25.16532,13.84084c0.20812,0.11352 0.2838,0.37496 0.17028,0.58308c-0.08084,0.14276 -0.22704,0.22188 -0.3784,0.22188z"></path></g><g fill="#000000"><path d="M50.74,68.37c-0.15136,0 -0.29756,-0.08084 -0.37668,-0.2236c-0.11352,-0.20812 -0.03784,-0.46784 0.17028,-0.58308l19.7714,-10.87384c0.20468,-0.11352 0.46784,-0.03956 0.5848,0.17028c0.11352,0.20812 0.03784,0.46784 -0.17028,0.58308l-19.7714,10.87384c-0.06708,0.03612 -0.1376,0.05332 -0.20812,0.05332z"></path></g><g fill="#000000"><path d="M50.74,94.6c-0.23736,0 -0.43,-0.19264 -0.43,-0.43v-20.855c0,-0.23736 0.19264,-0.43 0.43,-0.43c0.23736,0 0.43,0.19264 0.43,0.43v20.855c0,0.23736 -0.19264,0.43 -0.43,0.43z"></path></g><g fill="#000000"><path d="M50.74,106.21c-0.23736,0 -0.43,-0.19264 -0.43,-0.43v-7.095c0,-0.23736 0.19264,-0.43 0.43,-0.43c0.23736,0 0.43,0.19264 0.43,0.43v7.095c0,0.23736 -0.19264,0.43 -0.43,0.43z"></path></g><g fill="#000000"><path d="M98.9,90.945c-0.23736,0 -0.43,-0.19264 -0.43,-0.43v-7.095c0,-0.23736 0.19264,-0.43 0.43,-0.43c0.23736,0 0.43,0.19264 0.43,0.43v7.095c0,0.23736 -0.19264,0.43 -0.43,0.43z"></path></g><g fill="#000000"><path d="M98.9,113.95c-0.23736,0 -0.43,-0.19264 -0.43,-0.43v-18.59664c0,-0.23736 0.19264,-0.43 0.43,-0.43c0.23736,0 0.43,0.19264 0.43,0.43v18.59664c0,0.23736 -0.19264,0.43 -0.43,0.43z"></path></g><g fill="#000000"><path d="M90.171,124.33364c-0.15652,0 -0.3096,-0.08772 -0.38528,-0.23908c-0.10664,-0.21156 -0.02064,-0.46956 0.19264,-0.5762l8.729,-4.36364c0.21328,-0.10492 0.46956,-0.02236 0.5762,0.19264c0.10664,0.21156 0.02064,0.46956 -0.19264,0.5762l-8.729,4.36364c-0.06192,0.03096 -0.12728,0.04644 -0.19092,0.04644z"></path></g><g fill="#000000"><path d="M85.14,126.85c-0.06536,0 -0.13072,-0.01548 -0.19264,-0.04472l-8.041,-4.02136c-0.21328,-0.10664 -0.29756,-0.36464 -0.19264,-0.57792c0.10836,-0.21156 0.36464,-0.29068 0.5762,-0.19092l8.041,4.02136c0.21328,0.10664 0.29756,0.36464 0.19264,0.57792c-0.07396,0.14792 -0.22704,0.23564 -0.38356,0.23564z"></path></g><g fill="#000000"><path d="M74.648,121.604c-0.06536,0 -0.13072,-0.01548 -0.19264,-0.04472l-3.50536,-1.7544v-7.14488c0,-0.23736 0.19264,-0.43 0.43,-0.43c0.23736,0 0.43,0.19264 0.43,0.43v6.61512l3.03064,1.51532c0.21328,0.10664 0.29756,0.36464 0.19264,0.57792c-0.07568,0.14792 -0.22876,0.23564 -0.38528,0.23564z"></path></g><g fill="#000000"><path d="M71.38,109.32836c-0.23736,0 -0.43,-0.19264 -0.43,-0.43v-25.47836c0,-0.23736 0.19264,-0.43 0.43,-0.43c0.23736,0 0.43,0.19264 0.43,0.43v25.47836c0,0.23564 -0.19264,0.43 -0.43,0.43z"></path></g></g></g></svg>