<svg xmlns="http://www.w3.org/2000/svg" x="0px" y="0px"
width="100" height="100"
viewBox="0 0 172 172"
style=" fill:#000000;"><g fill="none" fill-rule="nonzero" stroke="none" stroke-width="1" stroke-linecap="butt" stroke-linejoin="miter" stroke-miterlimit="10" stroke-dasharray="" stroke-dashoffset="0" font-family="none" font-weight="none" font-size="none" text-anchor="none" style="mix-blend-mode: normal"><path d="M0,172v-172h172v172z" fill="none"></path><path d="M86,172c-47.49649,0 -86,-38.50351 -86,-86v0c0,-47.49649 38.50351,-86 86,-86v0c47.49649,0 86,38.50351 86,86v0c0,47.49649 -38.50351,86 -86,86z" fill="#000000"></path><g fill="#5eff7a"><path d="M42.14,27.09c-2.84832,0 -5.16,2.3091 -5.16,5.16v18.06c0,2.8509 2.31168,5.16 5.16,5.16h20.64c2.84832,0 5.16,-2.3091 5.16,-5.16v-18.06c0,-2.8509 -2.31168,-5.16 -5.16,-5.16zM75.68,27.09c-2.84832,0 -5.16,2.3091 -5.16,5.16v18.06c0,2.8509 2.31168,5.16 5.16,5.16h20.64c2.84832,0 5.16,-2.3091 5.16,-5.16v-18.06c0,-2.8509 -2.31168,-5.16 -5.16,-5.16zM109.22,27.09c-2.84832,0 -5.16,2.3091 -5.16,5.16v18.06c0,2.8509 2.31168,5.16 5.16,5.16h20.64c2.84832,0 5.16,-2.3091 5.16,-5.16v-18.06c0,-2.8509 -2.31168,-5.16 -5.16,-5.16zM86.02015,34.84008c3.46752,0 4.22274,2.53473 4.22274,3.39129c0,1.77504 -1.22522,2.45177 -1.83926,2.65559v0.03527c0.75852,0.1677 2.36332,0.84951 2.36332,3.08895c0,1.7802 -1.32092,3.95566 -4.73168,3.95566c-0.75852,0 -4.80223,-0.23837 -4.80223,-3.93551c0,-2.27556 1.62238,-2.9285 2.38348,-3.1091v-0.03527c-0.61404,-0.1677 -1.85941,-0.76836 -1.85941,-2.60016c0,-1.19196 0.96838,-3.44672 4.26304,-3.44672zM119.31828,34.84008c4.4763,0 4.8627,4.6213 4.8627,6.53566c0.00258,4.4892 -2.37045,6.59109 -4.96851,6.59109c-2.67804,0 -3.9239,-1.81003 -4.09676,-3.48703h2.43387c0.08514,0.42054 0.532,1.57219 1.69816,1.57219c2.193,0 2.39553,-3.4965 2.41875,-3.8448l-0.03527,-0.03527c-0.3483,0.50568 -1.09771,1.4059 -2.85211,1.4059c-2.4639,0 -3.88512,-2.00647 -3.88512,-4.11691c0,-3.67908 2.98723,-4.62082 4.42429,-4.62082zM48.14656,35.09203h8.63191v2.20207c-0.66306,0.57792 -3.95377,3.90838 -4.14211,10.44094h-2.74125c0.50826,-5.35092 3.03803,-8.80183 4.24289,-10.25953h-5.99145zM86.02015,36.77004c-0.25284,0 -1.935,0.08175 -1.935,1.75359c0,1.40868 1.41642,1.65785 1.935,1.65785c1.60734,0 1.89469,-1.11605 1.89469,-1.65785c0,-1.67184 -1.49737,-1.75359 -1.89469,-1.75359zM119.39387,36.95145c-1.57896,0 -1.935,1.65503 -1.935,2.31293c0,1.23066 0.65016,2.38348 1.935,2.38348c1.11714,0 2.04082,-0.7873 2.04082,-2.3482c0,-1.84728 -1.33906,-2.3482 -2.04082,-2.3482zM86.03527,41.8998c-1.90662,0 -2.23735,1.35539 -2.23735,2.00555c0,1.85244 1.74199,2.14664 2.23735,2.14664c1.77762,0 2.1668,-1.53812 2.1668,-2.13152c0,-0.30186 -0.27566,-2.02066 -2.1668,-2.02066zM42.14,58.05c-2.84832,0 -5.16,2.3091 -5.16,5.16v18.06c0,2.8509 2.31168,5.16 5.16,5.16h20.64c2.84832,0 5.16,-2.3091 5.16,-5.16v-18.06c0,-2.8509 -2.31168,-5.16 -5.16,-5.16zM75.68,58.05c-2.84832,0 -5.16,2.3091 -5.16,5.16v18.06c0,2.8509 2.31168,5.16 5.16,5.16h20.64c2.84832,0 5.16,-2.3091 5.16,-5.16v-18.06c0,-2.8509 -2.31168,-5.16 -5.16,-5.16zM109.22,58.05c-2.84832,0 -5.16,2.3091 -5.16,5.16v18.06c0,2.8509 2.31168,5.16 5.16,5.16h20.64c2.84832,0 5.16,-2.3091 5.16,-5.16v-18.06c0,-2.8509 -2.31168,-5.16 -5.16,-5.16zM119.86754,65.10973c3.27918,0 3.9884,2.53207 4.09676,3.50215h-2.43891c-0.08256,-0.42054 -0.4804,-1.57219 -1.69816,-1.57219c-2.24718,0 -2.40585,3.50155 -2.41875,3.84984l0.03527,0.03527c0.35088,-0.50568 1.11565,-1.41094 2.85715,-1.41094c1.73892,0 3.88008,1.29181 3.88008,4.11691c0,2.32458 -1.58114,4.60571 -4.4243,4.60571c-3.73068,0 -4.85765,-3.17441 -4.85765,-6.51551c0,-4.0764 2.10213,-6.61125 4.96851,-6.61125zM53.2209,65.36168h2.29277v7.60395h1.68305v2.11137h-0.00504h-1.67801v2.9277h-2.43891v-2.9277h-5.3414v-2.3482zM82.95137,65.36168h7.05973v2.11137h-5.22047l-0.49887,2.87226l0.03527,0.03527c0.35088,-0.3483 1.1687,-0.97254 2.47418,-0.97254c3.55266,0 3.90024,3.50368 3.90024,4.29832c-0.00258,2.95668 -2.50857,4.53012 -4.69641,4.53012c-3.92418,0 -4.77638,-2.85316 -4.6964,-3.99094h2.56488c0.05934,0.57792 0.48166,1.89973 2.0761,1.89973c1.8447,0 2.18695,-1.92549 2.18695,-2.43891c0,-1.36224 -1.00164,-2.06569 -1.2648,-2.18695c-0.26574,-0.11868 -1.91815,-0.62625 -2.85211,0.83145h-2.31293zM53.01934,68.5766l-3.27035,4.38902h3.32074v-4.38902zM119.68613,71.44887c-1.97112,0 -2.04082,2.03603 -2.04082,2.34821c0,0.73788 0.46186,2.3482 2.04082,2.3482c0.50052,0 1.92996,-0.35471 1.92996,-2.31293c0,-0.30186 -0.13686,-2.38348 -1.92996,-2.38348zM42.14,89.01c-2.84832,0 -5.16,2.3091 -5.16,5.16v18.06c0,2.8509 2.31168,5.16 5.16,5.16h20.64c2.84832,0 5.16,-2.3091 5.16,-5.16v-18.06c0,-2.8509 -2.31168,-5.16 -5.16,-5.16zM75.68,89.01c-2.84832,0 -5.16,2.3091 -5.16,5.16v18.06c0,2.8509 2.31168,5.16 5.16,5.16h20.64c2.84832,0 5.16,-2.3091 5.16,-5.16v-18.06c0,-2.8509 -2.31168,-5.16 -5.16,-5.16zM109.22,89.01c-2.84832,0 -5.16,2.3091 -5.16,5.16v18.06c0,2.8509 2.31168,5.16 5.16,5.16h20.64c2.84832,0 5.16,-2.3091 5.16,-5.16v-18.06c0,-2.8509 -2.31168,-5.16 -5.16,-5.16zM86.23684,96.18059c3.65844,0 4.33359,2.9056 4.33359,3.95566c0,3.67392 -3.4522,3.82699 -5.90578,6.73723h5.97633v2.20207h-9.28195c0,-5.26578 6.64149,-5.634 6.64149,-8.73774c0,-1.70796 -1.34011,-1.95012 -1.88965,-1.95012c-1.96854,0 -2.00555,2.57214 -2.00555,2.90754h-2.45906c-0.02322,-0.7224 0.04721,-5.11465 4.59059,-5.11465zM119.52488,96.18059c1.52736,0 4.24289,0.87301 4.24289,3.50719c0,1.73892 -1.17789,2.4123 -1.76871,2.58v0.03527c0.69918,0.15738 2.23734,0.85728 2.23734,2.87226c0,1.68474 -1.20063,4.13707 -4.69137,4.13707c-3.4959,0 -4.76348,-2.38739 -4.6964,-4.58555h2.4389c0.01032,0.33798 0.14803,2.4893 2.21719,2.4893c1.6899,0 2.06098,-1.37135 2.06098,-1.98539c0,-1.76214 -1.60194,-1.83128 -1.94508,-1.84934c-0.34314,-0.01806 -0.66786,-0.03023 -0.98262,-0.03023v-1.80399c0.27606,0.02322 0.57211,0.02322 0.88688,0c0.31218,-0.02322 1.80398,-0.20479 1.80398,-1.57219c0,-0.5418 -0.33645,-1.67801 -1.78383,-1.67801c-1.73892,0 -1.96805,1.60734 -1.95515,2.2575h-2.43387c0,-1.90662 1.25739,-4.3739 4.36887,-4.3739zM53.29145,96.43758h2.04082v12.63797h-2.56488v-8.19856h-3.17965v-1.92996c2.94378,0 3.48957,-1.51615 3.70371,-2.50945zM42.14,119.97c-2.838,0 -5.16,2.322 -5.16,5.16v18.06c0,2.838 2.322,5.16 5.16,5.16h20.64c2.838,0 5.16,-2.322 5.16,-5.16v-18.06c0,-2.838 -2.322,-5.16 -5.16,-5.16zM75.68,119.97c-2.84832,0 -5.16,2.3091 -5.16,5.16v18.06c0,2.8509 2.31168,5.16 5.16,5.16h20.64c2.84832,0 5.16,-2.3091 5.16,-5.16v-18.06c0,-2.8509 -2.31168,-5.16 -5.16,-5.16zM109.22,119.97c-2.838,0 -5.16,2.322 -5.16,5.16v18.06c0,2.838 2.322,5.16 5.16,5.16h20.64c2.838,0 5.16,-2.322 5.16,-5.16v-18.06c0,-2.838 -2.322,-5.16 -5.16,-5.16zM85.97985,127.2464c3.76422,0 4.66113,3.45035 4.66113,6.52055c0,1.2642 -0.00165,6.61125 -4.66113,6.61125c-0.62694,0 -4.62082,0.26703 -4.62082,-6.61125c0,-6.64608 3.99388,-6.52055 4.62082,-6.52055zM51.17,127.76039h2.58v4.0766l3.4316,-2.21719l1.39078,2.1668l-3.73899,2.42379l3.73899,2.42883l-1.41598,2.16679l-3.4064,-2.22223v4.0766h-2.58v-4.0766l-3.4316,2.22223l-1.39078,-2.16679l3.73898,-2.42883l-3.73898,-2.42379l1.41598,-2.1668l3.4064,2.21719zM115.67,127.76039h2.58v2.58h2.58v-2.58h2.58v2.58h2.58v2.58h-2.58v2.58h2.58v2.58h-2.58v2.58h-2.58v-2.58h-2.58v2.58h-2.58v-2.58h-2.58v-2.58h2.58v-2.58h-2.58v-2.58h2.58zM85.97985,129.36281c-0.35088,0 -2.0509,0.10913 -2.0509,3.62309c0,0.30702 -0.01008,0.56433 -0.01008,0.78105c0,0.3612 -0.29456,4.515 2.06098,4.515c2.34006,0 2.09625,-4.1538 2.09625,-4.515c0,-4.63368 -1.74795,-4.40414 -2.09625,-4.40414zM118.25,132.92039v2.58h2.58v-2.58z"></path></g></g></svg>