<svg xmlns="http://www.w3.org/2000/svg" x="0px" y="0px"
width="80" height="80"
viewBox="0 0 172 172"
style=" fill:#000000;"><g transform=""><g fill="none" fill-rule="nonzero" stroke="none" stroke-width="1" stroke-linecap="butt" stroke-linejoin="miter" stroke-miterlimit="10" stroke-dasharray="" stroke-dashoffset="0" font-family="none" font-weight="none" font-size="none" text-anchor="none" style="mix-blend-mode: normal"><path d="M0,172v-172h172v172z" fill="none"></path><path d="M86,172c-47.49649,0 -86,-38.50351 -86,-86v0c0,-47.49649 38.50351,-86 86,-86h0c47.49649,0 86,38.50351 86,86v0c0,47.49649 -38.50351,86 -86,86z" fill="#000000"></path><g><path d="M124.86125,121.475v-93.525h-9.675v93.525h-16.125l20.9625,22.575l20.9625,-22.575z" fill="#2ecc71"></path><path d="M72.93875,73.1h-7.92544l-3.91837,-11.49229h-17.12797l-3.76519,11.49229h-7.89802l16.30882,-45.15h8.1399zM59.18251,55.50118l-6.04526,-18.01001c-0.1806,-0.58695 -0.3741,-1.53188 -0.57727,-2.83477h-0.12094c-0.1806,1.19647 -0.38377,2.1414 -0.6063,2.83477l-5.98399,18.01001zM70.68125,102.17176l-25.36946,35.55079h25.04858v6.32745h-35.79911v-3.4314l25.46783,-35.3589h-23.49896v-6.3597h34.15114z" fill="#3498db"></path></g><path d="" fill="none"></path><path d="M86,172c-47.49649,0 -86,-38.50351 -86,-86v0c0,-47.49649 38.50351,-86 86,-86v0c47.49649,0 86,38.50351 86,86v0c0,47.49649 -38.50351,86 -86,86z" fill="none"></path><path d="M86,168.56c-45.59663,0 -82.56,-36.96337 -82.56,-82.56v0c0,-45.59663 36.96337,-82.56 82.56,-82.56v0c45.59663,0 82.56,36.96337 82.56,82.56v0c0,45.59663 -36.96337,82.56 -82.56,82.56z" fill="none"></path><path d="M86,172c-47.49649,0 -86,-38.50351 -86,-86v0c0,-47.49649 38.50351,-86 86,-86v0c47.49649,0 86,38.50351 86,86v0c0,47.49649 -38.50351,86 -86,86z" fill="none"></path><path d="M86,168.56c-45.59663,0 -82.56,-36.96337 -82.56,-82.56v0c0,-45.59663 36.96337,-82.56 82.56,-82.56v0c45.59663,0 82.56,36.96337 82.56,82.56v0c0,45.59663 -36.96337,82.56 -82.56,82.56z" fill="none"></path><path d="" fill="none"></path><path d="M86,172c-47.49649,0 -86,-38.50351 -86,-86v0c0,-47.49649 38.50351,-86 86,-86v0c47.49649,0 86,38.50351 86,86v0c0,47.49649 -38.50351,86 -86,86z" fill="none"></path><path d="M86,168.56c-45.59663,0 -82.56,-36.96337 -82.56,-82.56v0c0,-45.59663 36.96337,-82.56 82.56,-82.56v0c45.59663,0 82.56,36.96337 82.56,82.56v0c0,45.59663 -36.96337,82.56 -82.56,82.56z" fill="none"></path><path d="M0,172v-172h172v172z" fill="none"></path><path d="M3.44,168.56v-165.12h165.12v165.12z" fill="none"></path><path d="M2.58,172c-1.42489,0 -2.58,-1.15511 -2.58,-2.58v-166.84c0,-1.42489 1.15511,-2.58 2.58,-2.58h166.84c1.42489,0 2.58,1.15511 2.58,2.58v166.84c0,1.42489 -1.15511,2.58 -2.58,2.58z" fill="none"></path><path d="M6.02,168.56c-1.42489,0 -2.58,-1.15511 -2.58,-2.58v-159.96c0,-1.42489 1.15511,-2.58 2.58,-2.58h159.96c1.42489,0 2.58,1.15511 2.58,2.58v159.96c0,1.42489 -1.15511,2.58 -2.58,2.58z" fill="none"></path><path d="M18.06,172c-9.97426,0 -18.06,-8.08574 -18.06,-18.06v-135.88c0,-9.97426 8.08574,-18.06 18.06,-18.06h135.88c9.97426,0 18.06,8.08574 18.06,18.06v135.88c0,9.97426 -8.08574,18.06 -18.06,18.06z" fill="none"></path><path d="M21.5,168.56c-9.97426,0 -18.06,-8.08574 -18.06,-18.06v-129c0,-9.97426 8.08574,-18.06 18.06,-18.06h129c9.97426,0 18.06,8.08574 18.06,18.06v129c0,9.97426 -8.08574,18.06 -18.06,18.06z" fill="none"></path><path d="M30.96,172c-17.09874,0 -30.96,-13.86126 -30.96,-30.96v-110.08c0,-17.09874 13.86126,-30.96 30.96,-30.96h110.08c17.09874,0 30.96,13.86126 30.96,30.96v110.08c0,17.09874 -13.86126,30.96 -30.96,30.96z" fill="none"></path><path d="M34.4,168.56c-17.09874,0 -30.96,-13.86126 -30.96,-30.96v-103.2c0,-17.09874 13.86126,-30.96 30.96,-30.96h103.2c17.09874,0 30.96,13.86126 30.96,30.96v103.2c0,17.09874 -13.86126,30.96 -30.96,30.96z" fill="none"></path><path d="M41.28,172c-22.79831,0 -41.28,-18.48169 -41.28,-41.28v-89.44c0,-22.79831 18.48169,-41.28 41.28,-41.28h89.44c22.79831,0 41.28,18.48169 41.28,41.28v89.44c0,22.79831 -18.48169,41.28 -41.28,41.28z" fill="none"></path><path d="M44.72,168.56c-22.79831,0 -41.28,-18.48169 -41.28,-41.28v-82.56c0,-22.79831 18.48169,-41.28 41.28,-41.28h82.56c22.79831,0 41.28,18.48169 41.28,41.28v82.56c0,22.79831 -18.48169,41.28 -41.28,41.28z" fill="none"></path><path d="M49.88,172c-27.54796,0 -49.88,-22.33204 -49.88,-49.88v-72.24c0,-27.54796 22.33204,-49.88 49.88,-49.88h72.24c27.54796,0 49.88,22.33204 49.88,49.88v72.24c0,27.54796 -22.33204,49.88 -49.88,49.88z" fill="none"></path><path d="M53.32,168.56c-27.54796,0 -49.88,-22.33204 -49.88,-49.88v-65.36c0,-27.54796 22.33204,-49.88 49.88,-49.88h65.36c27.54796,0 49.88,22.33204 49.88,49.88v65.36c0,27.54796 -22.33204,49.88 -49.88,49.88z" fill="none"></path><path d="M59.34,172c-32.77258,0 -59.34,-26.56742 -59.34,-59.34v-53.32c0,-32.77258 26.56742,-59.34 59.34,-59.34h53.32c32.77258,0 59.34,26.56742 59.34,59.34v53.32c0,32.77258 -26.56742,59.34 -59.34,59.34z" fill="none"></path><path d="M62.78,168.56c-32.77258,0 -59.34,-26.56742 -59.34,-59.34v-46.44c0,-32.77258 26.56742,-59.34 59.34,-59.34h46.44c32.77258,0 59.34,26.56742 59.34,59.34v46.44c0,32.77258 -26.56742,59.34 -59.34,59.34z" fill="none"></path><path d="M66.22,172c-36.5723,0 -66.22,-29.6477 -66.22,-66.22v-39.56c0,-36.5723 29.6477,-66.22 66.22,-66.22h39.56c36.5723,0 66.22,29.6477 66.22,66.22v39.56c0,36.5723 -29.6477,66.22 -66.22,66.22z" fill="none"></path><path d="M69.66,168.56c-36.5723,0 -66.22,-29.6477 -66.22,-66.22v-32.68c0,-36.5723 29.6477,-66.22 66.22,-66.22h32.68c36.5723,0 66.22,29.6477 66.22,66.22v32.68c0,36.5723 -29.6477,66.22 -66.22,66.22z" fill="none"></path><path d="M73.96,172c-40.84698,0 -73.96,-33.11302 -73.96,-73.96v-24.08c0,-40.84698 33.11302,-73.96 73.96,-73.96h24.08c40.84698,0 73.96,33.11302 73.96,73.96v24.08c0,40.84698 -33.11302,73.96 -73.96,73.96z" fill="none"></path><path d="M77.4,168.56c-40.84698,0 -73.96,-33.11302 -73.96,-73.96v-17.2c0,-40.84698 33.11302,-73.96 73.96,-73.96h17.2c40.84698,0 73.96,33.11302 73.96,73.96v17.2c0,40.84698 -33.11302,73.96 -73.96,73.96z" fill="none"></path><path d="M86,172c-47.49649,0 -86,-38.50351 -86,-86v0c0,-47.49649 38.50351,-86 86,-86v0c47.49649,0 86,38.50351 86,86v0c0,47.49649 -38.50351,86 -86,86z" fill="none"></path><path d="M86,168.56c-45.59663,0 -82.56,-36.96337 -82.56,-82.56v0c0,-45.59663 36.96337,-82.56 82.56,-82.56v0c45.59663,0 82.56,36.96337 82.56,82.56v0c0,45.59663 -36.96337,82.56 -82.56,82.56z" fill="none"></path><path d="M86,171.14c-47.02152,0 -85.14,-38.11848 -85.14,-85.14v0c0,-47.02152 38.11848,-85.14 85.14,-85.14h0c47.02152,0 85.14,38.11848 85.14,85.14v0c0,47.02152 -38.11848,85.14 -85.14,85.14z" fill="none"></path><path d="M86,167.7c-45.12166,0 -81.7,-36.57834 -81.7,-81.7v0c0,-45.12166 36.57834,-81.7 81.7,-81.7h0c45.12166,0 81.7,36.57834 81.7,81.7v0c0,45.12166 -36.57834,81.7 -81.7,81.7z" fill="none"></path><path d="M86,153.94c-37.52223,0 -67.94,-30.41777 -67.94,-67.94v0c0,-37.52223 30.41777,-67.94 67.94,-67.94v0c37.52223,0 67.94,30.41777 67.94,67.94v0c0,37.52223 -30.41777,67.94 -67.94,67.94z" fill="none"></path><path d="M86,150.5c-35.62237,0 -64.5,-28.87763 -64.5,-64.5v0c0,-35.62237 28.87763,-64.5 64.5,-64.5v0c35.62237,0 64.5,28.87763 64.5,64.5v0c0,35.62237 -28.87763,64.5 -64.5,64.5z" fill="none"></path><path d="M86,136.74c-28.02293,0 -50.74,-22.71707 -50.74,-50.74v0c0,-28.02293 22.71707,-50.74 50.74,-50.74v0c28.02293,0 50.74,22.71707 50.74,50.74v0c0,28.02293 -22.71707,50.74 -50.74,50.74z" fill="none"></path><path d="M86,133.3c-26.12307,0 -47.3,-21.17693 -47.3,-47.3v0c0,-26.12307 21.17693,-47.3 47.3,-47.3v0c26.12307,0 47.3,21.17693 47.3,47.3v0c0,26.12307 -21.17693,47.3 -47.3,47.3z" fill="none"></path><path d="M86,125.56c-21.84838,0 -39.56,-17.71162 -39.56,-39.56v0c0,-21.84838 17.71162,-39.56 39.56,-39.56v0c21.84838,0 39.56,17.71162 39.56,39.56v0c0,21.84838 -17.71162,39.56 -39.56,39.56z" fill="none"></path><path d="M86,122.12c-19.94853,0 -36.12,-16.17147 -36.12,-36.12v0c0,-19.94853 16.17147,-36.12 36.12,-36.12v0c19.94853,0 36.12,16.17147 36.12,36.12v0c0,19.94853 -16.17147,36.12 -36.12,36.12z" fill="none"></path><path d="M86,116.96c-17.09874,0 -30.96,-13.86126 -30.96,-30.96v0c0,-17.09874 13.86126,-30.96 30.96,-30.96v0c17.09874,0 30.96,13.86126 30.96,30.96v0c0,17.09874 -13.86126,30.96 -30.96,30.96z" fill="none"></path><path d="M86,113.52c-15.19888,0 -27.52,-12.32112 -27.52,-27.52v0c0,-15.19888 12.32112,-27.52 27.52,-27.52h0c15.19888,0 27.52,12.32112 27.52,27.52v0c0,15.19888 -12.32112,27.52 -27.52,27.52z" fill="none"></path><path d="M86,111.8c-14.24895,0 -25.8,-11.55105 -25.8,-25.8v0c0,-14.24895 11.55105,-25.8 25.8,-25.8h0c14.24895,0 25.8,11.55105 25.8,25.8v0c0,14.24895 -11.55105,25.8 -25.8,25.8z" fill="none"></path><path d="M86,108.36c-12.34909,0 -22.36,-10.01091 -22.36,-22.36v0c0,-12.34909 10.01091,-22.36 22.36,-22.36v0c12.34909,0 22.36,10.01091 22.36,22.36v0c0,12.34909 -10.01091,22.36 -22.36,22.36z" fill="none"></path><path d="M86,105.78c-10.92419,0 -19.78,-8.85581 -19.78,-19.78v0c0,-10.92419 8.85581,-19.78 19.78,-19.78v0c10.92419,0 19.78,8.85581 19.78,19.78v0c0,10.92419 -8.85581,19.78 -19.78,19.78z" fill="none"></path><path d="M86,102.34c-9.02433,0 -16.34,-7.31567 -16.34,-16.34v0c0,-9.02433 7.31567,-16.34 16.34,-16.34v0c9.02433,0 16.34,7.31567 16.34,16.34v0c0,9.02433 -7.31567,16.34 -16.34,16.34z" fill="none"></path><path d="M86,102.34c-9.02433,0 -16.34,-7.31567 -16.34,-16.34v0c0,-9.02433 7.31567,-16.34 16.34,-16.34v0c9.02433,0 16.34,7.31567 16.34,16.34v0c0,9.02433 -7.31567,16.34 -16.34,16.34z" fill="none"></path><path d="M86,98.9c-7.12447,0 -12.9,-5.77553 -12.9,-12.9v0c0,-7.12447 5.77553,-12.9 12.9,-12.9h0c7.12447,0 12.9,5.77553 12.9,12.9v0c0,7.12447 -5.77553,12.9 -12.9,12.9z" fill="none"></path><path d="M86,101.48c-8.54937,0 -15.48,-6.93063 -15.48,-15.48v0c0,-8.54937 6.93063,-15.48 15.48,-15.48h0c8.54937,0 15.48,6.93063 15.48,15.48v0c0,8.54937 -6.93063,15.48 -15.48,15.48z" fill="none"></path><path d="M86,98.04c-6.64951,0 -12.04,-5.39049 -12.04,-12.04v0c0,-6.64951 5.39049,-12.04 12.04,-12.04h0c6.64951,0 12.04,5.39049 12.04,12.04v0c0,6.64951 -5.39049,12.04 -12.04,12.04z" fill="none"></path><path d="M86,102.34c-9.02433,0 -16.34,-7.31567 -16.34,-16.34v0c0,-9.02433 7.31567,-16.34 16.34,-16.34v0c9.02433,0 16.34,7.31567 16.34,16.34v0c0,9.02433 -7.31567,16.34 -16.34,16.34z" fill="none"></path><path d="M86,98.9c-7.12447,0 -12.9,-5.77553 -12.9,-12.9v0c0,-7.12447 5.77553,-12.9 12.9,-12.9h0c7.12447,0 12.9,5.77553 12.9,12.9v0c0,7.12447 -5.77553,12.9 -12.9,12.9z" fill="none"></path><path d="M86,111.8c-14.24895,0 -25.8,-11.55105 -25.8,-25.8v0c0,-14.24895 11.55105,-25.8 25.8,-25.8h0c14.24895,0 25.8,11.55105 25.8,25.8v0c0,14.24895 -11.55105,25.8 -25.8,25.8z" fill="none"></path><path d="M86,108.36c-12.34909,0 -22.36,-10.01091 -22.36,-22.36v0c0,-12.34909 10.01091,-22.36 22.36,-22.36v0c12.34909,0 22.36,10.01091 22.36,22.36v0c0,12.34909 -10.01091,22.36 -22.36,22.36z" fill="none"></path><path d="M86,145.34c-32.77258,0 -59.34,-26.56742 -59.34,-59.34v0c0,-32.77258 26.56742,-59.34 59.34,-59.34v0c32.77258,0 59.34,26.56742 59.34,59.34v0c0,32.77258 -26.56742,59.34 -59.34,59.34z" fill="none"></path><path d="M86,141.9c-30.87272,0 -55.9,-25.02728 -55.9,-55.9v0c0,-30.87272 25.02728,-55.9 55.9,-55.9v0c30.87272,0 55.9,25.02728 55.9,55.9v0c0,30.87272 -25.02728,55.9 -55.9,55.9z" fill="none"></path><path d="M86,166.84c-44.6467,0 -80.84,-36.1933 -80.84,-80.84v0c0,-44.6467 36.1933,-80.84 80.84,-80.84v0c44.6467,0 80.84,36.1933 80.84,80.84v0c0,44.6467 -36.1933,80.84 -80.84,80.84z" fill="none"></path><path d="M86,163.4c-42.74684,0 -77.4,-34.65316 -77.4,-77.4v0c0,-42.74684 34.65316,-77.4 77.4,-77.4v0c42.74684,0 77.4,34.65316 77.4,77.4v0c0,42.74684 -34.65316,77.4 -77.4,77.4z" fill="none"></path><path d="M86,172c-47.49649,0 -86,-38.50351 -86,-86v0c0,-47.49649 38.50351,-86 86,-86v0c47.49649,0 86,38.50351 86,86v0c0,47.49649 -38.50351,86 -86,86z" fill="none"></path><path d="M86,168.56c-45.59663,0 -82.56,-36.96337 -82.56,-82.56v0c0,-45.59663 36.96337,-82.56 82.56,-82.56v0c45.59663,0 82.56,36.96337 82.56,82.56v0c0,45.59663 -36.96337,82.56 -82.56,82.56z" fill="none"></path><path d="M86,172c-47.49649,0 -86,-38.50351 -86,-86v0c0,-47.49649 38.50351,-86 86,-86v0c47.49649,0 86,38.50351 86,86v0c0,47.49649 -38.50351,86 -86,86z" fill="none"></path><path d="M86,168.56c-45.59663,0 -82.56,-36.96337 -82.56,-82.56v0c0,-45.59663 36.96337,-82.56 82.56,-82.56v0c45.59663,0 82.56,36.96337 82.56,82.56v0c0,45.59663 -36.96337,82.56 -82.56,82.56z" fill="none"></path><path d="M86,172c-47.49649,0 -86,-38.50351 -86,-86v0c0,-47.49649 38.50351,-86 86,-86v0c47.49649,0 86,38.50351 86,86v0c0,47.49649 -38.50351,86 -86,86z" fill="none"></path><path d="M86,168.56c-45.59663,0 -82.56,-36.96337 -82.56,-82.56v0c0,-45.59663 36.96337,-82.56 82.56,-82.56v0c45.59663,0 82.56,36.96337 82.56,82.56v0c0,45.59663 -36.96337,82.56 -82.56,82.56z" fill="none"></path><path d="M86,172c-47.49649,0 -86,-38.50351 -86,-86v0c0,-47.49649 38.50351,-86 86,-86v0c47.49649,0 86,38.50351 86,86v0c0,47.49649 -38.50351,86 -86,86z" fill="none"></path><path d="M86,168.56c-45.59663,0 -82.56,-36.96337 -82.56,-82.56v0c0,-45.59663 36.96337,-82.56 82.56,-82.56v0c45.59663,0 82.56,36.96337 82.56,82.56v0c0,45.59663 -36.96337,82.56 -82.56,82.56z" fill="none"></path><path d="M86,172c-47.49649,0 -86,-38.50351 -86,-86v0c0,-47.49649 38.50351,-86 86,-86v0c47.49649,0 86,38.50351 86,86v0c0,47.49649 -38.50351,86 -86,86z" fill="none"></path><path d="M86,168.56c-45.59663,0 -82.56,-36.96337 -82.56,-82.56v0c0,-45.59663 36.96337,-82.56 82.56,-82.56v0c45.59663,0 82.56,36.96337 82.56,82.56v0c0,45.59663 -36.96337,82.56 -82.56,82.56z" fill="none"></path><path d="M86,172c-47.49649,0 -86,-38.50351 -86,-86v0c0,-47.49649 38.50351,-86 86,-86v0c47.49649,0 86,38.50351 86,86v0c0,47.49649 -38.50351,86 -86,86z" fill="none"></path><path d="M86,168.56c-45.59663,0 -82.56,-36.96337 -82.56,-82.56v0c0,-45.59663 36.96337,-82.56 82.56,-82.56v0c45.59663,0 82.56,36.96337 82.56,82.56v0c0,45.59663 -36.96337,82.56 -82.56,82.56z" fill="none"></path><path d="M86,172c-47.49649,0 -86,-38.50351 -86,-86v0c0,-47.49649 38.50351,-86 86,-86v0c47.49649,0 86,38.50351 86,86v0c0,47.49649 -38.50351,86 -86,86z" fill="none"></path><path d="M86,168.56c-45.59663,0 -82.56,-36.96337 -82.56,-82.56v0c0,-45.59663 36.96337,-82.56 82.56,-82.56v0c45.59663,0 82.56,36.96337 82.56,82.56v0c0,45.59663 -36.96337,82.56 -82.56,82.56z" fill="none"></path><path d="M86,172c-47.49649,0 -86,-38.50351 -86,-86v0c0,-47.49649 38.50351,-86 86,-86v0c47.49649,0 86,38.50351 86,86v0c0,47.49649 -38.50351,86 -86,86z" fill="none"></path><path d="M86,168.56c-45.59663,0 -82.56,-36.96337 -82.56,-82.56v0c0,-45.59663 36.96337,-82.56 82.56,-82.56v0c45.59663,0 82.56,36.96337 82.56,82.56v0c0,45.59663 -36.96337,82.56 -82.56,82.56z" fill="none"></path><path d="M86,172c-47.49649,0 -86,-38.50351 -86,-86v0c0,-47.49649 38.50351,-86 86,-86v0c47.49649,0 86,38.50351 86,86v0c0,47.49649 -38.50351,86 -86,86z" fill="none"></path><path d="M86,168.56c-45.59663,0 -82.56,-36.96337 -82.56,-82.56v0c0,-45.59663 36.96337,-82.56 82.56,-82.56v0c45.59663,0 82.56,36.96337 82.56,82.56v0c0,45.59663 -36.96337,82.56 -82.56,82.56z" fill="none"></path><path d="M86,172c-47.49649,0 -86,-38.50351 -86,-86v0c0,-47.49649 38.50351,-86 86,-86v0c47.49649,0 86,38.50351 86,86v0c0,47.49649 -38.50351,86 -86,86z" fill="none"></path><path d="M86,168.56c-45.59663,0 -82.56,-36.96337 -82.56,-82.56v0c0,-45.59663 36.96337,-82.56 82.56,-82.56v0c45.59663,0 82.56,36.96337 82.56,82.56v0c0,45.59663 -36.96337,82.56 -82.56,82.56z" fill="none"></path><path d="M86,172c-47.49649,0 -86,-38.50351 -86,-86v0c0,-47.49649 38.50351,-86 86,-86v0c47.49649,0 86,38.50351 86,86v0c0,47.49649 -38.50351,86 -86,86z" fill="none"></path><path d="M86,168.56c-45.59663,0 -82.56,-36.96337 -82.56,-82.56v0c0,-45.59663 36.96337,-82.56 82.56,-82.56v0c45.59663,0 82.56,36.96337 82.56,82.56v0c0,45.59663 -36.96337,82.56 -82.56,82.56z" fill="none"></path><path d="M86,172c-47.49649,0 -86,-38.50351 -86,-86v0c0,-47.49649 38.50351,-86 86,-86v0c47.49649,0 86,38.50351 86,86v0c0,47.49649 -38.50351,86 -86,86z" fill="none"></path><path d="M86,168.56c-45.59663,0 -82.56,-36.96337 -82.56,-82.56v0c0,-45.59663 36.96337,-82.56 82.56,-82.56v0c45.59663,0 82.56,36.96337 82.56,82.56v0c0,45.59663 -36.96337,82.56 -82.56,82.56z" fill="none"></path><path d="" fill="none"></path></g></g></svg>