<svg xmlns="http://www.w3.org/2000/svg" x="0px" y="0px"
width="96" height="96"
viewBox="0 0 172 172"
style=" fill:#000000;"><g fill="none" fill-rule="nonzero" stroke="none" stroke-width="1" stroke-linecap="butt" stroke-linejoin="miter" stroke-miterlimit="10" stroke-dasharray="" stroke-dashoffset="0" font-family="none" font-weight="none" font-size="none" text-anchor="none" style="mix-blend-mode: normal"><path d="M0,172v-172h172v172z" fill="none"></path><path d="M0,86c0,-47.49649 38.50351,-86 86,-86c47.49649,0 86,38.50351 86,86c0,47.49649 -38.50351,86 -86,86c-47.49649,0 -86,-38.50351 -86,-86zM86,168.56c45.59663,0 82.56,-36.96337 82.56,-82.56c0,-45.59663 -36.96337,-82.56 -82.56,-82.56c-45.59663,0 -82.56,36.96337 -82.56,82.56c0,45.59663 36.96337,82.56 82.56,82.56z" fill="#613f8e"></path><g><path d="M127.925,116.27917c0,6.43316 -5.21267,11.64583 -11.64583,11.64583h-60.55833c-6.43083,0 -11.64583,-5.21267 -11.64583,-11.64583v-60.55833c0,-6.43316 5.215,-11.64583 11.64583,-11.64583h60.55833c6.43316,0 11.64583,5.21268 11.64583,11.64583z" fill="#613f8e"></path><path d="M107.03237,89.72667c-1.51396,-2.09625 -3.70337,-3.54033 -6.52167,-4.30896c0,0 2.37575,-0.86179 4.51858,-4.07604c1.28104,-2.04967 1.93321,-4.51858 1.93321,-7.40675c0,-5.00771 -1.81675,-8.85083 -5.45025,-11.48279c-3.6335,-2.63196 -7.73283,-4.40212 -14.69704,-4.40212h-21.77771v55.9h24.29321c6.59154,-0.04658 11.55267,-1.46738 14.92996,-4.1925c3.354,-2.77171 5.031,-6.87104 5.031,-12.34458c0,-3.02792 -0.74533,-5.59 -2.25929,-7.68625zM79.0125,67.36667c0,0 9.71262,0 9.89896,0c3.54033,0 6.40521,2.86487 6.40521,6.40521c0,3.54033 -2.86488,6.40521 -6.40521,6.40521c-0.18633,0 -9.89896,0 -9.89896,0zM90.65833,104.63333h-11.64583v-13.975h11.64583c3.86642,0 6.9875,3.12108 6.9875,6.9875c0,3.86642 -3.12108,6.9875 -6.9875,6.9875z" fill="#ffffff"></path></g><path d="M86,172c-47.49649,0 -86,-38.50351 -86,-86v0c0,-47.49649 38.50351,-86 86,-86v0c47.49649,0 86,38.50351 86,86v0c0,47.49649 -38.50351,86 -86,86z" fill="none"></path><path d="M86,168.56c-45.59663,0 -82.56,-36.96337 -82.56,-82.56v0c0,-45.59663 36.96337,-82.56 82.56,-82.56v0c45.59663,0 82.56,36.96337 82.56,82.56v0c0,45.59663 -36.96337,82.56 -82.56,82.56z" fill="none"></path><path d="M86,172c-47.49649,0 -86,-38.50351 -86,-86v0c0,-47.49649 38.50351,-86 86,-86v0c47.49649,0 86,38.50351 86,86v0c0,47.49649 -38.50351,86 -86,86z" fill="none"></path><path d="M86,168.56c-45.59663,0 -82.56,-36.96337 -82.56,-82.56v0c0,-45.59663 36.96337,-82.56 82.56,-82.56v0c45.59663,0 82.56,36.96337 82.56,82.56v0c0,45.59663 -36.96337,82.56 -82.56,82.56z" fill="none"></path><path d="M86,172c-47.49649,0 -86,-38.50351 -86,-86v0c0,-47.49649 38.50351,-86 86,-86v0c47.49649,0 86,38.50351 86,86v0c0,47.49649 -38.50351,86 -86,86z" fill="none"></path><path d="M86,168.56c-45.59663,0 -82.56,-36.96337 -82.56,-82.56v0c0,-45.59663 36.96337,-82.56 82.56,-82.56v0c45.59663,0 82.56,36.96337 82.56,82.56v0c0,45.59663 -36.96337,82.56 -82.56,82.56z" fill="none"></path></g></svg>