<svg xmlns="http://www.w3.org/2000/svg" x="0px" y="0px"
width="96" height="96"
viewBox="0 0 172 172"
style=" fill:#000000;"><g fill="none" fill-rule="nonzero" stroke="none" stroke-width="1" stroke-linecap="butt" stroke-linejoin="miter" stroke-miterlimit="10" stroke-dasharray="" stroke-dashoffset="0" font-family="none" font-weight="none" font-size="none" text-anchor="none" style="mix-blend-mode: normal"><path d="M0,172v-172h172v172z" fill="none"></path><path d="M0,86c0,-47.49649 38.50351,-86 86,-86c47.49649,0 86,38.50351 86,86c0,47.49649 -38.50351,86 -86,86c-47.49649,0 -86,-38.50351 -86,-86zM86,168.56c45.59663,0 82.56,-36.96337 82.56,-82.56c0,-45.59663 -36.96337,-82.56 -82.56,-82.56c-45.59663,0 -82.56,36.96337 -82.56,82.56c0,45.59663 36.96337,82.56 82.56,82.56z" fill="#0172c0"></path><g><path d="M86,137.24167c-24.45625,0 -44.25417,-19.565 -44.25417,-43.3225c0,-18.86625 12.34458,-35.63625 30.745,-41.22625c3.95958,-1.3975 6.9875,-10.01542 7.68625,-12.5775l1.16458,-5.35708l3.02792,4.42542c2.56208,3.95958 7.45333,11.64583 10.71417,12.11167c20.26375,4.1925 35.17042,22.12708 35.17042,42.62375c0,23.7575 -19.79792,43.3225 -44.25417,43.3225z" fill="#0172c0"></path><path d="M98.81042,112.08667c1.3975,0 3.02792,0 4.1925,0.69875c1.16458,0.69875 1.86333,2.32917 2.09625,3.26083c0.46583,0.93167 0,1.3975 -0.69875,1.86333c-0.69875,0.46583 -0.69875,0.23292 -1.3975,-0.93167c-0.69875,-1.16458 -1.16458,-2.32917 -4.42542,-2.32917c-3.26083,0 -4.1925,1.16458 -5.82292,2.32917c-1.63042,1.16458 -2.09625,1.63042 -2.56208,0.93167c-0.46583,-0.69875 -0.46583,-1.3975 0.69875,-2.32917c0.93167,-0.93167 2.56208,-2.32917 4.1925,-3.02792c1.3975,-0.69875 2.32917,-0.46583 3.72667,-0.46583zM83.43792,122.335c1.86333,1.3975 4.65833,2.56208 10.48125,2.56208c5.82292,0 10.01542,-1.63042 11.87875,-3.02792c0.93167,-0.69875 1.16458,0 1.3975,0.23292c0,0.46583 0.23292,0.93167 -0.46583,1.63042c-0.46583,0.46583 -4.65833,3.26083 -9.7825,3.72667c-4.89125,0.46583 -11.64583,0.69875 -15.83833,-2.795c-0.69875,-0.69875 -0.46583,-1.63042 0,-1.86333c0.46583,-0.46583 0.93167,-0.69875 1.3975,-0.69875c0.46583,0 0.69875,0 0.93167,0.23292zM62.70833,103.70167c0,-6.75458 6.75458,-13.04333 15.3725,-13.04333c10.71417,0 18.40042,10.01542 23.7575,9.7825c4.65833,0 13.50917,-8.61792 17.93458,-8.61792c4.65833,0 5.82292,4.42542 5.82292,7.22042c0,2.56208 -0.93167,7.45333 -3.26083,10.48125c-2.32917,3.02792 -3.49375,4.1925 -6.28875,3.95958c-3.26083,-0.23292 -10.01542,-9.7825 -14.20792,-10.01542c-5.35708,-0.23292 -17.00292,10.48125 -26.08667,10.48125c-5.59,0 -7.22042,-0.69875 -9.08375,-1.86333c-2.56208,-1.86333 -3.95958,-4.65833 -3.95958,-8.385z" fill="#ffffff"></path></g><path d="M86,172c-47.49649,0 -86,-38.50351 -86,-86v0c0,-47.49649 38.50351,-86 86,-86v0c47.49649,0 86,38.50351 86,86v0c0,47.49649 -38.50351,86 -86,86z" fill="none"></path><path d="M86,168.56c-45.59663,0 -82.56,-36.96337 -82.56,-82.56v0c0,-45.59663 36.96337,-82.56 82.56,-82.56v0c45.59663,0 82.56,36.96337 82.56,82.56v0c0,45.59663 -36.96337,82.56 -82.56,82.56z" fill="none"></path><path d="M86,172c-47.49649,0 -86,-38.50351 -86,-86v0c0,-47.49649 38.50351,-86 86,-86v0c47.49649,0 86,38.50351 86,86v0c0,47.49649 -38.50351,86 -86,86z" fill="none"></path><path d="M86,168.56c-45.59663,0 -82.56,-36.96337 -82.56,-82.56v0c0,-45.59663 36.96337,-82.56 82.56,-82.56v0c45.59663,0 82.56,36.96337 82.56,82.56v0c0,45.59663 -36.96337,82.56 -82.56,82.56z" fill="none"></path></g></svg>