<svg xmlns="http://www.w3.org/2000/svg" x="0px" y="0px"
width="96" height="96"
viewBox="0 0 172 172"
style=" fill:#000000;"><g fill="none" fill-rule="nonzero" stroke="none" stroke-width="1" stroke-linecap="butt" stroke-linejoin="miter" stroke-miterlimit="10" stroke-dasharray="" stroke-dashoffset="0" font-family="none" font-weight="none" font-size="none" text-anchor="none" style="mix-blend-mode: normal"><path d="M0,172v-172h172v172z" fill="none"></path><path d="M0,86c0,-47.49649 38.50351,-86 86,-86c47.49649,0 86,38.50351 86,86c0,47.49649 -38.50351,86 -86,86c-47.49649,0 -86,-38.50351 -86,-86zM86,168.56c45.59663,0 82.56,-36.96337 82.56,-82.56c0,-45.59663 -36.96337,-82.56 -82.56,-82.56c-45.59663,0 -82.56,36.96337 -82.56,82.56c0,45.59663 36.96337,82.56 82.56,82.56z" fill="#666666"></path><g fill="#ffffff"><path d="M41.05067,133.35733c-8.40874,0 -15.25067,-6.84193 -15.25067,-15.25067v-64.21333c0,-8.40874 6.84193,-15.25067 15.25067,-15.25067h89.89867c8.40874,0 15.25067,6.84193 15.25067,15.25067v64.21333c0,8.40874 -6.84193,15.25067 -15.25067,15.25067z"></path><path d="M130.94933,39.44533c7.96727,0 14.448,6.48073 14.448,14.448v64.21333c0,7.96727 -6.48073,14.448 -14.448,14.448h-89.89867c-7.96727,0 -14.448,-6.48073 -14.448,-14.448v-64.21333c0,-7.96727 6.48073,-14.448 14.448,-14.448h89.89867M130.94933,37.84h-89.89867c-8.86626,0 -16.05333,7.18708 -16.05333,16.05333v64.21333c0,8.86626 7.18708,16.05333 16.05333,16.05333h89.89867c8.86626,0 16.05333,-7.18708 16.05333,-16.05333v-64.21333c0,-8.86626 -7.18708,-16.05333 -16.05333,-16.05333z"></path></g><path d="M86,172c-47.49649,0 -86,-38.50351 -86,-86v0c0,-47.49649 38.50351,-86 86,-86v0c47.49649,0 86,38.50351 86,86v0c0,47.49649 -38.50351,86 -86,86z" fill="none"></path><path d="M86,168.56c-45.59663,0 -82.56,-36.96337 -82.56,-82.56v0c0,-45.59663 36.96337,-82.56 82.56,-82.56v0c45.59663,0 82.56,36.96337 82.56,82.56v0c0,45.59663 -36.96337,82.56 -82.56,82.56z" fill="none"></path><path d="M86,172c-47.49649,0 -86,-38.50351 -86,-86v0c0,-47.49649 38.50351,-86 86,-86v0c47.49649,0 86,38.50351 86,86v0c0,47.49649 -38.50351,86 -86,86z" fill="none"></path><path d="M86,168.56c-45.59663,0 -82.56,-36.96337 -82.56,-82.56v0c0,-45.59663 36.96337,-82.56 82.56,-82.56v0c45.59663,0 82.56,36.96337 82.56,82.56v0c0,45.59663 -36.96337,82.56 -82.56,82.56z" fill="none"></path><path d="M86,172c-47.49649,0 -86,-38.50351 -86,-86v0c0,-47.49649 38.50351,-86 86,-86v0c47.49649,0 86,38.50351 86,86v0c0,47.49649 -38.50351,86 -86,86z" fill="none"></path><path d="M86,168.56c-45.59663,0 -82.56,-36.96337 -82.56,-82.56v0c0,-45.59663 36.96337,-82.56 82.56,-82.56v0c45.59663,0 82.56,36.96337 82.56,82.56v0c0,45.59663 -36.96337,82.56 -82.56,82.56z" fill="none"></path><path d="M86,172c-47.49649,0 -86,-38.50351 -86,-86v0c0,-47.49649 38.50351,-86 86,-86v0c47.49649,0 86,38.50351 86,86v0c0,47.49649 -38.50351,86 -86,86z" fill="none"></path><path d="M86,168.56c-45.59663,0 -82.56,-36.96337 -82.56,-82.56v0c0,-45.59663 36.96337,-82.56 82.56,-82.56v0c45.59663,0 82.56,36.96337 82.56,82.56v0c0,45.59663 -36.96337,82.56 -82.56,82.56z" fill="none"></path><path d="M86,172c-47.49649,0 -86,-38.50351 -86,-86v0c0,-47.49649 38.50351,-86 86,-86v0c47.49649,0 86,38.50351 86,86v0c0,47.49649 -38.50351,86 -86,86z" fill="none"></path><path d="M86,168.56c-45.59663,0 -82.56,-36.96337 -82.56,-82.56v0c0,-45.59663 36.96337,-82.56 82.56,-82.56v0c45.59663,0 82.56,36.96337 82.56,82.56v0c0,45.59663 -36.96337,82.56 -82.56,82.56z" fill="none"></path><g fill="#666666"><path d="M34.635,83.405v2.45h-9.86v8.07h11.45v2.45h-14.45v-22.75h14.3v2.47h-11.3v7.31zM41.905,73.625l5.48,8.72l5.45,-8.72h3.53l-7.18,11.28l7.36,11.47h-3.57l-5.59,-8.87l-5.62,8.87h-3.55l7.37,-11.47l-7.2,-11.28zM68.385,87.465h-5.36v8.91h-3v-22.75h8.39c2.49333,0 4.44333,0.63667 5.85,1.91c1.41333,1.26667 2.12,2.94667 2.12,5.04v0c0,2.21333 -0.69,3.91333 -2.07,5.1c-1.38,1.19333 -3.35667,1.79 -5.93,1.79zM63.025,76.095v8.92h5.39c1.60667,0 2.83667,-0.37667 3.69,-1.13c0.85333,-0.75333 1.28,-1.84667 1.28,-3.28v0c0,-1.35333 -0.42667,-2.43667 -1.28,-3.25c-0.85333,-0.80667 -2.02667,-1.22667 -3.52,-1.26v0zM93.495,96.375l-4.94,-9.2h-5.34v9.2h-3.02v-22.75h7.53c2.56667,0 4.54,0.58333 5.92,1.75c1.38,1.16667 2.07,2.86333 2.07,5.09v0c0,1.42 -0.38333,2.65667 -1.15,3.71c-0.76667,1.05333 -1.83333,1.84 -3.2,2.36v0l5.35,9.65v0.19zM83.215,76.095v8.62h4.61c1.48667,0 2.67,-0.38333 3.55,-1.15c0.88,-0.77333 1.32,-1.80667 1.32,-3.1v0c0,-1.40667 -0.42,-2.48333 -1.26,-3.23c-0.83333,-0.75333 -2.04333,-1.13333 -3.63,-1.14v0zM112.775,83.405v2.45h-9.86v8.07h11.45v2.45h-14.45v-22.75h14.3v2.47h-11.3v7.31zM124.805,86.235v0c-2.57333,-0.74 -4.44667,-1.65 -5.62,-2.73c-1.16667,-1.07333 -1.75,-2.40333 -1.75,-3.99v0c0,-1.79333 0.71667,-3.27333 2.15,-4.44c1.42667,-1.17333 3.28667,-1.76 5.58,-1.76v0c1.56667,0 2.96,0.3 4.18,0.9c1.22667,0.60667 2.17333,1.44 2.84,2.5c0.67333,1.06667 1.01,2.23 1.01,3.49v0h-3.01c0,-1.37333 -0.44,-2.45333 -1.32,-3.24c-0.87333,-0.78667 -2.10667,-1.18 -3.7,-1.18v0c-1.48,0 -2.63333,0.32333 -3.46,0.97c-0.82667,0.65333 -1.24,1.55667 -1.24,2.71v0c0,0.92667 0.39333,1.71333 1.18,2.36c0.78667,0.64 2.12333,1.22333 4.01,1.75c1.89333,0.53333 3.37333,1.12 4.44,1.76c1.06667,0.64 1.86,1.38667 2.38,2.24c0.51333,0.85333 0.77,1.86 0.77,3.02v0c0,1.84 -0.72,3.31667 -2.16,4.43c-1.43333,1.10667 -3.35333,1.66 -5.76,1.66v0c-1.56667,0 -3.02667,-0.3 -4.38,-0.9c-1.35333,-0.59333 -2.39667,-1.41333 -3.13,-2.46c-0.73333,-1.04 -1.1,-2.22 -1.1,-3.54v0h3.01c0,1.37333 0.51,2.45667 1.53,3.25c1.01333,0.8 2.37,1.2 4.07,1.2v0c1.58,0 2.79333,-0.32333 3.64,-0.97c0.84,-0.64667 1.26,-1.52667 1.26,-2.64c0,-1.11333 -0.39,-1.97667 -1.17,-2.59c-0.78,-0.60667 -2.19667,-1.20667 -4.25,-1.8zM143.795,86.235v0c-2.57333,-0.74 -4.44667,-1.65 -5.62,-2.73c-1.17333,-1.07333 -1.76,-2.40333 -1.76,-3.99v0c0,-1.79333 0.71667,-3.27333 2.15,-4.44c1.43333,-1.17333 3.29667,-1.76 5.59,-1.76v0c1.56,0 2.95333,0.3 4.18,0.9c1.22,0.60667 2.16667,1.44 2.84,2.5c0.67333,1.06667 1.01,2.23 1.01,3.49v0h-3.02c0,-1.37333 -0.43667,-2.45333 -1.31,-3.24c-0.87333,-0.78667 -2.10667,-1.18 -3.7,-1.18v0c-1.48,0 -2.63667,0.32333 -3.47,0.97c-0.82667,0.65333 -1.24,1.55667 -1.24,2.71v0c0,0.92667 0.39333,1.71333 1.18,2.36c0.78667,0.64 2.12667,1.22333 4.02,1.75c1.88667,0.53333 3.36667,1.12 4.44,1.76c1.06667,0.64 1.85667,1.38667 2.37,2.24c0.51333,0.85333 0.77,1.86 0.77,3.02v0c0,1.84 -0.71667,3.31667 -2.15,4.43c-1.44,1.10667 -3.36333,1.66 -5.77,1.66v0c-1.56,0 -3.01667,-0.3 -4.37,-0.9c-1.35333,-0.59333 -2.4,-1.41333 -3.14,-2.46c-0.73333,-1.04 -1.1,-2.22 -1.1,-3.54v0h3.02c0,1.37333 0.50667,2.45667 1.52,3.25c1.02,0.8 2.37667,1.2 4.07,1.2v0c1.58667,0 2.8,-0.32333 3.64,-0.97c0.84667,-0.64667 1.27,-1.52667 1.27,-2.64c0,-1.11333 -0.39,-1.97667 -1.17,-2.59c-0.78667,-0.60667 -2.20333,-1.20667 -4.25,-1.8z"></path></g><path d="M86,172c-47.49649,0 -86,-38.50351 -86,-86v0c0,-47.49649 38.50351,-86 86,-86v0c47.49649,0 86,38.50351 86,86v0c0,47.49649 -38.50351,86 -86,86z" fill="none"></path><path d="M86,168.56c-45.59663,0 -82.56,-36.96337 -82.56,-82.56v0c0,-45.59663 36.96337,-82.56 82.56,-82.56v0c45.59663,0 82.56,36.96337 82.56,82.56v0c0,45.59663 -36.96337,82.56 -82.56,82.56z" fill="none"></path><path d="M86,172c-47.49649,0 -86,-38.50351 -86,-86v0c0,-47.49649 38.50351,-86 86,-86v0c47.49649,0 86,38.50351 86,86v0c0,47.49649 -38.50351,86 -86,86z" fill="none"></path><path d="M86,168.56c-45.59663,0 -82.56,-36.96337 -82.56,-82.56v0c0,-45.59663 36.96337,-82.56 82.56,-82.56v0c45.59663,0 82.56,36.96337 82.56,82.56v0c0,45.59663 -36.96337,82.56 -82.56,82.56z" fill="none"></path><path d="M86,172c-47.49649,0 -86,-38.50351 -86,-86v0c0,-47.49649 38.50351,-86 86,-86v0c47.49649,0 86,38.50351 86,86v0c0,47.49649 -38.50351,86 -86,86z" fill="none"></path><path d="M86,168.56c-45.59663,0 -82.56,-36.96337 -82.56,-82.56v0c0,-45.59663 36.96337,-82.56 82.56,-82.56v0c45.59663,0 82.56,36.96337 82.56,82.56v0c0,45.59663 -36.96337,82.56 -82.56,82.56z" fill="none"></path></g></svg>