<svg xmlns="http://www.w3.org/2000/svg" x="0px" y="0px"
width="96" height="96"
viewBox="0 0 172 172"
style=" fill:#000000;"><g fill="none" fill-rule="nonzero" stroke="none" stroke-width="1" stroke-linecap="butt" stroke-linejoin="miter" stroke-miterlimit="10" stroke-dasharray="" stroke-dashoffset="0" font-family="none" font-weight="none" font-size="none" text-anchor="none" style="mix-blend-mode: normal"><path d="M0,172v-172h172v172z" fill="none"></path><path d="M0,86c0,-47.49649 38.50351,-86 86,-86c47.49649,0 86,38.50351 86,86c0,47.49649 -38.50351,86 -86,86c-47.49649,0 -86,-38.50351 -86,-86zM86,168.56c45.59663,0 82.56,-36.96337 82.56,-82.56c0,-45.59663 -36.96337,-82.56 -82.56,-82.56c-45.59663,0 -82.56,36.96337 -82.56,82.56c0,45.59663 36.96337,82.56 82.56,82.56z" fill="#f05133"></path><g fill="#f05133"><path d="M144.695,79.8725l-52.5675,-52.5675c-1.6125,-1.6125 -3.87,-2.58 -6.1275,-2.58v0c-2.2575,0 -4.515,0.9675 -6.1275,2.58l-11.2875,11.2875l13.2225,13.2225c1.29,-0.645 2.58,-0.9675 4.1925,-0.9675c5.4825,0 9.675,4.1925 9.675,9.675c0,1.6125 -0.3225,2.9025 -0.9675,4.1925l12.9,12.9c1.29,-0.645 2.58,-0.9675 4.1925,-0.9675c5.4825,0 9.675,4.1925 9.675,9.675c0,5.4825 -4.1925,9.675 -9.675,9.675c-5.4825,0 -9.675,-4.1925 -9.675,-9.675c0,-1.6125 0.3225,-2.9025 0.9675,-4.1925l-12.9,-12.9c-0.3225,0 -0.645,0.3225 -0.9675,0.3225v33.54c3.87,1.29 6.45,4.8375 6.45,9.03c0,5.4825 -4.1925,9.675 -9.675,9.675c-5.4825,0 -9.675,-4.1925 -9.675,-9.675c0,-4.1925 2.58,-7.74 6.45,-9.03v-33.8625c-3.87,-1.29 -6.45,-4.8375 -6.45,-9.03c0,-1.6125 0.3225,-2.9025 0.9675,-4.1925l-13.2225,-13.2225l-36.765,37.0875c-1.6125,1.6125 -2.58,3.87 -2.58,6.1275c0,2.2575 0.9675,4.515 2.58,6.1275l52.5675,52.5675v0c1.6125,1.6125 3.87,2.58 6.1275,2.58c2.2575,0 4.515,-0.9675 6.1275,-2.58l52.5675,-52.5675c1.6125,-1.6125 2.58,-3.87 2.58,-6.1275c0,-2.2575 -0.9675,-4.515 -2.58,-6.1275z"></path></g><path d="M86,172c-47.49649,0 -86,-38.50351 -86,-86v0c0,-47.49649 38.50351,-86 86,-86v0c47.49649,0 86,38.50351 86,86v0c0,47.49649 -38.50351,86 -86,86z" fill="none"></path><path d="M86,168.56c-45.59663,0 -82.56,-36.96337 -82.56,-82.56v0c0,-45.59663 36.96337,-82.56 82.56,-82.56v0c45.59663,0 82.56,36.96337 82.56,82.56v0c0,45.59663 -36.96337,82.56 -82.56,82.56z" fill="none"></path><path d="M86,172c-47.49649,0 -86,-38.50351 -86,-86v0c0,-47.49649 38.50351,-86 86,-86v0c47.49649,0 86,38.50351 86,86v0c0,47.49649 -38.50351,86 -86,86z" fill="none"></path><path d="M86,168.56c-45.59663,0 -82.56,-36.96337 -82.56,-82.56v0c0,-45.59663 36.96337,-82.56 82.56,-82.56v0c45.59663,0 82.56,36.96337 82.56,82.56v0c0,45.59663 -36.96337,82.56 -82.56,82.56z" fill="none"></path></g></svg>