<svg xmlns="http://www.w3.org/2000/svg" x="0px" y="0px"
width="100" height="100"
viewBox="0 0 172 172"
style=" fill:#000000;"><g fill="none" fill-rule="nonzero" stroke="none" stroke-width="1" stroke-linecap="butt" stroke-linejoin="miter" stroke-miterlimit="10" stroke-dasharray="" stroke-dashoffset="0" font-family="none" font-weight="none" font-size="none" text-anchor="none" style="mix-blend-mode: normal"><path d="M0,172v-172h172v172z" fill="none"></path><path d="M0,86c0,-47.49649 38.50351,-86 86,-86c47.49649,0 86,38.50351 86,86c0,47.49649 -38.50351,86 -86,86c-47.49649,0 -86,-38.50351 -86,-86zM86,168.56c45.59663,0 82.56,-36.96337 82.56,-82.56c0,-45.59663 -36.96337,-82.56 -82.56,-82.56c-45.59663,0 -82.56,36.96337 -82.56,82.56c0,45.59663 36.96337,82.56 82.56,82.56z" fill="#434550"></path><g fill="#434550"><path d="M70.10601,133.42384c1.56757,-0.67465 2.66553,-2.2334 2.66553,-4.04791v-11.90561c0,-0.43433 0.03528,-0.88631 0.09039,-1.34489c-0.03087,0.00882 -0.05953,0.01543 -0.09039,0.02205c0,0 -6.61423,0 -7.93707,0c-3.30711,0 -6.17328,-1.32285 -7.49612,-3.96854c-1.54332,-2.86617 -2.20474,-7.7166 -6.17328,-10.36229c-0.66142,-0.44095 -0.22047,-1.10237 1.10237,-1.10237c1.32285,0.22047 4.18901,1.98427 5.95281,4.40949c1.98427,2.42522 3.96854,4.40949 7.49612,4.40949c5.48319,0 8.42212,-0.27559 10.19032,-1.22363c2.05923,-3.06239 4.90996,-5.3906 7.88857,-5.3906v-0.05512c-12.49648,-0.40126 -20.47985,-4.555 -24.19705,-10.96859c-8.08038,0.0926 -15.11572,0.89292 -19.13055,1.55875c-0.12788,-0.72095 -0.23811,-1.44631 -0.33292,-2.17608c3.96192,-0.6526 10.67757,-1.42647 18.39858,-1.57419c-0.24693,-0.60851 -0.46079,-1.23245 -0.64158,-1.87183c-7.74085,-0.39244 -14.42122,-0.08598 -18.05023,0.21386c-0.04409,-0.73197 -0.10362,-1.46174 -0.11244,-2.20254c3.63562,-0.29764 10.1352,-0.59528 17.67763,-0.24473c-0.17417,-1.10237 -0.28662,-2.22899 -0.28662,-3.40192c0,-3.74806 1.32285,-7.7166 3.74806,-11.02371c-1.10237,-3.74806 -2.64569,-11.68514 0.44095,-14.5513c5.95281,0 10.14182,2.86617 12.12608,4.62996c3.74586,-1.54552 7.93487,-2.42742 12.56483,-2.42742c4.62996,0 8.81897,0.8819 12.34656,2.42522c1.98427,-1.76379 6.17328,-4.62996 12.12608,-4.62996c3.30711,3.08664 1.54332,11.02371 0.44095,14.5513c2.42522,3.30711 3.74806,7.05518 3.52759,11.02371c0,1.0671 -0.09921,2.09671 -0.24252,3.10648c7.71439,-0.37922 14.39036,-0.07496 18.08771,0.22488c-0.00441,0.743 -0.07276,1.46836 -0.11244,2.20254c-3.68412,-0.30425 -10.52765,-0.61733 -18.42944,-0.19622c-0.19622,0.74079 -0.43433,1.46174 -0.71654,2.16065c7.81802,0.10142 14.69461,0.85764 18.84614,1.51907c-0.0948,0.73197 -0.20504,1.45733 -0.33292,2.17608c-4.21547,-0.67465 -11.40072,-1.46395 -19.57591,-1.50363c-3.6709,6.34525 -11.50876,10.48355 -23.76051,10.96639v0.06835c5.73233,0 11.02371,8.5985 11.02371,14.5513v11.90561c0,1.8145 1.09796,3.37326 2.66553,4.04791c20.19765,-6.68478 34.81509,-25.73376 34.81509,-48.14276c0,-27.96055 -22.74633,-50.70908 -50.70908,-50.70908c-27.96275,0 -50.70908,22.74853 -50.70908,50.70908c0,22.409 14.61744,41.45798 34.81509,48.14276z"></path></g><path d="M86,172c-47.49649,0 -86,-38.50351 -86,-86v0c0,-47.49649 38.50351,-86 86,-86v0c47.49649,0 86,38.50351 86,86v0c0,47.49649 -38.50351,86 -86,86z" fill="none"></path><path d="M86,168.56c-45.59663,0 -82.56,-36.96337 -82.56,-82.56v0c0,-45.59663 36.96337,-82.56 82.56,-82.56v0c45.59663,0 82.56,36.96337 82.56,82.56v0c0,45.59663 -36.96337,82.56 -82.56,82.56z" fill="none"></path><path d="M86,172c-47.49649,0 -86,-38.50351 -86,-86v0c0,-47.49649 38.50351,-86 86,-86v0c47.49649,0 86,38.50351 86,86v0c0,47.49649 -38.50351,86 -86,86z" fill="none"></path><path d="M86,168.56c-45.59663,0 -82.56,-36.96337 -82.56,-82.56v0c0,-45.59663 36.96337,-82.56 82.56,-82.56v0c45.59663,0 82.56,36.96337 82.56,82.56v0c0,45.59663 -36.96337,82.56 -82.56,82.56z" fill="none"></path><path d="M86,171.14c-47.02152,0 -85.14,-38.11848 -85.14,-85.14v0c0,-47.02152 38.11848,-85.14 85.14,-85.14h0c47.02152,0 85.14,38.11848 85.14,85.14v0c0,47.02152 -38.11848,85.14 -85.14,85.14z" fill="none"></path><path d="M86,167.7c-45.12166,0 -81.7,-36.57834 -81.7,-81.7v0c0,-45.12166 36.57834,-81.7 81.7,-81.7h0c45.12166,0 81.7,36.57834 81.7,81.7v0c0,45.12166 -36.57834,81.7 -81.7,81.7z" fill="none"></path><path d="M86,168.56c-45.59663,0 -82.56,-36.96337 -82.56,-82.56v0c0,-45.59663 36.96337,-82.56 82.56,-82.56v0c45.59663,0 82.56,36.96337 82.56,82.56v0c0,45.59663 -36.96337,82.56 -82.56,82.56z" fill="none"></path><path d="M86,165.12c-43.69677,0 -79.12,-35.42323 -79.12,-79.12v0c0,-43.69677 35.42323,-79.12 79.12,-79.12v0c43.69677,0 79.12,35.42323 79.12,79.12v0c0,43.69677 -35.42323,79.12 -79.12,79.12z" fill="none"></path><path d="M86,164.26c-43.2218,0 -78.26,-35.0382 -78.26,-78.26v0c0,-43.2218 35.0382,-78.26 78.26,-78.26h0c43.2218,0 78.26,35.0382 78.26,78.26v0c0,43.2218 -35.0382,78.26 -78.26,78.26z" fill="none"></path><path d="M86,160.82c-41.32194,0 -74.82,-33.49806 -74.82,-74.82v0c0,-41.32194 33.49806,-74.82 74.82,-74.82h0c41.32194,0 74.82,33.49806 74.82,74.82v0c0,41.32194 -33.49806,74.82 -74.82,74.82z" fill="none"></path><path d="M86,161.68c-41.79691,0 -75.68,-33.88309 -75.68,-75.68v0c0,-41.79691 33.88309,-75.68 75.68,-75.68v0c41.79691,0 75.68,33.88309 75.68,75.68v0c0,41.79691 -33.88309,75.68 -75.68,75.68z" fill="none"></path><path d="M86,158.24c-39.89705,0 -72.24,-32.34295 -72.24,-72.24v0c0,-39.89705 32.34295,-72.24 72.24,-72.24v0c39.89705,0 72.24,32.34295 72.24,72.24v0c0,39.89705 -32.34295,72.24 -72.24,72.24z" fill="none"></path><path d="M86,160.82c-41.32194,0 -74.82,-33.49806 -74.82,-74.82v0c0,-41.32194 33.49806,-74.82 74.82,-74.82v0c41.32194,0 74.82,33.49806 74.82,74.82v0c0,41.32194 -33.49806,74.82 -74.82,74.82z" fill="none"></path><path d="M86,157.38c-39.42209,0 -71.38,-31.95791 -71.38,-71.38v0c0,-39.42209 31.95791,-71.38 71.38,-71.38v0c39.42209,0 71.38,31.95791 71.38,71.38v0c0,39.42209 -31.95791,71.38 -71.38,71.38z" fill="none"></path><path d="M86,159.96c-40.84698,0 -73.96,-33.11302 -73.96,-73.96v0c0,-40.84698 33.11302,-73.96 73.96,-73.96h0c40.84698,0 73.96,33.11302 73.96,73.96v0c0,40.84698 -33.11302,73.96 -73.96,73.96z" fill="none"></path><path d="M86,156.52c-38.94712,0 -70.52,-31.57288 -70.52,-70.52v0c0,-38.94712 31.57288,-70.52 70.52,-70.52h0c38.94712,0 70.52,31.57288 70.52,70.52v0c0,38.94712 -31.57288,70.52 -70.52,70.52z" fill="none"></path><path d="M86,160.82c-41.32194,0 -74.82,-33.49806 -74.82,-74.82v0c0,-41.32194 33.49806,-74.82 74.82,-74.82v0c41.32194,0 74.82,33.49806 74.82,74.82v0c0,41.32194 -33.49806,74.82 -74.82,74.82z" fill="none"></path><path d="M86,157.38c-39.42209,0 -71.38,-31.95791 -71.38,-71.38v0c0,-39.42209 31.95791,-71.38 71.38,-71.38v0c39.42209,0 71.38,31.95791 71.38,71.38v0c0,39.42209 -31.95791,71.38 -71.38,71.38z" fill="none"></path><path d="M86,162.54c-42.27187,0 -76.54,-34.26813 -76.54,-76.54v0c0,-42.27187 34.26813,-76.54 76.54,-76.54h0c42.27187,0 76.54,34.26813 76.54,76.54v0c0,42.27187 -34.26813,76.54 -76.54,76.54z" fill="none"></path><path d="M86,159.1c-40.37202,0 -73.1,-32.72798 -73.1,-73.1v0c0,-40.37202 32.72798,-73.1 73.1,-73.1h0c40.37202,0 73.1,32.72798 73.1,73.1v0c0,40.37202 -32.72798,73.1 -73.1,73.1z" fill="none"></path><path d="M86,165.12c-43.69677,0 -79.12,-35.42323 -79.12,-79.12v0c0,-43.69677 35.42323,-79.12 79.12,-79.12v0c43.69677,0 79.12,35.42323 79.12,79.12v0c0,43.69677 -35.42323,79.12 -79.12,79.12z" fill="none"></path><path d="M86,161.68c-41.79691,0 -75.68,-33.88309 -75.68,-75.68v0c0,-41.79691 33.88309,-75.68 75.68,-75.68v0c41.79691,0 75.68,33.88309 75.68,75.68v0c0,41.79691 -33.88309,75.68 -75.68,75.68z" fill="none"></path><path d="M86,167.7c-45.12166,0 -81.7,-36.57834 -81.7,-81.7v0c0,-45.12166 36.57834,-81.7 81.7,-81.7h0c45.12166,0 81.7,36.57834 81.7,81.7v0c0,45.12166 -36.57834,81.7 -81.7,81.7z" fill="none"></path><path d="M86,164.26c-43.2218,0 -78.26,-35.0382 -78.26,-78.26v0c0,-43.2218 35.0382,-78.26 78.26,-78.26h0c43.2218,0 78.26,35.0382 78.26,78.26v0c0,43.2218 -35.0382,78.26 -78.26,78.26z" fill="none"></path><path d="M86,171.14c-47.02152,0 -85.14,-38.11848 -85.14,-85.14v0c0,-47.02152 38.11848,-85.14 85.14,-85.14h0c47.02152,0 85.14,38.11848 85.14,85.14v0c0,47.02152 -38.11848,85.14 -85.14,85.14z" fill="none"></path><path d="M86,167.7c-45.12166,0 -81.7,-36.57834 -81.7,-81.7v0c0,-45.12166 36.57834,-81.7 81.7,-81.7h0c45.12166,0 81.7,36.57834 81.7,81.7v0c0,45.12166 -36.57834,81.7 -81.7,81.7z" fill="none"></path><path d="M86,172c-47.49649,0 -86,-38.50351 -86,-86v0c0,-47.49649 38.50351,-86 86,-86v0c47.49649,0 86,38.50351 86,86v0c0,47.49649 -38.50351,86 -86,86z" fill="none"></path><path d="M86,168.56c-45.59663,0 -82.56,-36.96337 -82.56,-82.56v0c0,-45.59663 36.96337,-82.56 82.56,-82.56v0c45.59663,0 82.56,36.96337 82.56,82.56v0c0,45.59663 -36.96337,82.56 -82.56,82.56z" fill="none"></path><path d="M86,172c-47.49649,0 -86,-38.50351 -86,-86v0c0,-47.49649 38.50351,-86 86,-86v0c47.49649,0 86,38.50351 86,86v0c0,47.49649 -38.50351,86 -86,86z" fill="none"></path><path d="M86,168.56c-45.59663,0 -82.56,-36.96337 -82.56,-82.56v0c0,-45.59663 36.96337,-82.56 82.56,-82.56v0c45.59663,0 82.56,36.96337 82.56,82.56v0c0,45.59663 -36.96337,82.56 -82.56,82.56z" fill="none"></path><path d="M86,172c-47.49649,0 -86,-38.50351 -86,-86v0c0,-47.49649 38.50351,-86 86,-86v0c47.49649,0 86,38.50351 86,86v0c0,47.49649 -38.50351,86 -86,86z" fill="none"></path><path d="M86,168.56c-45.59663,0 -82.56,-36.96337 -82.56,-82.56v0c0,-45.59663 36.96337,-82.56 82.56,-82.56v0c45.59663,0 82.56,36.96337 82.56,82.56v0c0,45.59663 -36.96337,82.56 -82.56,82.56z" fill="none"></path><path d="M86,172c-47.49649,0 -86,-38.50351 -86,-86v0c0,-47.49649 38.50351,-86 86,-86v0c47.49649,0 86,38.50351 86,86v0c0,47.49649 -38.50351,86 -86,86z" fill="none"></path><path d="M86,168.56c-45.59663,0 -82.56,-36.96337 -82.56,-82.56v0c0,-45.59663 36.96337,-82.56 82.56,-82.56v0c45.59663,0 82.56,36.96337 82.56,82.56v0c0,45.59663 -36.96337,82.56 -82.56,82.56z" fill="none"></path><path d="M86,172c-47.49649,0 -86,-38.50351 -86,-86v0c0,-47.49649 38.50351,-86 86,-86v0c47.49649,0 86,38.50351 86,86v0c0,47.49649 -38.50351,86 -86,86z" fill="none"></path><path d="M86,168.56c-45.59663,0 -82.56,-36.96337 -82.56,-82.56v0c0,-45.59663 36.96337,-82.56 82.56,-82.56v0c45.59663,0 82.56,36.96337 82.56,82.56v0c0,45.59663 -36.96337,82.56 -82.56,82.56z" fill="none"></path><path d="M86,172c-47.49649,0 -86,-38.50351 -86,-86v0c0,-47.49649 38.50351,-86 86,-86v0c47.49649,0 86,38.50351 86,86v0c0,47.49649 -38.50351,86 -86,86z" fill="none"></path><path d="M86,168.56c-45.59663,0 -82.56,-36.96337 -82.56,-82.56v0c0,-45.59663 36.96337,-82.56 82.56,-82.56v0c45.59663,0 82.56,36.96337 82.56,82.56v0c0,45.59663 -36.96337,82.56 -82.56,82.56z" fill="none"></path><path d="M86,172c-47.49649,0 -86,-38.50351 -86,-86v0c0,-47.49649 38.50351,-86 86,-86v0c47.49649,0 86,38.50351 86,86v0c0,47.49649 -38.50351,86 -86,86z" fill="none"></path><path d="M86,168.56c-45.59663,0 -82.56,-36.96337 -82.56,-82.56v0c0,-45.59663 36.96337,-82.56 82.56,-82.56v0c45.59663,0 82.56,36.96337 82.56,82.56v0c0,45.59663 -36.96337,82.56 -82.56,82.56z" fill="none"></path><path d="M86,172c-47.49649,0 -86,-38.50351 -86,-86v0c0,-47.49649 38.50351,-86 86,-86v0c47.49649,0 86,38.50351 86,86v0c0,47.49649 -38.50351,86 -86,86z" fill="none"></path><path d="M86,168.56c-45.59663,0 -82.56,-36.96337 -82.56,-82.56v0c0,-45.59663 36.96337,-82.56 82.56,-82.56v0c45.59663,0 82.56,36.96337 82.56,82.56v0c0,45.59663 -36.96337,82.56 -82.56,82.56z" fill="none"></path><path d="M86,172c-47.49649,0 -86,-38.50351 -86,-86v0c0,-47.49649 38.50351,-86 86,-86v0c47.49649,0 86,38.50351 86,86v0c0,47.49649 -38.50351,86 -86,86z" fill="none"></path><path d="M86,168.56c-45.59663,0 -82.56,-36.96337 -82.56,-82.56v0c0,-45.59663 36.96337,-82.56 82.56,-82.56v0c45.59663,0 82.56,36.96337 82.56,82.56v0c0,45.59663 -36.96337,82.56 -82.56,82.56z" fill="none"></path><path d="M86,172c-47.49649,0 -86,-38.50351 -86,-86v0c0,-47.49649 38.50351,-86 86,-86v0c47.49649,0 86,38.50351 86,86v0c0,47.49649 -38.50351,86 -86,86z" fill="none"></path><path d="M86,168.56c-45.59663,0 -82.56,-36.96337 -82.56,-82.56v0c0,-45.59663 36.96337,-82.56 82.56,-82.56v0c45.59663,0 82.56,36.96337 82.56,82.56v0c0,45.59663 -36.96337,82.56 -82.56,82.56z" fill="none"></path><path d="M86,172c-47.49649,0 -86,-38.50351 -86,-86v0c0,-47.49649 38.50351,-86 86,-86v0c47.49649,0 86,38.50351 86,86v0c0,47.49649 -38.50351,86 -86,86z" fill="none"></path><path d="M86,168.56c-45.59663,0 -82.56,-36.96337 -82.56,-82.56v0c0,-45.59663 36.96337,-82.56 82.56,-82.56v0c45.59663,0 82.56,36.96337 82.56,82.56v0c0,45.59663 -36.96337,82.56 -82.56,82.56z" fill="none"></path><path d="M86,172c-47.49649,0 -86,-38.50351 -86,-86v0c0,-47.49649 38.50351,-86 86,-86v0c47.49649,0 86,38.50351 86,86v0c0,47.49649 -38.50351,86 -86,86z" fill="none"></path><path d="M86,168.56c-45.59663,0 -82.56,-36.96337 -82.56,-82.56v0c0,-45.59663 36.96337,-82.56 82.56,-82.56v0c45.59663,0 82.56,36.96337 82.56,82.56v0c0,45.59663 -36.96337,82.56 -82.56,82.56z" fill="none"></path><path d="M86,172c-47.49649,0 -86,-38.50351 -86,-86v0c0,-47.49649 38.50351,-86 86,-86v0c47.49649,0 86,38.50351 86,86v0c0,47.49649 -38.50351,86 -86,86z" fill="none"></path><path d="M86,168.56c-45.59663,0 -82.56,-36.96337 -82.56,-82.56v0c0,-45.59663 36.96337,-82.56 82.56,-82.56v0c45.59663,0 82.56,36.96337 82.56,82.56v0c0,45.59663 -36.96337,82.56 -82.56,82.56z" fill="none"></path><path d="M86,172c-47.49649,0 -86,-38.50351 -86,-86v0c0,-47.49649 38.50351,-86 86,-86v0c47.49649,0 86,38.50351 86,86v0c0,47.49649 -38.50351,86 -86,86z" fill="none"></path><path d="M86,168.56c-45.59663,0 -82.56,-36.96337 -82.56,-82.56v0c0,-45.59663 36.96337,-82.56 82.56,-82.56v0c45.59663,0 82.56,36.96337 82.56,82.56v0c0,45.59663 -36.96337,82.56 -82.56,82.56z" fill="none"></path><path d="M86,172c-47.49649,0 -86,-38.50351 -86,-86v0c0,-47.49649 38.50351,-86 86,-86v0c47.49649,0 86,38.50351 86,86v0c0,47.49649 -38.50351,86 -86,86z" fill="none"></path><path d="M86,168.56c-45.59663,0 -82.56,-36.96337 -82.56,-82.56v0c0,-45.59663 36.96337,-82.56 82.56,-82.56v0c45.59663,0 82.56,36.96337 82.56,82.56v0c0,45.59663 -36.96337,82.56 -82.56,82.56z" fill="none"></path><path d="M86,172c-47.49649,0 -86,-38.50351 -86,-86v0c0,-47.49649 38.50351,-86 86,-86v0c47.49649,0 86,38.50351 86,86v0c0,47.49649 -38.50351,86 -86,86z" fill="none"></path><path d="M86,168.56c-45.59663,0 -82.56,-36.96337 -82.56,-82.56v0c0,-45.59663 36.96337,-82.56 82.56,-82.56v0c45.59663,0 82.56,36.96337 82.56,82.56v0c0,45.59663 -36.96337,82.56 -82.56,82.56z" fill="none"></path><path d="M86,172c-47.49649,0 -86,-38.50351 -86,-86v0c0,-47.49649 38.50351,-86 86,-86v0c47.49649,0 86,38.50351 86,86v0c0,47.49649 -38.50351,86 -86,86z" fill="none"></path><path d="M86,168.56c-45.59663,0 -82.56,-36.96337 -82.56,-82.56v0c0,-45.59663 36.96337,-82.56 82.56,-82.56v0c45.59663,0 82.56,36.96337 82.56,82.56v0c0,45.59663 -36.96337,82.56 -82.56,82.56z" fill="none"></path><path d="M86,172c-47.49649,0 -86,-38.50351 -86,-86v0c0,-47.49649 38.50351,-86 86,-86v0c47.49649,0 86,38.50351 86,86v0c0,47.49649 -38.50351,86 -86,86z" fill="none"></path><path d="M86,168.56c-45.59663,0 -82.56,-36.96337 -82.56,-82.56v0c0,-45.59663 36.96337,-82.56 82.56,-82.56v0c45.59663,0 82.56,36.96337 82.56,82.56v0c0,45.59663 -36.96337,82.56 -82.56,82.56z" fill="none"></path><path d="M86,172c-47.49649,0 -86,-38.50351 -86,-86v0c0,-47.49649 38.50351,-86 86,-86v0c47.49649,0 86,38.50351 86,86v0c0,47.49649 -38.50351,86 -86,86z" fill="none"></path><path d="M86,168.56c-45.59663,0 -82.56,-36.96337 -82.56,-82.56v0c0,-45.59663 36.96337,-82.56 82.56,-82.56v0c45.59663,0 82.56,36.96337 82.56,82.56v0c0,45.59663 -36.96337,82.56 -82.56,82.56z" fill="none"></path><path d="M86,172c-47.49649,0 -86,-38.50351 -86,-86v0c0,-47.49649 38.50351,-86 86,-86v0c47.49649,0 86,38.50351 86,86v0c0,47.49649 -38.50351,86 -86,86z" fill="none"></path><path d="M86,168.56c-45.59663,0 -82.56,-36.96337 -82.56,-82.56v0c0,-45.59663 36.96337,-82.56 82.56,-82.56v0c45.59663,0 82.56,36.96337 82.56,82.56v0c0,45.59663 -36.96337,82.56 -82.56,82.56z" fill="none"></path><path d="M86,172c-47.49649,0 -86,-38.50351 -86,-86v0c0,-47.49649 38.50351,-86 86,-86v0c47.49649,0 86,38.50351 86,86v0c0,47.49649 -38.50351,86 -86,86z" fill="none"></path><path d="M86,168.56c-45.59663,0 -82.56,-36.96337 -82.56,-82.56v0c0,-45.59663 36.96337,-82.56 82.56,-82.56v0c45.59663,0 82.56,36.96337 82.56,82.56v0c0,45.59663 -36.96337,82.56 -82.56,82.56z" fill="none"></path><path d="M86,172c-47.49649,0 -86,-38.50351 -86,-86v0c0,-47.49649 38.50351,-86 86,-86v0c47.49649,0 86,38.50351 86,86v0c0,47.49649 -38.50351,86 -86,86z" fill="none"></path><path d="M86,168.56c-45.59663,0 -82.56,-36.96337 -82.56,-82.56v0c0,-45.59663 36.96337,-82.56 82.56,-82.56v0c45.59663,0 82.56,36.96337 82.56,82.56v0c0,45.59663 -36.96337,82.56 -82.56,82.56z" fill="none"></path><path d="M86,172c-47.49649,0 -86,-38.50351 -86,-86v0c0,-47.49649 38.50351,-86 86,-86v0c47.49649,0 86,38.50351 86,86v0c0,47.49649 -38.50351,86 -86,86z" fill="none"></path><path d="M86,168.56c-45.59663,0 -82.56,-36.96337 -82.56,-82.56v0c0,-45.59663 36.96337,-82.56 82.56,-82.56v0c45.59663,0 82.56,36.96337 82.56,82.56v0c0,45.59663 -36.96337,82.56 -82.56,82.56z" fill="none"></path><path d="M86,172c-47.49649,0 -86,-38.50351 -86,-86v0c0,-47.49649 38.50351,-86 86,-86v0c47.49649,0 86,38.50351 86,86v0c0,47.49649 -38.50351,86 -86,86z" fill="none"></path><path d="M86,168.56c-45.59663,0 -82.56,-36.96337 -82.56,-82.56v0c0,-45.59663 36.96337,-82.56 82.56,-82.56v0c45.59663,0 82.56,36.96337 82.56,82.56v0c0,45.59663 -36.96337,82.56 -82.56,82.56z" fill="none"></path><path d="M86,172c-47.49649,0 -86,-38.50351 -86,-86v0c0,-47.49649 38.50351,-86 86,-86v0c47.49649,0 86,38.50351 86,86v0c0,47.49649 -38.50351,86 -86,86z" fill="none"></path><path d="M86,168.56c-45.59663,0 -82.56,-36.96337 -82.56,-82.56v0c0,-45.59663 36.96337,-82.56 82.56,-82.56v0c45.59663,0 82.56,36.96337 82.56,82.56v0c0,45.59663 -36.96337,82.56 -82.56,82.56z" fill="none"></path><path d="M86,172c-47.49649,0 -86,-38.50351 -86,-86v0c0,-47.49649 38.50351,-86 86,-86v0c47.49649,0 86,38.50351 86,86v0c0,47.49649 -38.50351,86 -86,86z" fill="none"></path><path d="M86,168.56c-45.59663,0 -82.56,-36.96337 -82.56,-82.56v0c0,-45.59663 36.96337,-82.56 82.56,-82.56v0c45.59663,0 82.56,36.96337 82.56,82.56v0c0,45.59663 -36.96337,82.56 -82.56,82.56z" fill="none"></path><path d="M86,172c-47.49649,0 -86,-38.50351 -86,-86v0c0,-47.49649 38.50351,-86 86,-86v0c47.49649,0 86,38.50351 86,86v0c0,47.49649 -38.50351,86 -86,86z" fill="none"></path><path d="M86,168.56c-45.59663,0 -82.56,-36.96337 -82.56,-82.56v0c0,-45.59663 36.96337,-82.56 82.56,-82.56v0c45.59663,0 82.56,36.96337 82.56,82.56v0c0,45.59663 -36.96337,82.56 -82.56,82.56z" fill="none"></path><path d="M86,172c-47.49649,0 -86,-38.50351 -86,-86v0c0,-47.49649 38.50351,-86 86,-86v0c47.49649,0 86,38.50351 86,86v0c0,47.49649 -38.50351,86 -86,86z" fill="none"></path><path d="M86,168.56c-45.59663,0 -82.56,-36.96337 -82.56,-82.56v0c0,-45.59663 36.96337,-82.56 82.56,-82.56v0c45.59663,0 82.56,36.96337 82.56,82.56v0c0,45.59663 -36.96337,82.56 -82.56,82.56z" fill="none"></path><path d="M86,172c-47.49649,0 -86,-38.50351 -86,-86v0c0,-47.49649 38.50351,-86 86,-86v0c47.49649,0 86,38.50351 86,86v0c0,47.49649 -38.50351,86 -86,86z" fill="none"></path><path d="M86,168.56c-45.59663,0 -82.56,-36.96337 -82.56,-82.56v0c0,-45.59663 36.96337,-82.56 82.56,-82.56v0c45.59663,0 82.56,36.96337 82.56,82.56v0c0,45.59663 -36.96337,82.56 -82.56,82.56z" fill="none"></path><path d="M86,172c-47.49649,0 -86,-38.50351 -86,-86v0c0,-47.49649 38.50351,-86 86,-86v0c47.49649,0 86,38.50351 86,86v0c0,47.49649 -38.50351,86 -86,86z" fill="none"></path><path d="M86,168.56c-45.59663,0 -82.56,-36.96337 -82.56,-82.56v0c0,-45.59663 36.96337,-82.56 82.56,-82.56v0c45.59663,0 82.56,36.96337 82.56,82.56v0c0,45.59663 -36.96337,82.56 -82.56,82.56z" fill="none"></path><path d="M86,172c-47.49649,0 -86,-38.50351 -86,-86v0c0,-47.49649 38.50351,-86 86,-86v0c47.49649,0 86,38.50351 86,86v0c0,47.49649 -38.50351,86 -86,86z" fill="none"></path><path d="M86,168.56c-45.59663,0 -82.56,-36.96337 -82.56,-82.56v0c0,-45.59663 36.96337,-82.56 82.56,-82.56v0c45.59663,0 82.56,36.96337 82.56,82.56v0c0,45.59663 -36.96337,82.56 -82.56,82.56z" fill="none"></path><path d="M86,172c-47.49649,0 -86,-38.50351 -86,-86v0c0,-47.49649 38.50351,-86 86,-86v0c47.49649,0 86,38.50351 86,86v0c0,47.49649 -38.50351,86 -86,86z" fill="none"></path><path d="M86,168.56c-45.59663,0 -82.56,-36.96337 -82.56,-82.56v0c0,-45.59663 36.96337,-82.56 82.56,-82.56v0c45.59663,0 82.56,36.96337 82.56,82.56v0c0,45.59663 -36.96337,82.56 -82.56,82.56z" fill="none"></path><path d="M86,172c-47.49649,0 -86,-38.50351 -86,-86v0c0,-47.49649 38.50351,-86 86,-86v0c47.49649,0 86,38.50351 86,86v0c0,47.49649 -38.50351,86 -86,86z" fill="none"></path><path d="M86,168.56c-45.59663,0 -82.56,-36.96337 -82.56,-82.56v0c0,-45.59663 36.96337,-82.56 82.56,-82.56v0c45.59663,0 82.56,36.96337 82.56,82.56v0c0,45.59663 -36.96337,82.56 -82.56,82.56z" fill="none"></path><path d="M86,172c-47.49649,0 -86,-38.50351 -86,-86v0c0,-47.49649 38.50351,-86 86,-86v0c47.49649,0 86,38.50351 86,86v0c0,47.49649 -38.50351,86 -86,86z" fill="none"></path><path d="M86,168.56c-45.59663,0 -82.56,-36.96337 -82.56,-82.56v0c0,-45.59663 36.96337,-82.56 82.56,-82.56v0c45.59663,0 82.56,36.96337 82.56,82.56v0c0,45.59663 -36.96337,82.56 -82.56,82.56z" fill="none"></path><path d="M86,172c-47.49649,0 -86,-38.50351 -86,-86v0c0,-47.49649 38.50351,-86 86,-86v0c47.49649,0 86,38.50351 86,86v0c0,47.49649 -38.50351,86 -86,86z" fill="none"></path><path d="M86,168.56c-45.59663,0 -82.56,-36.96337 -82.56,-82.56v0c0,-45.59663 36.96337,-82.56 82.56,-82.56v0c45.59663,0 82.56,36.96337 82.56,82.56v0c0,45.59663 -36.96337,82.56 -82.56,82.56z" fill="none"></path></g></svg>