<svg xmlns="http://www.w3.org/2000/svg" x="0px" y="0px"
width="96" height="96"
viewBox="0 0 172 172"
style=" fill:#000000;"><g transform=""><g fill="none" fill-rule="nonzero" stroke="none" stroke-width="1" stroke-linecap="butt" stroke-linejoin="miter" stroke-miterlimit="10" stroke-dasharray="" stroke-dashoffset="0" font-family="none" font-weight="none" font-size="none" text-anchor="none" style="mix-blend-mode: normal"><path d="M0,172v-172h172v172z" fill="none"></path><path d="M0,86c0,-47.49649 38.50351,-86 86,-86c47.49649,0 86,38.50351 86,86c0,47.49649 -38.50351,86 -86,86c-47.49649,0 -86,-38.50351 -86,-86zM86,168.56c45.59663,0 82.56,-36.96337 82.56,-82.56c0,-45.59663 -36.96337,-82.56 -82.56,-82.56c-45.59663,0 -82.56,36.96337 -82.56,82.56c0,45.59663 36.96337,82.56 82.56,82.56z" fill="#0081ca"></path><g><path d="M22.53917,34.4l16.555,11.03667v55.18333l-16.555,-11.03667z" fill="#29b6f6"></path><path d="M149.46083,75.7875l-16.555,11.03667v35.86917l16.555,-11.03667z" fill="#0288d1"></path><path d="M149.46083,37.15917l-16.555,11.03667v19.31417l16.555,-11.03667z" fill="#0288d1"></path><path d="M116.35083,34.4l-16.555,11.03667v55.18333l16.555,-11.03667z" fill="#0288d1"></path><path d="M22.53917,53.71417l46.90583,30.35083v-19.31417l-46.90583,-30.35083z" fill="#29b6f6"></path><path d="M116.35083,53.71417l-46.90583,30.35083v-19.31417l46.90583,-30.35083z" fill="#0288d1"></path><path d="M116.35083,92.3425l-46.90583,30.35083v-19.31417l46.90583,-30.35083z" fill="#0288d1"></path><path d="M149.46083,114.41583l-46.90583,30.35083v-19.31417l46.90583,-30.35083z" fill="#0288d1"></path><path d="M102.555,124.8041l-33.11,-21.42493v19.31417l33.11,21.42493z" fill="#29b6f6"></path></g><path d="M86,172c-47.49649,0 -86,-38.50351 -86,-86v0c0,-47.49649 38.50351,-86 86,-86v0c47.49649,0 86,38.50351 86,86v0c0,47.49649 -38.50351,86 -86,86z" fill="none"></path><path d="M86,168.56c-45.59663,0 -82.56,-36.96337 -82.56,-82.56v0c0,-45.59663 36.96337,-82.56 82.56,-82.56v0c45.59663,0 82.56,36.96337 82.56,82.56v0c0,45.59663 -36.96337,82.56 -82.56,82.56z" fill="none"></path><path d="M86,172c-47.49649,0 -86,-38.50351 -86,-86v0c0,-47.49649 38.50351,-86 86,-86v0c47.49649,0 86,38.50351 86,86v0c0,47.49649 -38.50351,86 -86,86z" fill="none"></path><path d="M86,168.56c-45.59663,0 -82.56,-36.96337 -82.56,-82.56v0c0,-45.59663 36.96337,-82.56 82.56,-82.56v0c45.59663,0 82.56,36.96337 82.56,82.56v0c0,45.59663 -36.96337,82.56 -82.56,82.56z" fill="none"></path><path d="" fill="none"></path><path d="M86,172c-47.49649,0 -86,-38.50351 -86,-86v0c0,-47.49649 38.50351,-86 86,-86h0c47.49649,0 86,38.50351 86,86v0c0,47.49649 -38.50351,86 -86,86z" fill="none"></path><path d="M86,168.56c-45.59663,0 -82.56,-36.96337 -82.56,-82.56v0c0,-45.59663 36.96337,-82.56 82.56,-82.56h0c45.59663,0 82.56,36.96337 82.56,82.56v0c0,45.59663 -36.96337,82.56 -82.56,82.56z" fill="none"></path><path d="M86,172c-47.49649,0 -86,-38.50351 -86,-86v0c0,-47.49649 38.50351,-86 86,-86h0c47.49649,0 86,38.50351 86,86v0c0,47.49649 -38.50351,86 -86,86z" fill="none"></path><path d="M86,168.56c-45.59663,0 -82.56,-36.96337 -82.56,-82.56v0c0,-45.59663 36.96337,-82.56 82.56,-82.56h0c45.59663,0 82.56,36.96337 82.56,82.56v0c0,45.59663 -36.96337,82.56 -82.56,82.56z" fill="none"></path><path d="M86,172c-47.49649,0 -86,-38.50351 -86,-86v0c0,-47.49649 38.50351,-86 86,-86h0c47.49649,0 86,38.50351 86,86v0c0,47.49649 -38.50351,86 -86,86z" fill="none"></path><path d="M86,168.56c-45.59663,0 -82.56,-36.96337 -82.56,-82.56v0c0,-45.59663 36.96337,-82.56 82.56,-82.56h0c45.59663,0 82.56,36.96337 82.56,82.56v0c0,45.59663 -36.96337,82.56 -82.56,82.56z" fill="none"></path><path d="M86,172c-47.49649,0 -86,-38.50351 -86,-86v0c0,-47.49649 38.50351,-86 86,-86h0c47.49649,0 86,38.50351 86,86v0c0,47.49649 -38.50351,86 -86,86z" fill="none"></path><path d="M86,168.56c-45.59663,0 -82.56,-36.96337 -82.56,-82.56v0c0,-45.59663 36.96337,-82.56 82.56,-82.56h0c45.59663,0 82.56,36.96337 82.56,82.56v0c0,45.59663 -36.96337,82.56 -82.56,82.56z" fill="none"></path><path d="M86,172c-47.49649,0 -86,-38.50351 -86,-86v0c0,-47.49649 38.50351,-86 86,-86h0c47.49649,0 86,38.50351 86,86v0c0,47.49649 -38.50351,86 -86,86z" fill="none"></path><path d="M86,168.56c-45.59663,0 -82.56,-36.96337 -82.56,-82.56v0c0,-45.59663 36.96337,-82.56 82.56,-82.56h0c45.59663,0 82.56,36.96337 82.56,82.56v0c0,45.59663 -36.96337,82.56 -82.56,82.56z" fill="none"></path></g></g></svg>