<svg xmlns="http://www.w3.org/2000/svg" x="0px" y="0px"
width="96" height="96"
viewBox="0 0 172 172"
style=" fill:#000000;"><g fill="none" fill-rule="nonzero" stroke="none" stroke-width="1" stroke-linecap="butt" stroke-linejoin="miter" stroke-miterlimit="10" stroke-dasharray="" stroke-dashoffset="0" font-family="none" font-weight="none" font-size="none" text-anchor="none" style="mix-blend-mode: normal"><path d="M0,172v-172h172v172z" fill="none"></path><path d="M0,86c0,-47.49649 38.50351,-86 86,-86c47.49649,0 86,38.50351 86,86c0,47.49649 -38.50351,86 -86,86c-47.49649,0 -86,-38.50351 -86,-86zM86,168.56c45.59663,0 82.56,-36.96337 82.56,-82.56c0,-45.59663 -36.96337,-82.56 -82.56,-82.56c-45.59663,0 -82.56,36.96337 -82.56,82.56c0,45.59663 36.96337,82.56 82.56,82.56z" fill="#5d4037"></path><g><path d="M137.6,66.79333c0,58.76667 -51.6,76.54 -51.6,76.54c0,0 -51.6,-17.77333 -51.6,-76.54c0,-7.16667 0.57333,-13.18667 1.14667,-18.06c0.86,-7.16667 5.73333,-12.9 12.61333,-14.62c8.88667,-2.58 22.93333,-5.44667 37.84,-5.44667c14.90667,0 28.95333,2.86667 38.12667,5.44667c6.88,1.72 11.75333,7.74 12.61333,14.62c0.28667,4.87333 0.86,11.18 0.86,18.06z" fill="#5d4037"></path><path d="M86,37.26667c14.04667,0 27.23333,2.86667 35.83333,5.16c3.44,0.86 5.73333,3.72667 6.30667,7.45333c0.57333,5.44667 0.86,11.18 0.86,16.91333c0,44.72 -32.96667,62.78 -43,67.08c-10.03333,-4.58667 -43,-22.64667 -43,-67.08c0,-5.73333 0.28667,-11.46667 0.86,-16.91333c0.28667,-3.72667 2.86667,-6.59333 6.30667,-7.45333c8.6,-2.29333 21.78667,-5.16 35.83333,-5.16M86,28.66667c-14.90667,0 -28.95333,2.86667 -38.12667,5.44667c-6.59333,1.72 -11.75333,7.74 -12.32667,14.62c-0.57333,4.87333 -1.14667,11.18 -1.14667,18.06c0,58.76667 51.6,76.54 51.6,76.54c0,0 51.6,-17.77333 51.6,-76.54c0,-7.16667 -0.57333,-13.18667 -1.14667,-18.06c-0.86,-7.16667 -5.73333,-12.9 -12.61333,-14.62c-8.88667,-2.58 -22.93333,-5.44667 -37.84,-5.44667z" fill="#4caf50"></path><path d="M83.13333,97.46667h5.73333v22.93333h-5.73333z" fill="#dcedc8"></path><path d="M86,45.86667c0,0 -17.2,14.33333 -17.2,37.26667c0,14.90667 9.46,24.36667 14.33333,28.66667l2.86667,-8.6l2.86667,8.6c4.87333,-4.3 14.33333,-13.76 14.33333,-28.66667c0,-22.93333 -17.2,-37.26667 -17.2,-37.26667z" fill="#4caf50"></path><path d="M86,45.86667c0,0 -17.2,14.33333 -17.2,37.26667c0,14.90667 9.46,24.36667 14.33333,28.66667l2.86667,-8.6z" fill="#81c784"></path></g><path d="M86,172c-47.49649,0 -86,-38.50351 -86,-86v0c0,-47.49649 38.50351,-86 86,-86v0c47.49649,0 86,38.50351 86,86v0c0,47.49649 -38.50351,86 -86,86z" fill="none"></path><path d="M86,168.56c-45.59663,0 -82.56,-36.96337 -82.56,-82.56v0c0,-45.59663 36.96337,-82.56 82.56,-82.56v0c45.59663,0 82.56,36.96337 82.56,82.56v0c0,45.59663 -36.96337,82.56 -82.56,82.56z" fill="none"></path><path d="M86,172c-47.49649,0 -86,-38.50351 -86,-86v0c0,-47.49649 38.50351,-86 86,-86v0c47.49649,0 86,38.50351 86,86v0c0,47.49649 -38.50351,86 -86,86z" fill="none"></path><path d="M86,168.56c-45.59663,0 -82.56,-36.96337 -82.56,-82.56v0c0,-45.59663 36.96337,-82.56 82.56,-82.56v0c45.59663,0 82.56,36.96337 82.56,82.56v0c0,45.59663 -36.96337,82.56 -82.56,82.56z" fill="none"></path><path d="M86,172c-47.49649,0 -86,-38.50351 -86,-86v0c0,-47.49649 38.50351,-86 86,-86v0c47.49649,0 86,38.50351 86,86v0c0,47.49649 -38.50351,86 -86,86z" fill="none"></path><path d="M86,168.56c-45.59663,0 -82.56,-36.96337 -82.56,-82.56v0c0,-45.59663 36.96337,-82.56 82.56,-82.56v0c45.59663,0 82.56,36.96337 82.56,82.56v0c0,45.59663 -36.96337,82.56 -82.56,82.56z" fill="none"></path></g></svg>