<svg xmlns="http://www.w3.org/2000/svg" x="0px" y="0px"
width="80" height="80"
viewBox="0 0 172 172"
style=" fill:#000000;"><g fill="none" fill-rule="nonzero" stroke="none" stroke-width="1" stroke-linecap="butt" stroke-linejoin="miter" stroke-miterlimit="10" stroke-dasharray="" stroke-dashoffset="0" font-family="none" font-weight="none" font-size="none" text-anchor="none" style="mix-blend-mode: normal"><path d="M0,172v-172h172v172z" fill="none"></path><path d="M0,86c0,-47.49649 38.50351,-86 86,-86c47.49649,0 86,38.50351 86,86c0,47.49649 -38.50351,86 -86,86c-47.49649,0 -86,-38.50351 -86,-86zM86,168.56c45.59663,0 82.56,-36.96337 82.56,-82.56c0,-45.59663 -36.96337,-82.56 -82.56,-82.56c-45.59663,0 -82.56,36.96337 -82.56,82.56c0,45.59663 36.96337,82.56 82.56,82.56z" fill="#34495e"></path><g><path d="M41.28,147.06c-3.3196,0 -6.02,-2.7004 -6.02,-6.02v-30.96c0,-1.7114 0.7568,-3.35744 2.07948,-4.51328l0.74132,-0.64672l-0.74132,-0.64672c-1.32268,-1.15584 -2.07948,-2.80188 -2.07948,-4.51328v-27.52c0,-1.7114 0.7568,-3.35744 2.07948,-4.51328l0.74132,-0.64672l-0.74132,-0.64672c-1.32268,-1.15584 -2.07948,-2.80188 -2.07948,-4.51328v-30.96c0,-3.3196 2.7004,-6.02 6.02,-6.02h89.44c3.3196,0 6.02,2.7004 6.02,6.02v30.96c0,1.7114 -0.7568,3.35744 -2.07948,4.51328l-0.74132,0.64672l0.74132,0.64672c1.32268,1.15584 2.07948,2.80188 2.07948,4.51328v27.52c0,1.7114 -0.7568,3.35744 -2.07948,4.51328l-0.74132,0.64672l0.74132,0.64672c1.32268,1.15584 2.07948,2.80188 2.07948,4.51328v30.96c0,3.3196 -2.7004,6.02 -6.02,6.02z" fill="#dcd5f2"></path><path d="M130.72,25.8c2.84488,0 5.16,2.31512 5.16,5.16v30.96c0,1.48608 -0.63468,2.85864 -1.78536,3.86484l-1.48092,1.29516l1.48092,1.29516c1.15068,1.0062 1.78536,2.37876 1.78536,3.86484v27.52c0,1.48608 -0.63468,2.85864 -1.78536,3.86484l-1.48092,1.29516l1.48092,1.29516c1.15068,1.0062 1.78536,2.37876 1.78536,3.86484v30.96c0,2.84488 -2.31512,5.16 -5.16,5.16h-89.44c-2.84488,0 -5.16,-2.31512 -5.16,-5.16v-30.96c0,-1.48608 0.63468,-2.85864 1.78536,-3.86484l1.48092,-1.29516l-1.48092,-1.29516c-1.15068,-1.0062 -1.78536,-2.37876 -1.78536,-3.86484v-27.52c0,-1.48608 0.63468,-2.85864 1.78536,-3.86484l1.48092,-1.29516l-1.48092,-1.29516c-1.15068,-1.0062 -1.78536,-2.37876 -1.78536,-3.86484v-30.96c0,-2.84488 2.31512,-5.16 5.16,-5.16h89.44M130.72,24.08h-89.44c-3.79948,0 -6.88,3.08052 -6.88,6.88v30.96c0,2.06744 0.93052,3.89924 2.3736,5.16c-1.44308,1.26076 -2.3736,3.09256 -2.3736,5.16v27.52c0,2.06744 0.93052,3.89924 2.3736,5.16c-1.44308,1.26076 -2.3736,3.09256 -2.3736,5.16v30.96c0,3.79948 3.08052,6.88 6.88,6.88h89.44c3.79948,0 6.88,-3.08052 6.88,-6.88v-30.96c0,-2.06744 -0.93052,-3.89924 -2.3736,-5.16c1.44308,-1.26076 2.3736,-3.09256 2.3736,-5.16v-27.52c0,-2.06744 -0.93052,-3.89924 -2.3736,-5.16c1.44308,-1.26076 2.3736,-3.09256 2.3736,-5.16v-30.96c0,-3.79948 -3.08052,-6.88 -6.88,-6.88z" fill="#8b75a1"></path><path d="M59.42772,90.02652c-0.15136,-2.42176 -0.30444,-5.71556 -0.26488,-8.44004h-0.07568c-0.45408,2.72448 -1.1352,5.8652 -1.62712,7.8346l-2.23256,9.12116h-3.48128l-2.11904,-8.9698c-0.49192,-2.04336 -1.17304,-5.22192 -1.58928,-7.98596h-0.07568c-0.07568,2.76232 -0.26488,5.98044 -0.38012,8.51572l-0.45408,8.85456h-4.23808l1.81632,-25.5076h5.26148l2.04336,9.23468c0.68112,3.2164 1.3244,6.05612 1.77848,8.93024h0.1118c0.3784,-2.838 0.946,-5.71384 1.58928,-8.93024l2.04336,-9.23468h5.22192l1.55144,25.5076h-4.42728zM72.17636,80.44956l1.81804,9.65092c0.22704,1.09736 0.3784,2.0812 0.52976,3.10288h0.07568c0.15136,-0.946 0.30272,-2.00552 0.45408,-3.0272l1.51532,-9.7266h4.88136l-3.784,14.30524c-0.90816,3.48128 -2.11904,7.07608 -4.12456,9.42388c-1.58928,1.85416 -3.44344,2.7262 -4.20024,2.91368l-1.5136,-4.27592c0.83248,-0.30272 1.7028,-0.83248 2.4596,-1.5136c0.68112,-0.64328 1.21088,-1.43792 1.55144,-2.23256c0.15136,-0.30444 0.26488,-0.53148 0.26488,-0.79636c0,-0.22704 -0.07568,-0.45408 -0.15136,-0.68112l-5.11012,-17.14496h5.33372zM84.05812,93.8862c1.02168,0.5676 2.80016,0.98384 4.20024,0.98384c2.30824,0 3.48128,-1.21088 3.48128,-2.87756c0,-1.85416 -1.1352,-2.76232 -3.2938,-4.1624c-3.47956,-2.11904 -4.80568,-4.8074 -4.80568,-7.11564c0,-4.08672 2.72448,-7.49232 8.0238,-7.49232c1.7028,0 3.29208,0.45408 4.01104,0.90816l-0.79464,4.27592c-0.71896,-0.4558 -1.81804,-0.87204 -3.2164,-0.87204c-2.11904,0 -3.14072,1.28656 -3.14072,2.6488c0,1.51532 0.75508,2.30996 3.47956,3.97492c3.4056,2.04336 4.6182,4.6182 4.6182,7.30484c0,4.65432 -3.44344,7.71936 -8.4022,7.71936c-2.04336,0 -4.01104,-0.52976 -4.88136,-1.02168zM114.97512,103.11916c-2.15688,-0.90644 -4.6182,-2.193 -6.54804,-3.32992c-0.5676,-0.30444 -0.98212,-0.53148 -1.17304,-0.53148c-4.99488,0 -8.0238,-4.80568 -8.0238,-13.1322c0,-6.84904 2.76232,-12.98084 8.47788,-12.98084c6.16964,0 7.8346,6.77336 7.8346,12.60244c0,6.31928 -1.39836,10.2168 -3.82184,11.54292v0.18748c1.6254,0.71896 3.40388,1.28656 4.99488,1.89372zM110.39648,85.97592c0,-4.76784 -0.71896,-8.51572 -2.91368,-8.51572c-2.0812,0 -3.14072,3.82356 -3.10288,8.62924c-0.0774,5.1858 0.87032,8.85628 3.14072,8.85628c2.00552,0 2.87584,-3.6722 2.87584,-8.9698zM119.62772,73.44916h4.95704v21.30736h6.5102v4.20024h-11.46724z" fill="#34495e"></path></g><path d="M86,172c-47.49649,0 -86,-38.50351 -86,-86v0c0,-47.49649 38.50351,-86 86,-86v0c47.49649,0 86,38.50351 86,86v0c0,47.49649 -38.50351,86 -86,86z" fill="none"></path><path d="M86,168.56c-45.59663,0 -82.56,-36.96337 -82.56,-82.56v0c0,-45.59663 36.96337,-82.56 82.56,-82.56v0c45.59663,0 82.56,36.96337 82.56,82.56v0c0,45.59663 -36.96337,82.56 -82.56,82.56z" fill="none"></path><path d="M86,172c-47.49649,0 -86,-38.50351 -86,-86v0c0,-47.49649 38.50351,-86 86,-86v0c47.49649,0 86,38.50351 86,86v0c0,47.49649 -38.50351,86 -86,86z" fill="none"></path><path d="M86,168.56c-45.59663,0 -82.56,-36.96337 -82.56,-82.56v0c0,-45.59663 36.96337,-82.56 82.56,-82.56v0c45.59663,0 82.56,36.96337 82.56,82.56v0c0,45.59663 -36.96337,82.56 -82.56,82.56z" fill="none"></path></g></svg>