<svg xmlns="http://www.w3.org/2000/svg" x="0px" y="0px"
width="96" height="96"
viewBox="0 0 172 172"
style=" fill:#000000;"><g fill="none" fill-rule="nonzero" stroke="none" stroke-width="1" stroke-linecap="butt" stroke-linejoin="miter" stroke-miterlimit="10" stroke-dasharray="" stroke-dashoffset="0" font-family="none" font-weight="none" font-size="none" text-anchor="none" style="mix-blend-mode: normal"><path d="M0,172v-172h172v172z" fill="none"></path><path d="M0,86c0,-47.49649 38.50351,-86 86,-86c47.49649,0 86,38.50351 86,86c0,47.49649 -38.50351,86 -86,86c-47.49649,0 -86,-38.50351 -86,-86zM86,168.56c45.59663,0 82.56,-36.96337 82.56,-82.56c0,-45.59663 -36.96337,-82.56 -82.56,-82.56c-45.59663,0 -82.56,36.96337 -82.56,82.56c0,45.59663 36.96337,82.56 82.56,82.56z" fill="#512da8"></path><path d="M86,172c-47.49649,0 -86,-38.50351 -86,-86v0c0,-47.49649 38.50351,-86 86,-86v0c47.49649,0 86,38.50351 86,86v0c0,47.49649 -38.50351,86 -86,86z" fill="none"></path><path d="M86,168.56c-45.59663,0 -82.56,-36.96337 -82.56,-82.56v0c0,-45.59663 36.96337,-82.56 82.56,-82.56v0c45.59663,0 82.56,36.96337 82.56,82.56v0c0,45.59663 -36.96337,82.56 -82.56,82.56z" fill="none"></path><path d="M86,172c-47.49649,0 -86,-38.50351 -86,-86v0c0,-47.49649 38.50351,-86 86,-86v0c47.49649,0 86,38.50351 86,86v0c0,47.49649 -38.50351,86 -86,86z" fill="none"></path><path d="M86,168.56c-45.59663,0 -82.56,-36.96337 -82.56,-82.56v0c0,-45.59663 36.96337,-82.56 82.56,-82.56v0c45.59663,0 82.56,36.96337 82.56,82.56v0c0,45.59663 -36.96337,82.56 -82.56,82.56z" fill="none"></path><g><path d="M134.73333,28.66667h-97.46667c-3.15333,0 -5.73333,2.58 -5.73333,5.73333v22.93333c0,3.15333 2.58,5.73333 5.73333,5.73333h97.46667c3.15333,0 5.73333,-2.58 5.73333,-5.73333v-22.93333c0,-3.15333 -2.58,-5.73333 -5.73333,-5.73333M134.73333,68.8h-97.46667c-3.15333,0 -5.73333,2.58 -5.73333,5.73333v22.93333c0,3.15333 2.58,5.73333 5.73333,5.73333h97.46667c3.15333,0 5.73333,-2.58 5.73333,-5.73333v-22.93333c0,-3.15333 -2.58,-5.73333 -5.73333,-5.73333M134.73333,108.93333h-97.46667c-3.15333,0 -5.73333,2.58 -5.73333,5.73333v22.93333c0,3.15333 2.58,5.73333 5.73333,5.73333h97.46667c3.15333,0 5.73333,-2.58 5.73333,-5.73333v-22.93333c0,-3.15333 -2.58,-5.73333 -5.73333,-5.73333" fill="#d1c4e9"></path><path d="M86,40.13333c-25.33146,0 -45.86667,20.53521 -45.86667,45.86667c0,25.33146 20.53521,45.86667 45.86667,45.86667c25.33146,0 45.86667,-20.53521 45.86667,-45.86667c0,-25.33146 -20.53521,-45.86667 -45.86667,-45.86667z" fill="#d1c4e9"></path><path d="M90.58667,93.16667c0,-1.14667 -0.28667,-2.00667 -0.86,-2.58c-0.57333,-0.57333 -1.72,-1.14667 -3.15333,-1.72c-2.58,-1.14667 -4.58667,-2.29333 -5.73333,-3.72667c-1.14667,-1.43333 -1.72,-3.15333 -1.72,-5.16c0,-2.29333 0.86,-4.3 2.29333,-5.73333c1.72,-1.43333 3.72667,-2.29333 6.02,-2.29333c1.72,0 3.15333,0.28667 4.3,1.14667c1.43333,0.86 2.29333,1.72 2.86667,3.15333c0.57333,1.43333 1.14667,2.86667 1.14667,4.58667h-5.44667c0,-1.43333 -0.28667,-2.29333 -0.86,-3.15333c-0.57333,-0.57333 -1.43333,-1.14667 -2.29333,-1.14667c-0.86,0 -1.72,0.28667 -2.29333,0.86c-0.57333,0.57333 -0.86,1.43333 -0.86,2.29333c0,0.86 0.28667,1.43333 0.86,2.00667c0.57333,0.57333 1.72,1.14667 3.15333,2.00667c2.58,0.86 4.58667,2.29333 5.73333,3.72667c1.14667,1.43333 1.72,3.44 1.72,5.44667c0,2.58 -0.86,4.3 -2.29333,5.73333c-1.43333,1.43333 -3.44,2.00667 -6.02,2.00667c-1.72,0 -3.44,-0.28667 -4.87333,-1.14667c-1.43333,-0.86 -2.58,-1.72 -3.44,-3.15333c-0.86,-1.43333 -1.14667,-3.15333 -1.14667,-4.87333h5.44667c0,1.72 0.28667,2.86667 0.86,3.72667c0.57333,0.86 1.72,1.14667 2.86667,1.14667c2.58,0 3.72667,-1.14667 3.72667,-3.15333zM118.68,88.58c0,4.58667 -1.14667,8.02667 -3.72667,10.32l3.72667,3.44l-3.44,3.44l-4.87333,-4.87333h-1.43333c-3.15333,0 -5.44667,-1.14667 -7.16667,-3.15333c-1.72,-2.29333 -2.58,-5.16 -2.58,-9.17333v-4.58667c0,-4.01333 0.86,-6.88 2.58,-9.17333c1.72,-2.29333 4.01333,-3.44 7.16667,-3.44c2.86667,0 5.44667,1.14667 7.16667,3.15333c1.72,2.00667 2.58,5.16 2.58,8.88667zM113.23333,83.99333c0,-2.58 -0.28667,-4.58667 -1.14667,-5.73333c-0.57333,-1.14667 -1.72,-2.00667 -3.15333,-2.00667c-1.43333,0 -2.58,0.57333 -3.15333,1.72c-0.57333,1.14667 -1.14667,3.15333 -1.14667,5.44667v4.58667c0,2.58 0.28667,4.58667 1.14667,5.73333c0.57333,1.14667 1.72,1.72 3.15333,1.72c1.43333,0 2.58,-0.57333 3.15333,-1.72c0.57333,-1.14667 1.14667,-3.15333 1.14667,-5.73333zM128.14,95.74667h9.46v4.87333h-14.90667v-28.66667h5.44667zM41.56667,71.66667l5.16,20.64l4.87333,-20.64h7.16667v28.66667h-5.44667v-7.74l0.57333,-12.04l-5.44667,19.78h-3.72667l-5.44667,-19.49333l0.57333,12.04v7.45333h-5.44667v-28.66667zM69.66,97.46667l2.58,-11.46667h5.73333l-6.59333,23.50667c-0.86,3.44 -2.86667,5.16 -5.44667,5.16c-0.57333,0 -1.43333,0 -2.29333,-0.28667v-4.3h0.57333c0.86,0 1.43333,-0.28667 1.72,-0.57333c0.28667,-0.28667 0.86,-0.86 0.86,-1.72l0.28667,-1.43333l-5.73333,-20.64h5.73333z" fill="#512da8"></path></g><path d="M86,172c-47.49649,0 -86,-38.50351 -86,-86v0c0,-47.49649 38.50351,-86 86,-86v0c47.49649,0 86,38.50351 86,86v0c0,47.49649 -38.50351,86 -86,86z" fill="none"></path><path d="M86,168.56c-45.59663,0 -82.56,-36.96337 -82.56,-82.56v0c0,-45.59663 36.96337,-82.56 82.56,-82.56v0c45.59663,0 82.56,36.96337 82.56,82.56v0c0,45.59663 -36.96337,82.56 -82.56,82.56z" fill="none"></path><path d="M86,172c-47.49649,0 -86,-38.50351 -86,-86v0c0,-47.49649 38.50351,-86 86,-86v0c47.49649,0 86,38.50351 86,86v0c0,47.49649 -38.50351,86 -86,86z" fill="none"></path><path d="M86,168.56c-45.59663,0 -82.56,-36.96337 -82.56,-82.56v0c0,-45.59663 36.96337,-82.56 82.56,-82.56v0c45.59663,0 82.56,36.96337 82.56,82.56v0c0,45.59663 -36.96337,82.56 -82.56,82.56z" fill="none"></path></g></svg>