<svg xmlns="http://www.w3.org/2000/svg" x="0px" y="0px"
width="96" height="96"
viewBox="0 0 172 172"
style=" fill:#000000;"><g fill="none" fill-rule="nonzero" stroke="none" stroke-width="1" stroke-linecap="butt" stroke-linejoin="miter" stroke-miterlimit="10" stroke-dasharray="" stroke-dashoffset="0" font-family="none" font-weight="none" font-size="none" text-anchor="none" style="mix-blend-mode: normal"><path d="M0,172v-172h172v172z" fill="none"></path><path d="M0,86c0,-47.49649 38.50351,-86 86,-86c47.49649,0 86,38.50351 86,86c0,47.49649 -38.50351,86 -86,86c-47.49649,0 -86,-38.50351 -86,-86zM86,168.56c45.59663,0 82.56,-36.96337 82.56,-82.56c0,-45.59663 -36.96337,-82.56 -82.56,-82.56c-45.59663,0 -82.56,36.96337 -82.56,82.56c0,45.59663 36.96337,82.56 82.56,82.56z" fill="#418a3e"></path><g fill="#418a3e"><path d="M111.54454,37.24875c-0.76411,0 -1.46388,0.61217 -1.46388,1.46388v26.74915l-6.06466,-3.53614c-0.37962,-0.22387 -0.80745,-0.3327 -1.23574,-0.3327c-0.42829,0 -0.85612,0.10882 -1.23574,0.3327l-14.5723,8.49813c-0.75924,0.43802 -1.22624,1.2486 -1.22624,2.11978v17.01527c0,0.87605 0.467,1.68176 1.22624,2.11978l14.5723,8.49813c0.37962,0.22387 0.80745,0.3327 1.23574,0.3327c0.42829,0 0.85612,-0.10882 1.23574,-0.3327l14.5723,-8.49813c0.75924,-0.43802 1.22624,-1.2486 1.22624,-2.11978v-8.50764v-8.50764v-29.30619c0,-0.86632 -0.46259,-1.66274 -1.20723,-2.10077l-6.34033,-3.68823c-0.23848,-0.13627 -0.47909,-0.19962 -0.72244,-0.19962zM63.84475,61.59295c-0.42707,0 -0.85369,0.11126 -1.23574,0.3327l-14.5723,8.49813c-0.75924,0.43802 -1.22624,1.2486 -1.22624,2.11978v17.01527c0,0.87605 0.467,1.68176 1.22624,2.11978l14.5723,8.49813c0.76411,0.44289 1.70738,0.44289 2.47149,0l14.5723,-8.49813c0.75924,-0.43802 1.22624,-1.2486 1.22624,-2.11978v-17.01527c0,-0.87605 -0.467,-1.68176 -1.22624,-2.11978l-14.5723,-8.49813c-0.38205,-0.22145 -0.80867,-0.3327 -1.23574,-0.3327zM141.71576,61.59295c-0.42829,0 -0.85612,0.10882 -1.23574,0.3327l-14.5723,8.49813c-0.75924,0.43802 -1.22624,1.2486 -1.22624,2.11978v17.01527c0,0.87605 0.467,1.68176 1.22624,2.11978l14.13503,8.54566c0.75924,0.46236 1.71202,0.46677 2.481,0.01901l6.94869,-4.03994c0.72031,-0.41369 0.72517,-1.45871 0,-1.88214l-15.05709,-8.86885v-8.73577l7.30041,-4.24907l7.30041,4.24907v6.08367c0,0.81278 0.6832,0.93795 1.14069,0.6654c1.8397,-1.08046 7.38596,-4.2966 7.38596,-4.2966c0.74464,-0.43316 1.20723,-1.23445 1.20723,-2.10077v-4.52473c0,-0.87605 -0.467,-1.68176 -1.22624,-2.11978l-14.5723,-8.49813c-0.38449,-0.22387 -0.80745,-0.3327 -1.23574,-0.3327zM24.90924,61.60245c-0.42829,0 -0.85613,0.10882 -1.23575,0.3327l-14.5723,8.48862c-0.75924,0.44289 -1.22624,1.25324 -1.22624,2.12929v21.72062c0,1.06099 1.14776,1.71872 2.06275,1.18822l6.4639,-3.76428c0.74464,-0.43802 1.20723,-1.23446 1.20723,-2.10077v-12.86126l7.30041,-4.25857l7.30041,4.25857v12.86126c0,0.86632 0.46259,1.66275 1.20723,2.10077l6.4639,3.76428c0.91498,0.53536 2.06275,-0.12723 2.06275,-1.18822v-21.72062c0,-0.87605 -0.467,-1.68639 -1.22624,-2.12929l-14.5723,-8.48862c-0.37962,-0.22388 -0.80746,-0.3327 -1.23575,-0.3327zM102.78025,72.46751l7.30041,4.25857v4.32511v4.32511l-7.30041,4.25857l-7.30041,-4.25857v-8.65022zM141.71576,76.20327l-4.17302,2.43347v4.85743l4.17302,2.42396l4.17302,-2.42396v-4.85743zM82.85622,95.64251c-0.50069,0 -1.00685,0.12251 -1.44487,0.37072l-13.68826,7.90877c-0.90038,0.49643 -1.44487,1.47331 -1.44487,2.4905v15.79853c0,1.01719 0.56882,1.97461 1.44487,2.4905l3.60267,2.05324c1.72776,0.85171 2.36283,0.85552 3.1464,0.85552c2.57948,0 4.04944,-1.54259 4.04944,-4.26808v-15.60842c0,-0.23848 -0.18509,-0.40874 -0.39924,-0.40874h-1.73005c-0.23848,0 -0.40874,0.1946 -0.40874,0.40874v15.60842c0,1.18267 -1.24974,2.39552 -3.28899,1.37833l-3.74526,-2.1578c-0.12167,-0.073 -0.20913,-0.22008 -0.20913,-0.36122v-15.79854c0,-0.14114 0.06799,-0.30723 0.20913,-0.38023l13.68826,-7.88976c0.14601,-0.073 0.31095,-0.073 0.42776,0l13.69777,7.88976c0.14114,0.073 0.20913,0.21475 0.20913,0.38023v15.79854c0,0.16548 -0.09232,0.30723 -0.20913,0.38023l-13.69777,7.91828c-0.12167,0.073 -0.31095,0.073 -0.42776,0l-3.49811,-2.08176c-0.09247,-0.04867 -0.24023,-0.07719 -0.3327,-0.02852c-0.96852,0.56944 -1.16236,0.64396 -2.06274,0.95058c-0.23848,0.073 -0.56267,0.21924 0.12357,0.59886l4.54374,2.69963c0.45263,0.23848 0.94844,0.38023 1.44487,0.38023c0.52076,0 1.02677,-0.14129 1.42586,-0.39924l13.68826,-7.91828c0.90038,-0.49643 1.44487,-1.47331 1.44487,-2.4905v-15.79853c0,-1.01719 -0.56882,-1.96974 -1.44487,-2.4905l-13.68826,-7.90877c-0.42586,-0.24821 -0.92518,-0.37072 -1.42586,-0.37072zM104.20612,102.93341c-1.39681,0 -2.62359,1.12943 -2.62359,2.62358c0,1.44548 1.17811,2.63309 2.62359,2.63309c1.44548,0 2.62358,-1.18761 2.62358,-2.63309c0,-1.49415 -1.20244,-2.64792 -2.62358,-2.62358zM104.1776,103.35166c1.2362,0 2.23385,0.974 2.23385,2.20533c0,1.207 -1.00252,2.20465 -2.23385,2.23385c-1.21187,0 -2.19582,-1.00252 -2.19582,-2.23385c0,-1.23134 0.98882,-2.20533 2.19582,-2.20533zM103.21752,104.06459v2.95629h0.56084v-1.17871h0.52282c0.21415,0 0.26502,0.09118 0.31369,0.25665c0,0.02433 0.08974,0.79042 0.11407,0.93157h0.60837c-0.06814,-0.14114 -0.11825,-0.54563 -0.14259,-0.78898c-0.06814,-0.37962 -0.09034,-0.64107 -0.4943,-0.6654c0.21415,-0.073 0.57035,-0.18684 0.57035,-0.73194c0,-0.78358 -0.68084,-0.77947 -1.03613,-0.77947zM103.77836,104.53988h0.47529c0.14601,0 0.42776,-0.00472 0.42776,0.39924c0,0.16548 -0.07179,0.43263 -0.45628,0.42776h-0.44677zM86.52544,106.95434c-3.90815,0 -6.22626,1.66571 -6.22626,4.41066c0,3.00777 2.32199,3.81241 6.06466,4.19203c4.47758,0.44776 4.82892,1.09164 4.82892,1.96769c0,1.53795 -1.23453,2.17681 -4.12549,2.17681c-3.62587,0 -4.42351,-0.89886 -4.68633,-2.69963c-0.02433,-0.18981 -0.1946,-0.3327 -0.40875,-0.3327h-1.77757c-0.21415,0 -0.39924,0.17027 -0.39924,0.40875c0,2.29719 1.25217,5.04755 7.24337,5.04755c4.39485,-0.00487 6.88216,-1.70754 6.88216,-4.69584c0,-2.9591 -1.99248,-3.74617 -6.20725,-4.3156c-4.26344,-0.56943 -4.68633,-0.8559 -4.68633,-1.85362c0,-0.82738 0.3492,-1.91065 3.49811,-1.91065c2.81796,0 3.86831,0.61628 4.2966,2.50952c0.04867,0.18981 0.18091,0.30418 0.37072,0.30418h1.77757c0.11681,0 0.21704,-0.04593 0.28517,-0.11407c0.073,-0.09247 0.11939,-0.18738 0.09506,-0.30418c-0.28228,-3.27058 -2.44001,-4.79089 -6.82512,-4.79089z"></path></g><path d="M86,172c-47.49649,0 -86,-38.50351 -86,-86v0c0,-47.49649 38.50351,-86 86,-86v0c47.49649,0 86,38.50351 86,86v0c0,47.49649 -38.50351,86 -86,86z" fill="none"></path><path d="M86,168.56c-45.59663,0 -82.56,-36.96337 -82.56,-82.56v0c0,-45.59663 36.96337,-82.56 82.56,-82.56v0c45.59663,0 82.56,36.96337 82.56,82.56v0c0,45.59663 -36.96337,82.56 -82.56,82.56z" fill="none"></path><path d="M86,172c-47.49649,0 -86,-38.50351 -86,-86v0c0,-47.49649 38.50351,-86 86,-86v0c47.49649,0 86,38.50351 86,86v0c0,47.49649 -38.50351,86 -86,86z" fill="none"></path><path d="M86,168.56c-45.59663,0 -82.56,-36.96337 -82.56,-82.56v0c0,-45.59663 36.96337,-82.56 82.56,-82.56v0c45.59663,0 82.56,36.96337 82.56,82.56v0c0,45.59663 -36.96337,82.56 -82.56,82.56z" fill="none"></path></g></svg>