<svg xmlns="http://www.w3.org/2000/svg" x="0px" y="0px"
width="96" height="96"
viewBox="0 0 172 172"
style=" fill:#000000;"><g fill="none" fill-rule="nonzero" stroke="none" stroke-width="1" stroke-linecap="butt" stroke-linejoin="miter" stroke-miterlimit="10" stroke-dasharray="" stroke-dashoffset="0" font-family="none" font-weight="none" font-size="none" text-anchor="none" style="mix-blend-mode: normal"><path d="M0,172v-172h172v172z" fill="none"></path><path d="M0,86c0,-47.49649 38.50351,-86 86,-86c47.49649,0 86,38.50351 86,86c0,47.49649 -38.50351,86 -86,86c-47.49649,0 -86,-38.50351 -86,-86zM86,168.56c45.59663,0 82.56,-36.96337 82.56,-82.56c0,-45.59663 -36.96337,-82.56 -82.56,-82.56c-45.59663,0 -82.56,36.96337 -82.56,82.56c0,45.59663 36.96337,82.56 82.56,82.56z" fill="#43843d"></path><path d="M86,172c-47.49649,0 -86,-38.50351 -86,-86v0c0,-47.49649 38.50351,-86 86,-86v0c47.49649,0 86,38.50351 86,86v0c0,47.49649 -38.50351,86 -86,86z" fill="none"></path><path d="M86,168.56c-45.59663,0 -82.56,-36.96337 -82.56,-82.56v0c0,-45.59663 36.96337,-82.56 82.56,-82.56v0c45.59663,0 82.56,36.96337 82.56,82.56v0c0,45.59663 -36.96337,82.56 -82.56,82.56z" fill="none"></path><path d="M86,172c-47.49649,0 -86,-38.50351 -86,-86v0c0,-47.49649 38.50351,-86 86,-86v0c47.49649,0 86,38.50351 86,86v0c0,47.49649 -38.50351,86 -86,86z" fill="none"></path><path d="M86,168.56c-45.59663,0 -82.56,-36.96337 -82.56,-82.56v0c0,-45.59663 36.96337,-82.56 82.56,-82.56v0c45.59663,0 82.56,36.96337 82.56,82.56v0c0,45.59663 -36.96337,82.56 -82.56,82.56z" fill="none"></path><g><path d="M65.32995,69.8217l-14.92465,8.25768c-0.55964,0.30719 -0.90333,0.87899 -0.90333,1.49642v16.52448c0,0.61742 0.34369,1.18619 0.90333,1.49642l14.92769,8.26376c0.55659,0.30719 1.24702,0.30719 1.80361,0l14.92465,-8.26376c0.55355,-0.31023 0.89724,-0.87899 0.89724,-1.49642v-16.52448c0,-0.61742 -0.34369,-1.18619 -0.90333,-1.49642l-14.92161,-8.25768c-0.27982,-0.15512 -0.59309,-0.23115 -0.90333,-0.23115c-0.31327,0 -0.62351,0.07604 -0.90333,0.23115M142.11875,84.69769l-2.48795,1.37476c-0.09429,0.05171 -0.14903,0.14599 -0.14903,0.2494v2.7556c0,0.10341 0.05779,0.1977 0.14903,0.2494l2.48795,1.3778c0.09429,0.05171 0.20682,0.05171 0.30111,0l2.48795,-1.3778c0.09125,-0.05171 0.14903,-0.14599 0.14903,-0.2494v-2.7556c0,-0.10341 -0.05779,-0.1977 -0.15208,-0.2494l-2.48795,-1.37476c-0.04562,-0.02737 -0.09733,-0.03954 -0.14903,-0.03954c-0.05171,0 -0.10341,0.01217 -0.14903,0.03954" fill="#388e3c"></path><path d="M121.74069,52.30873l-7.26615,-4.05432c-0.22811,-0.12774 -0.50793,-0.1247 -0.733,0.00912c-0.22507,0.13383 -0.36498,0.3741 -0.36498,0.63567l-0.00304,24.49017l-6.70043,-3.70759c-0.27982,-0.15512 -0.59309,-0.23115 -0.90333,-0.23115c-0.31023,0 -0.62351,0.07604 -0.90333,0.23115h0.00304l-14.92465,8.25768c-0.55964,0.30719 -0.90333,0.87899 -0.90333,1.49338v16.52448c0,0.61742 0.34369,1.18619 0.90333,1.49642l14.92769,8.26376c0.55659,0.30719 1.24702,0.30719 1.80361,0l14.92465,-8.26376c0.55355,-0.30719 0.89724,-0.87899 0.89724,-1.49642v-42.359c0,-0.5353 -0.29198,-1.02803 -0.75733,-1.2896zM112.96596,92.13416l-6.78255,3.75625c-0.25244,0.13991 -0.56572,0.13991 -0.81816,0l-6.78559,-3.75625c-0.25853,-0.13991 -0.41364,-0.40148 -0.41364,-0.6813v-7.51251c0,-0.27982 0.15512,-0.53835 0.4106,-0.6813l6.78559,-3.75321h-0.00304c0.12774,-0.06995 0.26765,-0.10341 0.4106,-0.10341c0.14295,0 0.28286,0.0365 0.4106,0.10341l6.78255,3.75321c0.25549,0.14295 0.4106,0.40452 0.4106,0.68434v7.51251c0,0.27678 -0.15512,0.53835 -0.40756,0.67825z" fill="#37474f"></path><path d="M65.32995,69.8217l-15.82798,26.27858c0,0.61742 0.34369,1.18619 0.90333,1.49642l14.92769,8.26376c0.55659,0.30719 1.24702,0.30719 1.80361,0l15.82189,-26.28466c0,-0.61742 -0.34369,-1.18619 -0.90333,-1.49642l-14.92161,-8.25768c-0.27982,-0.15512 -0.59309,-0.23115 -0.90333,-0.23115c-0.31327,0 -0.62351,0.07604 -0.90333,0.23115" fill="#2e7d32"></path><path d="M65.32995,69.8217l-14.92465,8.25768c-0.55964,0.30719 -0.90333,0.87899 -0.90333,1.49642l15.82798,26.28466c0.55659,0.30719 1.24702,0.30719 1.80361,0l14.92465,-8.26376c0.55659,-0.31023 0.90028,-0.87899 0.90028,-1.49642l-15.82493,-26.27858c-0.27982,-0.15512 -0.59309,-0.23115 -0.90333,-0.23115c-0.31327,0 -0.62351,0.07604 -0.90333,0.23115" fill="#4caf50"></path><path d="M158.09272,77.93947l-14.92161,-8.25768c-0.27982,-0.15512 -0.59309,-0.23115 -0.90333,-0.23115c-0.31023,0 -0.62351,0.07604 -0.90333,0.23115h0.00304l-14.92465,8.25768c-0.55659,0.30719 -0.90333,0.89116 -0.90333,1.52988v16.45757c0,0.63567 0.34673,1.22268 0.90333,1.52988l14.92769,8.26376c0.55964,0.31023 1.24397,0.31023 1.80361,0l6.88292,-3.811c0.62959,-0.34977 0.62655,-1.2531 -0.00608,-1.59983l-14.97636,-8.17252c-0.25244,-0.14295 -0.4106,-0.40756 -0.4106,-0.69346v-7.50034c0,-0.27982 0.15208,-0.53835 0.3954,-0.67217l6.79776,-3.7593h-0.00304c0.12774,-0.06995 0.26765,-0.10341 0.4106,-0.10341c0.14295,0 0.28286,0.0365 0.4106,0.10341l6.79776,3.76234c0.24332,0.13383 0.3954,0.39235 0.3954,0.67217v6.1195c0,0.26157 0.13991,0.50489 0.36802,0.63567c0.22811,0.12774 0.50793,0.12774 0.73604,-0.00304l7.29352,-4.23681c0.45014,-0.26157 0.72996,-0.74517 0.72996,-1.26831v-5.71802c0,-0.64176 -0.34673,-1.22877 -0.90333,-1.53596zM45.55715,77.93947l-14.92161,-8.25768c-0.27982,-0.15512 -0.59309,-0.23115 -0.90333,-0.23115c-0.31023,0 -0.62351,0.07604 -0.90333,0.23115h0.00304l-14.92465,8.25768c-0.55659,0.30719 -0.90333,0.89116 -0.90333,1.52988v22.70481c0,0.26157 0.13991,0.50489 0.36802,0.63567c0.22811,0.12774 0.50793,0.12774 0.73604,-0.00304l7.29352,-4.23681c0.45014,-0.26157 0.72692,-0.74517 0.72692,-1.26831v-13.36132c0,-0.27982 0.15208,-0.53835 0.3954,-0.67217l6.79776,-3.7593v0c0.12774,-0.06995 0.26765,-0.10341 0.4106,-0.10341c0.14295,0 0.28286,0.0365 0.4106,0.10341l6.79776,3.76234c0.24332,0.13383 0.3954,0.39235 0.3954,0.67217v13.36132c0,0.52314 0.27678,1.00674 0.72996,1.26831l7.29352,4.23681c0.22811,0.13078 0.50793,0.13078 0.73604,0.00304c0.22507,-0.13383 0.36498,-0.37715 0.36498,-0.63872v-22.70177c0,-0.63872 -0.34673,-1.22573 -0.90333,-1.53292z" fill="#37474f"></path></g><path d="M86,172c-47.49649,0 -86,-38.50351 -86,-86v0c0,-47.49649 38.50351,-86 86,-86v0c47.49649,0 86,38.50351 86,86v0c0,47.49649 -38.50351,86 -86,86z" fill="none"></path><path d="M86,168.56c-45.59663,0 -82.56,-36.96337 -82.56,-82.56v0c0,-45.59663 36.96337,-82.56 82.56,-82.56v0c45.59663,0 82.56,36.96337 82.56,82.56v0c0,45.59663 -36.96337,82.56 -82.56,82.56z" fill="none"></path><path d="M86,172c-47.49649,0 -86,-38.50351 -86,-86v0c0,-47.49649 38.50351,-86 86,-86v0c47.49649,0 86,38.50351 86,86v0c0,47.49649 -38.50351,86 -86,86z" fill="none"></path><path d="M86,168.56c-45.59663,0 -82.56,-36.96337 -82.56,-82.56v0c0,-45.59663 36.96337,-82.56 82.56,-82.56v0c45.59663,0 82.56,36.96337 82.56,82.56v0c0,45.59663 -36.96337,82.56 -82.56,82.56z" fill="none"></path><path d="M86,172c-47.49649,0 -86,-38.50351 -86,-86v0c0,-47.49649 38.50351,-86 86,-86v0c47.49649,0 86,38.50351 86,86v0c0,47.49649 -38.50351,86 -86,86z" fill="none"></path><path d="M86,168.56c-45.59663,0 -82.56,-36.96337 -82.56,-82.56v0c0,-45.59663 36.96337,-82.56 82.56,-82.56v0c45.59663,0 82.56,36.96337 82.56,82.56v0c0,45.59663 -36.96337,82.56 -82.56,82.56z" fill="none"></path><path d="M86,172c-47.49649,0 -86,-38.50351 -86,-86v0c0,-47.49649 38.50351,-86 86,-86v0c47.49649,0 86,38.50351 86,86v0c0,47.49649 -38.50351,86 -86,86z" fill="none"></path><path d="M86,168.56c-45.59663,0 -82.56,-36.96337 -82.56,-82.56v0c0,-45.59663 36.96337,-82.56 82.56,-82.56v0c45.59663,0 82.56,36.96337 82.56,82.56v0c0,45.59663 -36.96337,82.56 -82.56,82.56z" fill="none"></path><path d="M86,172c-47.49649,0 -86,-38.50351 -86,-86v0c0,-47.49649 38.50351,-86 86,-86v0c47.49649,0 86,38.50351 86,86v0c0,47.49649 -38.50351,86 -86,86z" fill="none"></path><path d="M86,168.56c-45.59663,0 -82.56,-36.96337 -82.56,-82.56v0c0,-45.59663 36.96337,-82.56 82.56,-82.56v0c45.59663,0 82.56,36.96337 82.56,82.56v0c0,45.59663 -36.96337,82.56 -82.56,82.56z" fill="none"></path><path d="M86,172c-47.49649,0 -86,-38.50351 -86,-86v0c0,-47.49649 38.50351,-86 86,-86v0c47.49649,0 86,38.50351 86,86v0c0,47.49649 -38.50351,86 -86,86z" fill="none"></path><path d="M86,168.56c-45.59663,0 -82.56,-36.96337 -82.56,-82.56v0c0,-45.59663 36.96337,-82.56 82.56,-82.56v0c45.59663,0 82.56,36.96337 82.56,82.56v0c0,45.59663 -36.96337,82.56 -82.56,82.56z" fill="none"></path><path d="M86,172c-47.49649,0 -86,-38.50351 -86,-86v0c0,-47.49649 38.50351,-86 86,-86v0c47.49649,0 86,38.50351 86,86v0c0,47.49649 -38.50351,86 -86,86z" fill="none"></path><path d="M86,168.56c-45.59663,0 -82.56,-36.96337 -82.56,-82.56v0c0,-45.59663 36.96337,-82.56 82.56,-82.56v0c45.59663,0 82.56,36.96337 82.56,82.56v0c0,45.59663 -36.96337,82.56 -82.56,82.56z" fill="none"></path><path d="M86,172c-47.49649,0 -86,-38.50351 -86,-86v0c0,-47.49649 38.50351,-86 86,-86v0c47.49649,0 86,38.50351 86,86v0c0,47.49649 -38.50351,86 -86,86z" fill="none"></path><path d="M86,168.56c-45.59663,0 -82.56,-36.96337 -82.56,-82.56v0c0,-45.59663 36.96337,-82.56 82.56,-82.56v0c45.59663,0 82.56,36.96337 82.56,82.56v0c0,45.59663 -36.96337,82.56 -82.56,82.56z" fill="none"></path><path d="M86,172c-47.49649,0 -86,-38.50351 -86,-86v0c0,-47.49649 38.50351,-86 86,-86v0c47.49649,0 86,38.50351 86,86v0c0,47.49649 -38.50351,86 -86,86z" fill="none"></path><path d="M86,168.56c-45.59663,0 -82.56,-36.96337 -82.56,-82.56v0c0,-45.59663 36.96337,-82.56 82.56,-82.56v0c45.59663,0 82.56,36.96337 82.56,82.56v0c0,45.59663 -36.96337,82.56 -82.56,82.56z" fill="none"></path><path d="M86,172c-47.49649,0 -86,-38.50351 -86,-86v0c0,-47.49649 38.50351,-86 86,-86v0c47.49649,0 86,38.50351 86,86v0c0,47.49649 -38.50351,86 -86,86z" fill="none"></path><path d="M86,168.56c-45.59663,0 -82.56,-36.96337 -82.56,-82.56v0c0,-45.59663 36.96337,-82.56 82.56,-82.56v0c45.59663,0 82.56,36.96337 82.56,82.56v0c0,45.59663 -36.96337,82.56 -82.56,82.56z" fill="none"></path><path d="M86,172c-47.49649,0 -86,-38.50351 -86,-86v0c0,-47.49649 38.50351,-86 86,-86v0c47.49649,0 86,38.50351 86,86v0c0,47.49649 -38.50351,86 -86,86z" fill="none"></path><path d="M86,168.56c-45.59663,0 -82.56,-36.96337 -82.56,-82.56v0c0,-45.59663 36.96337,-82.56 82.56,-82.56v0c45.59663,0 82.56,36.96337 82.56,82.56v0c0,45.59663 -36.96337,82.56 -82.56,82.56z" fill="none"></path><path d="M86,172c-47.49649,0 -86,-38.50351 -86,-86v0c0,-47.49649 38.50351,-86 86,-86v0c47.49649,0 86,38.50351 86,86v0c0,47.49649 -38.50351,86 -86,86z" fill="none"></path><path d="M86,168.56c-45.59663,0 -82.56,-36.96337 -82.56,-82.56v0c0,-45.59663 36.96337,-82.56 82.56,-82.56v0c45.59663,0 82.56,36.96337 82.56,82.56v0c0,45.59663 -36.96337,82.56 -82.56,82.56z" fill="none"></path><path d="M86,172c-47.49649,0 -86,-38.50351 -86,-86v0c0,-47.49649 38.50351,-86 86,-86v0c47.49649,0 86,38.50351 86,86v0c0,47.49649 -38.50351,86 -86,86z" fill="none"></path><path d="M86,168.56c-45.59663,0 -82.56,-36.96337 -82.56,-82.56v0c0,-45.59663 36.96337,-82.56 82.56,-82.56v0c45.59663,0 82.56,36.96337 82.56,82.56v0c0,45.59663 -36.96337,82.56 -82.56,82.56z" fill="none"></path><path d="M86,172c-47.49649,0 -86,-38.50351 -86,-86v0c0,-47.49649 38.50351,-86 86,-86v0c47.49649,0 86,38.50351 86,86v0c0,47.49649 -38.50351,86 -86,86z" fill="none"></path><path d="M86,168.56c-45.59663,0 -82.56,-36.96337 -82.56,-82.56v0c0,-45.59663 36.96337,-82.56 82.56,-82.56v0c45.59663,0 82.56,36.96337 82.56,82.56v0c0,45.59663 -36.96337,82.56 -82.56,82.56z" fill="none"></path><path d="M86,172c-47.49649,0 -86,-38.50351 -86,-86v0c0,-47.49649 38.50351,-86 86,-86v0c47.49649,0 86,38.50351 86,86v0c0,47.49649 -38.50351,86 -86,86z" fill="none"></path><path d="M86,168.56c-45.59663,0 -82.56,-36.96337 -82.56,-82.56v0c0,-45.59663 36.96337,-82.56 82.56,-82.56v0c45.59663,0 82.56,36.96337 82.56,82.56v0c0,45.59663 -36.96337,82.56 -82.56,82.56z" fill="none"></path><path d="M86,172c-47.49649,0 -86,-38.50351 -86,-86v0c0,-47.49649 38.50351,-86 86,-86v0c47.49649,0 86,38.50351 86,86v0c0,47.49649 -38.50351,86 -86,86z" fill="none"></path><path d="M86,168.56c-45.59663,0 -82.56,-36.96337 -82.56,-82.56v0c0,-45.59663 36.96337,-82.56 82.56,-82.56v0c45.59663,0 82.56,36.96337 82.56,82.56v0c0,45.59663 -36.96337,82.56 -82.56,82.56z" fill="none"></path><path d="M86,172c-47.49649,0 -86,-38.50351 -86,-86v0c0,-47.49649 38.50351,-86 86,-86v0c47.49649,0 86,38.50351 86,86v0c0,47.49649 -38.50351,86 -86,86z" fill="none"></path><path d="M86,168.56c-45.59663,0 -82.56,-36.96337 -82.56,-82.56v0c0,-45.59663 36.96337,-82.56 82.56,-82.56v0c45.59663,0 82.56,36.96337 82.56,82.56v0c0,45.59663 -36.96337,82.56 -82.56,82.56z" fill="none"></path><path d="M86,172c-47.49649,0 -86,-38.50351 -86,-86v0c0,-47.49649 38.50351,-86 86,-86v0c47.49649,0 86,38.50351 86,86v0c0,47.49649 -38.50351,86 -86,86z" fill="none"></path><path d="M86,168.56c-45.59663,0 -82.56,-36.96337 -82.56,-82.56v0c0,-45.59663 36.96337,-82.56 82.56,-82.56v0c45.59663,0 82.56,36.96337 82.56,82.56v0c0,45.59663 -36.96337,82.56 -82.56,82.56z" fill="none"></path><path d="M86,172c-47.49649,0 -86,-38.50351 -86,-86v0c0,-47.49649 38.50351,-86 86,-86v0c47.49649,0 86,38.50351 86,86v0c0,47.49649 -38.50351,86 -86,86z" fill="none"></path><path d="M86,168.56c-45.59663,0 -82.56,-36.96337 -82.56,-82.56v0c0,-45.59663 36.96337,-82.56 82.56,-82.56v0c45.59663,0 82.56,36.96337 82.56,82.56v0c0,45.59663 -36.96337,82.56 -82.56,82.56z" fill="none"></path><path d="M86,172c-47.49649,0 -86,-38.50351 -86,-86v0c0,-47.49649 38.50351,-86 86,-86v0c47.49649,0 86,38.50351 86,86v0c0,47.49649 -38.50351,86 -86,86z" fill="none"></path><path d="M86,168.56c-45.59663,0 -82.56,-36.96337 -82.56,-82.56v0c0,-45.59663 36.96337,-82.56 82.56,-82.56v0c45.59663,0 82.56,36.96337 82.56,82.56v0c0,45.59663 -36.96337,82.56 -82.56,82.56z" fill="none"></path><path d="M86,172c-47.49649,0 -86,-38.50351 -86,-86v0c0,-47.49649 38.50351,-86 86,-86v0c47.49649,0 86,38.50351 86,86v0c0,47.49649 -38.50351,86 -86,86z" fill="none"></path><path d="M86,168.56c-45.59663,0 -82.56,-36.96337 -82.56,-82.56v0c0,-45.59663 36.96337,-82.56 82.56,-82.56v0c45.59663,0 82.56,36.96337 82.56,82.56v0c0,45.59663 -36.96337,82.56 -82.56,82.56z" fill="none"></path><path d="M86,172c-47.49649,0 -86,-38.50351 -86,-86v0c0,-47.49649 38.50351,-86 86,-86v0c47.49649,0 86,38.50351 86,86v0c0,47.49649 -38.50351,86 -86,86z" fill="none"></path><path d="M86,168.56c-45.59663,0 -82.56,-36.96337 -82.56,-82.56v0c0,-45.59663 36.96337,-82.56 82.56,-82.56v0c45.59663,0 82.56,36.96337 82.56,82.56v0c0,45.59663 -36.96337,82.56 -82.56,82.56z" fill="none"></path><path d="M86,172c-47.49649,0 -86,-38.50351 -86,-86v0c0,-47.49649 38.50351,-86 86,-86v0c47.49649,0 86,38.50351 86,86v0c0,47.49649 -38.50351,86 -86,86z" fill="none"></path><path d="M86,168.56c-45.59663,0 -82.56,-36.96337 -82.56,-82.56v0c0,-45.59663 36.96337,-82.56 82.56,-82.56v0c45.59663,0 82.56,36.96337 82.56,82.56v0c0,45.59663 -36.96337,82.56 -82.56,82.56z" fill="none"></path></g></svg>