<svg xmlns="http://www.w3.org/2000/svg" x="0px" y="0px"
width="96" height="96"
viewBox="0 0 172 172"
style=" fill:#000000;"><g fill="none" fill-rule="nonzero" stroke="none" stroke-width="1" stroke-linecap="butt" stroke-linejoin="miter" stroke-miterlimit="10" stroke-dasharray="" stroke-dashoffset="0" font-family="none" font-weight="none" font-size="none" text-anchor="none" style="mix-blend-mode: normal"><path d="M0,172v-172h172v172z" fill="none"></path><path d="M0,86c0,-47.49649 38.50351,-86 86,-86c47.49649,0 86,38.50351 86,86c0,47.49649 -38.50351,86 -86,86c-47.49649,0 -86,-38.50351 -86,-86zM86,168.56c45.59663,0 82.56,-36.96337 82.56,-82.56c0,-45.59663 -36.96337,-82.56 -82.56,-82.56c-45.59663,0 -82.56,36.96337 -82.56,82.56c0,45.59663 36.96337,82.56 82.56,82.56z" fill="#00bcd4"></path><g><path d="M137.6,123.26667c0,7.91773 -6.4156,14.33333 -14.33333,14.33333h-74.53333c-7.91773,0 -14.33333,-6.4156 -14.33333,-14.33333v-74.53333c0,-7.91773 6.4156,-14.33333 14.33333,-14.33333h74.53333c7.91773,0 14.33333,6.4156 14.33333,14.33333z" fill="#00bcd4"></path><path d="M57.33333,90.25127v10.08207h-5.71327v-28.66667h10.77867c2.8208,0 5.074,0.88007 6.751,2.63733c1.677,1.75727 2.51693,4.042 2.51693,6.8542c0,2.8122 -0.82847,5.02527 -2.48827,6.65353c-1.6598,1.62827 -3.95887,2.4424 -6.8972,2.4424h-4.94787zM57.38207,85.42953h5.01667c1.09793,0 1.94647,-0.35833 2.54847,-1.0836c0.602,-0.7224 0.90013,-1.7716 0.90013,-3.15047c0,-1.43047 -0.30673,-2.56853 -0.9202,-3.41707c-0.61347,-0.8428 -1.4362,-1.2728 -2.4682,-1.28713h-5.07687zM106.06667,90.25127v10.08207h-5.71327v-28.66667h10.77867c2.8208,0 5.074,0.88007 6.751,2.63733c1.677,1.75727 2.51693,4.042 2.51693,6.8542c0,2.8122 -0.82847,5.02527 -2.48827,6.65353c-1.6598,1.62827 -3.95887,2.4424 -6.8972,2.4424h-4.94787zM106.1154,85.42953h5.01667c1.09793,0 1.94647,-0.35833 2.54847,-1.0836c0.602,-0.7224 0.90013,-1.7716 0.90013,-3.15047c0,-1.43047 -0.30673,-2.56853 -0.9202,-3.41707c-0.61347,-0.8428 -1.4362,-1.2728 -2.4682,-1.28713h-5.07687zM94.6,100.33333h-5.73333v-12.26647h-8.65733v12.26647h-5.676v-28.66667h5.676v11.46667h8.65733v-11.46667h5.73333z" fill="#ffffff"></path></g><path d="M86,172c-47.49649,0 -86,-38.50351 -86,-86v0c0,-47.49649 38.50351,-86 86,-86v0c47.49649,0 86,38.50351 86,86v0c0,47.49649 -38.50351,86 -86,86z" fill="none"></path><path d="M86,168.56c-45.59663,0 -82.56,-36.96337 -82.56,-82.56v0c0,-45.59663 36.96337,-82.56 82.56,-82.56v0c45.59663,0 82.56,36.96337 82.56,82.56v0c0,45.59663 -36.96337,82.56 -82.56,82.56z" fill="none"></path><path d="M86,172c-47.49649,0 -86,-38.50351 -86,-86v0c0,-47.49649 38.50351,-86 86,-86v0c47.49649,0 86,38.50351 86,86v0c0,47.49649 -38.50351,86 -86,86z" fill="none"></path><path d="M86,168.56c-45.59663,0 -82.56,-36.96337 -82.56,-82.56v0c0,-45.59663 36.96337,-82.56 82.56,-82.56v0c45.59663,0 82.56,36.96337 82.56,82.56v0c0,45.59663 -36.96337,82.56 -82.56,82.56z" fill="none"></path></g></svg>