<svg xmlns="http://www.w3.org/2000/svg" x="0px" y="0px"
width="96" height="96"
viewBox="0 0 172 172"
style=" fill:#000000;"><g fill="none" fill-rule="nonzero" stroke="none" stroke-width="1" stroke-linecap="butt" stroke-linejoin="miter" stroke-miterlimit="10" stroke-dasharray="" stroke-dashoffset="0" font-family="none" font-weight="none" font-size="none" text-anchor="none" style="mix-blend-mode: normal"><path d="M0,172v-172h172v172z" fill="none"></path><path d="M0,86c0,-47.49649 38.50351,-86 86,-86c47.49649,0 86,38.50351 86,86c0,47.49649 -38.50351,86 -86,86c-47.49649,0 -86,-38.50351 -86,-86zM86,168.56c45.59663,0 82.56,-36.96337 82.56,-82.56c0,-45.59663 -36.96337,-82.56 -82.56,-82.56c-45.59663,0 -82.56,36.96337 -82.56,82.56c0,45.59663 36.96337,82.56 82.56,82.56z" fill="#53c1de"></path><g fill="#53c1de"><path d="M86,107.84893c-28.13891,0 -50.17016,-9.59777 -50.17016,-21.81311c0,-12.21534 22.03124,-21.81311 50.17016,-21.81311c28.13891,0 50.17016,9.59777 50.17016,21.81311c0,12.21534 -22.03124,21.81311 -50.17016,21.81311zM86,68.58533c-27.48452,0 -45.80754,8.94338 -45.80754,17.45049c0,8.50711 18.32301,17.45049 45.80754,17.45049c27.48452,0 45.80754,-8.94338 45.80754,-17.45049c0,-8.50711 -18.32301,-17.45049 -45.80754,-17.45049z"></path><path d="M66.58633,130.97083c-2.18131,0 -3.92636,-0.43626 -5.67141,-1.52692c-10.68842,-6.10767 -7.85272,-29.88396 6.10767,-54.31465v0c6.54393,-11.34282 14.61478,-20.94059 22.46751,-27.04826c8.50711,-6.54393 16.1417,-8.50711 21.37685,-5.45328c5.45328,3.05384 7.41646,10.68842 6.10767,21.37685c-1.30879,10.03403 -5.67141,21.81311 -12.21534,33.15593c-6.54393,11.34282 -14.61478,20.94059 -22.46751,27.04826c-5.67141,4.36262 -11.12469,6.76206 -15.70544,6.76206zM105.41367,45.46343c-3.4901,0 -8.07085,1.96318 -13.08787,5.88954c-7.41646,5.88954 -15.05105,15.05105 -21.37685,25.9576v0c-13.74226,23.77629 -15.05105,44.28062 -7.85272,48.42511c3.70823,2.18131 9.8159,0.21813 16.57797,-5.01702c7.41646,-5.88954 15.05105,-15.05105 21.37685,-25.9576c6.3258,-10.90656 10.47029,-22.03124 11.77908,-31.41088c1.09066,-8.72524 -0.21813,-14.83292 -3.92636,-17.01423c-1.09066,-0.43626 -2.18131,-0.87252 -3.4901,-0.87252z"></path><path d="M105.6318,130.97083c-10.90656,0 -26.612,-13.306 -38.39108,-34.02845c-14.17852,-24.43069 -17.01423,-48.20698 -6.3258,-54.31465v0c10.68842,-6.10767 29.88396,8.07085 44.06249,32.50154c6.54393,11.34282 10.90656,23.1219 12.21534,33.15593c1.52692,10.68842 -0.65439,18.10488 -6.10767,21.37685c-1.74505,0.87252 -3.4901,1.30879 -5.45328,1.30879zM63.09623,46.33596c-7.19833,4.14449 -5.88954,24.64882 7.85272,48.42511c13.74226,23.77629 30.75649,35.11911 37.95481,30.97462c3.70823,-2.18131 5.01702,-8.28898 3.92636,-17.01423c-1.30879,-9.37964 -5.45328,-20.50433 -11.77908,-31.41088c-13.74226,-23.77629 -30.75649,-35.11911 -37.95481,-30.97462z"></path><circle cx="39.42583" cy="39.44225" transform="scale(2.18131,2.18131)" r="4"></circle></g><path d="M86,172c-47.49649,0 -86,-38.50351 -86,-86v0c0,-47.49649 38.50351,-86 86,-86v0c47.49649,0 86,38.50351 86,86v0c0,47.49649 -38.50351,86 -86,86z" fill="none"></path><path d="M86,168.56c-45.59663,0 -82.56,-36.96337 -82.56,-82.56v0c0,-45.59663 36.96337,-82.56 82.56,-82.56v0c45.59663,0 82.56,36.96337 82.56,82.56v0c0,45.59663 -36.96337,82.56 -82.56,82.56z" fill="none"></path><path d="M86,172c-47.49649,0 -86,-38.50351 -86,-86v0c0,-47.49649 38.50351,-86 86,-86v0c47.49649,0 86,38.50351 86,86v0c0,47.49649 -38.50351,86 -86,86z" fill="none"></path><path d="M86,168.56c-45.59663,0 -82.56,-36.96337 -82.56,-82.56v0c0,-45.59663 36.96337,-82.56 82.56,-82.56v0c45.59663,0 82.56,36.96337 82.56,82.56v0c0,45.59663 -36.96337,82.56 -82.56,82.56z" fill="none"></path><path d="" fill="none"></path><path d="M86,172c-47.49649,0 -86,-38.50351 -86,-86v0c0,-47.49649 38.50351,-86 86,-86v0c47.49649,0 86,38.50351 86,86v0c0,47.49649 -38.50351,86 -86,86z" fill="none"></path><path d="M86,168.56c-45.59663,0 -82.56,-36.96337 -82.56,-82.56v0c0,-45.59663 36.96337,-82.56 82.56,-82.56v0c45.59663,0 82.56,36.96337 82.56,82.56v0c0,45.59663 -36.96337,82.56 -82.56,82.56z" fill="none"></path><path d="M0,172v-172h172v172z" fill="none"></path><path d="M3.44,168.56v-165.12h165.12v165.12z" fill="none"></path><path d="M86,172c-47.49649,0 -86,-38.50351 -86,-86v0c0,-47.49649 38.50351,-86 86,-86v0c47.49649,0 86,38.50351 86,86v0c0,47.49649 -38.50351,86 -86,86z" fill="none"></path><path d="M86,168.56c-45.59663,0 -82.56,-36.96337 -82.56,-82.56v0c0,-45.59663 36.96337,-82.56 82.56,-82.56v0c45.59663,0 82.56,36.96337 82.56,82.56v0c0,45.59663 -36.96337,82.56 -82.56,82.56z" fill="none"></path><path d="M86,172c-47.49649,0 -86,-38.50351 -86,-86v0c0,-47.49649 38.50351,-86 86,-86v0c47.49649,0 86,38.50351 86,86v0c0,47.49649 -38.50351,86 -86,86z" fill="none"></path><path d="M86,168.56c-45.59663,0 -82.56,-36.96337 -82.56,-82.56v0c0,-45.59663 36.96337,-82.56 82.56,-82.56v0c45.59663,0 82.56,36.96337 82.56,82.56v0c0,45.59663 -36.96337,82.56 -82.56,82.56z" fill="none"></path><path d="M86,172c-47.49649,0 -86,-38.50351 -86,-86v0c0,-47.49649 38.50351,-86 86,-86v0c47.49649,0 86,38.50351 86,86v0c0,47.49649 -38.50351,86 -86,86z" fill="none"></path><path d="M86,168.56c-45.59663,0 -82.56,-36.96337 -82.56,-82.56v0c0,-45.59663 36.96337,-82.56 82.56,-82.56v0c45.59663,0 82.56,36.96337 82.56,82.56v0c0,45.59663 -36.96337,82.56 -82.56,82.56z" fill="none"></path></g></svg>