<svg xmlns="http://www.w3.org/2000/svg" x="0px" y="0px"
width="96" height="96"
viewBox="0 0 172 172"
style=" fill:#000000;"><g fill="none" fill-rule="nonzero" stroke="none" stroke-width="1" stroke-linecap="butt" stroke-linejoin="miter" stroke-miterlimit="10" stroke-dasharray="" stroke-dashoffset="0" font-family="none" font-weight="none" font-size="none" text-anchor="none" style="mix-blend-mode: normal"><path d="M0,172v-172h172v172z" fill="none"></path><path d="M0,86c0,-47.49649 38.50351,-86 86,-86c47.49649,0 86,38.50351 86,86c0,47.49649 -38.50351,86 -86,86c-47.49649,0 -86,-38.50351 -86,-86zM86,168.56c45.59663,0 82.56,-36.96337 82.56,-82.56c0,-45.59663 -36.96337,-82.56 -82.56,-82.56c-45.59663,0 -82.56,36.96337 -82.56,82.56c0,45.59663 36.96337,82.56 82.56,82.56z" fill="#cd669a"></path><g fill="#cd669a"><path d="M83.59229,55.12943c-3.96664,-0.20935 -8.42635,0.39859 -12.78896,1.91314c-6.93246,2.40531 -14.43047,6.18852 -19.82207,11.11702c-6.40481,5.86593 -7.43218,10.97103 -7.01118,13.10691c1.49876,7.57519 12.18171,12.51694 16.45627,16.17121c-0.2105,0.11507 -0.40679,0.2141 -0.59203,0.31794c-2.14429,1.04127 -10.09899,5.13194 -12.13663,9.53279c-2.30147,4.99025 0.38079,8.56204 2.14337,9.0504c5.49826,1.49315 10.93928,-1.11635 13.96206,-5.52562c3.02558,-4.41208 2.6612,-10.17021 1.26629,-12.79445c-0.01403,-0.03929 -0.04078,-0.06486 -0.05482,-0.10416c0.55291,-0.32276 1.11596,-0.64751 1.6829,-0.97027c1.09179,-0.6315 2.1571,-1.20792 3.09172,-1.71031c-0.52765,1.3893 -0.90804,3.06523 -1.10732,5.48177c-0.23576,2.82912 0.95857,6.48949 2.51065,7.93212c0.68483,0.6315 1.51196,0.64685 2.02277,0.64685c1.81591,0 2.63199,-1.46644 3.53574,-3.2178c1.11705,-2.13587 2.105,-4.61565 2.105,-4.61565c0,0 -1.23318,6.70968 2.14885,6.70968c1.23493,0 2.47302,-1.55458 3.02594,-2.35168v0.01096c0,0 0.02035,-0.04964 0.08771,-0.15349c0.13191,-0.19366 0.19735,-0.30698 0.19735,-0.30698v-0.03837c0.49959,-0.83639 1.59502,-2.75172 3.23972,-5.91483c2.13026,-4.08931 4.16614,-9.19841 4.16614,-9.19841c0.19647,1.12267 0.46876,2.23029 0.81678,3.31647c0.36767,1.2209 1.14766,2.55968 1.76513,3.85916c-0.49959,0.66799 -0.80582,1.0525 -0.80582,1.0525c0,0.01123 0.00802,0.02179 0.01645,0.02741c-0.39574,0.51362 -0.84437,1.06447 -1.30466,1.60616c-1.684,1.95625 -3.68585,4.19767 -3.94687,4.8404c-0.31715,0.7578 -0.23616,1.32181 0.36728,1.75965c0.44626,0.33399 1.24147,0.38517 2.06663,0.32343c1.51279,-0.10385 2.5781,-0.46604 3.09172,-0.69618c0.94585,-0.33119 1.83924,-0.78692 2.65317,-1.35948c1.64471,-1.18441 2.64712,-2.88306 2.5545,-5.11997c-0.05332,-1.23493 -0.4652,-2.47258 -0.96479,-3.62893c0.14595,-0.20489 0.30637,-0.42245 0.44951,-0.64137c2.60458,-3.71602 4.61565,-7.79507 4.61565,-7.79507c0.19647,1.12267 0.46876,2.23029 0.81678,3.31647c0.31715,1.04127 0.93506,2.18565 1.502,3.3055c-2.44461,1.94221 -3.96191,4.19452 -4.48957,5.67363c-0.97391,2.7393 -0.20629,3.97038 1.22792,4.25385c0.64554,0.12911 1.5627,-0.16336 2.24753,-0.44402c1.01601,-0.33119 1.9723,-0.81327 2.83955,-1.43074c1.64471,-1.18441 3.23674,-2.84162 3.13009,-5.09256c-0.03929,-1.01601 -0.32544,-2.03277 -0.70715,-3.00949c2.06571,-0.84761 4.74651,-1.31093 8.16783,-0.92642c7.3254,0.83639 8.76083,5.31201 8.48578,7.17563c-0.27505,1.86643 -1.81613,2.90907 -2.32975,3.2178c-0.51362,0.30873 -0.6697,0.42486 -0.6304,0.65781c0.06455,0.33399 0.29952,0.31978 0.73456,0.2412c0.60624,-0.10385 3.8393,-1.51683 3.98525,-4.97744c0.21039,-4.37058 -4.08519,-9.17797 -11.69809,-9.14359h-0.01096c-2.64292,0.00164 -5.24851,0.59419 -7.61966,1.73772c-0.77745,-1.52963 -1.5812,-2.86815 -1.71031,-3.87013c-0.15717,-1.17038 -0.32496,-1.8642 -0.14253,-3.25069c0.18524,-1.3893 1.01171,-3.35971 0.99768,-3.50285c-0.01403,-0.14033 -0.18502,-0.84661 -1.88025,-0.86064c-1.69523,-0.01403 -3.15903,0.32145 -3.32743,0.75648c-0.30031,0.7999 -0.5334,1.61945 -0.69618,2.45583c-0.30312,1.50437 -3.39335,6.88242 -5.1419,9.68628c-0.57817,-1.0946 -1.06377,-2.05676 -1.16762,-2.82859c-0.15717,-1.17038 -0.33044,-1.8642 -0.14801,-3.25069c0.18524,-1.3893 1.01719,-3.35971 1.00316,-3.50285c-0.01403,-0.14033 -0.18502,-0.84661 -1.88024,-0.86064c-1.69523,-0.01403 -3.16171,0.32145 -3.33291,0.75648c-0.17121,0.43784 -0.35658,1.46508 -0.69618,2.45583c-0.34241,0.99075 -4.45883,9.94695 -5.53659,12.27368c-0.55291,1.18441 -1.02803,2.13653 -1.37044,2.77926c-0.05333,0.10384 -0.08986,0.16875 -0.11512,0.21927c0.03929,-0.06455 0.06578,-0.12941 0.06578,-0.10415c-0.28909,0.55291 -0.46047,0.86064 -0.46047,0.86064v0.01096c-0.22453,0.41258 -0.47415,0.78937 -0.59203,0.78937c-0.07859,0 -0.25071,-1.08087 0.03837,-2.55998c0.61747,-3.11259 2.08066,-7.9501 2.06663,-8.1185c-0.01403,-0.08981 0.27014,-0.92686 -0.96479,-1.37592c-1.19845,-0.42381 -1.62559,0.28505 -1.73224,0.28505c-0.10666,0 -0.18638,0.25764 -0.18638,0.25764c0,0 1.32431,-5.45436 -2.5545,-5.45436c-2.42215,0 -5.79112,2.59805 -7.44424,4.95004c-1.03847,0.55291 -3.28836,1.75171 -5.65718,3.02594c-0.90655,0.48836 -1.83766,0.9893 -2.71896,1.46363c-0.06455,-0.06455 -0.11902,-0.12731 -0.18638,-0.19186c-4.70958,-4.91447 -13.40332,-8.38868 -13.03564,-14.98715c0.13191,-2.40531 0.99084,-8.71719 16.71939,-16.385c12.89382,-6.2757 23.20112,-4.55469 24.97493,-0.72359c2.55126,5.46738 -5.51334,15.64352 -18.90114,17.1086c-5.10252,0.55291 -7.45318,-1.60296 -8.12398,-2.32427c-0.69605,-0.7578 -0.80512,-0.79815 -1.06894,-0.65781c-0.43503,0.23015 -0.15717,0.90063 0,1.29918c0.39574,1.01601 2.15447,2.60739 4.95552,3.50833c2.46145,0.78587 8.11337,1.44561 15.34895,-1.2937c8.1281,-3.06207 14.33719,-11.38006 12.48198,-18.51741c-1.18055,-4.53452 -6.42457,-7.16111 -13.03564,-7.51002zM79.27814,89.58234c0.20572,0.01518 0.35842,0.09117 0.44402,0.23572c0.46029,0.76061 -1.59927,6.35946 -2.12693,7.61966c-0.842,2.0208 -2.61963,7.16831 -3.70019,6.89606c-0.92059,-0.23015 -1.48867,-4.15518 -0.18638,-8.01434c0.65676,-1.94221 2.05264,-4.2574 2.88341,-5.15834c0.99566,-1.09039 2.0689,-1.62427 2.68607,-1.57875zM106.61572,95.93022c0.15437,0.44907 0.23545,0.92085 0.24668,1.39237c-0.01403,2.89648 -2.12995,3.97472 -3.40418,4.42379c-0.26383,-0.17963 -0.22896,-0.78648 0.65233,-2.66414c0.34241,-0.73254 1.13551,-1.9676 2.50517,-3.15202zM62.42719,99.12061c1.09179,3.90968 0.04061,7.35864 -2.51065,10.07549c-2.41935,2.58494 -5.81484,3.56324 -7.27431,2.74088c-1.56612,-0.88971 -0.94707,-4.69906 2.03922,-7.4552c1.81591,-1.67277 4.15992,-3.21468 5.712,-4.16614c0.35645,-0.20489 0.86502,-0.51476 1.49652,-0.88805c0.10665,-0.06455 0.15897,-0.08771 0.15897,-0.08771c0.11788,-0.07578 0.24633,-0.14068 0.37824,-0.21927zM95.48225,99.57012c0,0.06455 0.01645,0.13253 0.01645,0.20831c-0.01684,2.30147 -2.28375,3.85566 -3.31099,4.47312h0.01097v0.00548c-0.35645,0.17963 -0.68702,0.29264 -0.84419,0.20283c-0.11788,-0.06455 0.14801,-0.30698 0.14801,-0.30698c0,0 1.82771,-1.92002 2.54902,-2.7957c0.421,-0.51362 0.90589,-1.11907 1.43074,-1.78706z"></path></g><path d="M86,172c-47.49649,0 -86,-38.50351 -86,-86v0c0,-47.49649 38.50351,-86 86,-86v0c47.49649,0 86,38.50351 86,86v0c0,47.49649 -38.50351,86 -86,86z" fill="none"></path><path d="M86,168.56c-45.59663,0 -82.56,-36.96337 -82.56,-82.56v0c0,-45.59663 36.96337,-82.56 82.56,-82.56v0c45.59663,0 82.56,36.96337 82.56,82.56v0c0,45.59663 -36.96337,82.56 -82.56,82.56z" fill="none"></path><path d="M86,172c-47.49649,0 -86,-38.50351 -86,-86v0c0,-47.49649 38.50351,-86 86,-86v0c47.49649,0 86,38.50351 86,86v0c0,47.49649 -38.50351,86 -86,86z" fill="none"></path><path d="M86,168.56c-45.59663,0 -82.56,-36.96337 -82.56,-82.56v0c0,-45.59663 36.96337,-82.56 82.56,-82.56v0c45.59663,0 82.56,36.96337 82.56,82.56v0c0,45.59663 -36.96337,82.56 -82.56,82.56z" fill="none"></path></g></svg>