<svg xmlns="http://www.w3.org/2000/svg" x="0px" y="0px"
width="96" height="96"
viewBox="0 0 172 172"
style=" fill:#000000;"><g fill="none" fill-rule="nonzero" stroke="none" stroke-width="1" stroke-linecap="butt" stroke-linejoin="miter" stroke-miterlimit="10" stroke-dasharray="" stroke-dashoffset="0" font-family="none" font-weight="none" font-size="none" text-anchor="none" style="mix-blend-mode: normal"><path d="M0,172v-172h172v172z" fill="none"></path><path d="M0,86c0,-47.49649 38.50351,-86 86,-86c47.49649,0 86,38.50351 86,86c0,47.49649 -38.50351,86 -86,86c-47.49649,0 -86,-38.50351 -86,-86zM86,168.56c45.59663,0 82.56,-36.96337 82.56,-82.56c0,-45.59663 -36.96337,-82.56 -82.56,-82.56c-45.59663,0 -82.56,36.96337 -82.56,82.56c0,45.59663 36.96337,82.56 82.56,82.56z" fill="#22759b"></path><path d="M86,172c-47.49649,0 -86,-38.50351 -86,-86v0c0,-47.49649 38.50351,-86 86,-86v0c47.49649,0 86,38.50351 86,86v0c0,47.49649 -38.50351,86 -86,86z" fill="none"></path><path d="M86,168.56c-45.59663,0 -82.56,-36.96337 -82.56,-82.56v0c0,-45.59663 36.96337,-82.56 82.56,-82.56v0c45.59663,0 82.56,36.96337 82.56,82.56v0c0,45.59663 -36.96337,82.56 -82.56,82.56z" fill="none"></path><path d="M86,172c-47.49649,0 -86,-38.50351 -86,-86v0c0,-47.49649 38.50351,-86 86,-86v0c47.49649,0 86,38.50351 86,86v0c0,47.49649 -38.50351,86 -86,86z" fill="none"></path><path d="M86,168.56c-45.59663,0 -82.56,-36.96337 -82.56,-82.56v0c0,-45.59663 36.96337,-82.56 82.56,-82.56v0c45.59663,0 82.56,36.96337 82.56,82.56v0c0,45.59663 -36.96337,82.56 -82.56,82.56z" fill="none"></path><g><path d="M86,39.53312c-25.66295,0 -46.46687,20.80393 -46.46688,46.46688c0,25.66295 20.80393,46.46687 46.46688,46.46688c25.66295,0 46.46688,-20.80393 46.46688,-46.46688c0,-25.66295 -20.80393,-46.46688 -46.46688,-46.46688z" fill="#ffffff"></path><path d="M48.73566,86c0,14.7576 8.57133,27.49814 21.00443,33.54l-17.78086,-48.70753c-2.06597,4.63737 -3.22357,9.75455 -3.22357,15.16753zM111.16432,84.12269c0,-4.60476 -2.4759,-7.80271 -3.88971,-10.27628c-1.89361,-3.09546 -3.67077,-5.67618 -3.67077,-8.73903c0,-3.41223 3.4262,-6.61483 7.083,-6.61483c0.16537,0 0.31444,0.01398 0.47981,0.01863c-6.62415,-6.08844 -15.45868,-9.77784 -25.16432,-9.77784c-12.55188,0 -23.64803,6.20956 -30.40028,15.71955c0.53105,0.17236 0.71505,0.09084 1.42312,0.09084c3.88738,0 9.93157,-0.46583 9.93157,-0.46583c2.00308,-0.13276 2.24765,2.82295 0.23059,3.06518c0,0 -2.0124,0.24456 -4.25772,0.35403l13.81429,41.40793l8.15208,-24.45858l-6.06282,-16.8818c-2.00541,-0.10714 -3.91067,-0.35403 -3.91067,-0.35403c-2.00774,-0.13043 -1.77482,-3.2026 0.22826,-3.06518c0,0 6.16763,0.46583 9.8221,0.46583c3.90135,0 9.93157,-0.46583 9.93157,-0.46583c2.00541,-0.13276 2.24765,2.82295 0.24223,3.06518c0,0 -2.02638,0.24456 -4.26703,0.35403l13.72112,41.01663l3.72434,-12.40514c1.89594,-4.84467 2.83925,-8.85083 2.83925,-12.05344zM86.6545,89.25152l-11.18,32.49653c3.34468,0.99223 6.87104,1.51862 10.52783,1.51862c4.33458,0 8.49913,-0.75465 12.38185,-2.11255c-0.09317,-0.16537 -0.19798,-0.33307 -0.27484,-0.51242zM118.70849,68.10734c0.16537,1.18788 0.25155,2.46659 0.25155,3.83148c0,3.79188 -0.71272,8.03795 -2.83925,13.36243l-11.37798,32.92277c11.08218,-6.45645 18.52386,-18.47728 18.52386,-32.22402c0,-6.47741 -1.65604,-12.56818 -4.55818,-17.89266z" fill="#22759b"></path><path d="M39.41667,86c0,25.67673 20.89263,46.58333 46.581,46.58333c25.69304,0 46.58566,-20.9066 46.58566,-46.58333c0,-25.67673 -20.89263,-46.58333 -46.58333,-46.58333c-25.69071,0 -46.58333,20.9066 -46.58333,46.58333zM44.06335,86c0,-23.11465 18.80569,-41.92267 41.93432,-41.92267c23.12863,0 41.93898,18.80802 41.93898,41.92267c0,23.11465 -18.81035,41.92733 -41.93665,41.92733c-23.12397,0 -41.93665,-18.81268 -41.93665,-41.92733z" fill="#22759b"></path></g><path d="M86,172c-47.49649,0 -86,-38.50351 -86,-86v0c0,-47.49649 38.50351,-86 86,-86v0c47.49649,0 86,38.50351 86,86v0c0,47.49649 -38.50351,86 -86,86z" fill="none"></path><path d="M86,168.56c-45.59663,0 -82.56,-36.96337 -82.56,-82.56v0c0,-45.59663 36.96337,-82.56 82.56,-82.56v0c45.59663,0 82.56,36.96337 82.56,82.56v0c0,45.59663 -36.96337,82.56 -82.56,82.56z" fill="none"></path><path d="M86,172c-47.49649,0 -86,-38.50351 -86,-86v0c0,-47.49649 38.50351,-86 86,-86v0c47.49649,0 86,38.50351 86,86v0c0,47.49649 -38.50351,86 -86,86z" fill="none"></path><path d="M86,168.56c-45.59663,0 -82.56,-36.96337 -82.56,-82.56v0c0,-45.59663 36.96337,-82.56 82.56,-82.56v0c45.59663,0 82.56,36.96337 82.56,82.56v0c0,45.59663 -36.96337,82.56 -82.56,82.56z" fill="none"></path></g></svg>